<?xml version="1.0" encoding="utf-8" standalone="no"?>
<!DOCTYPE svg PUBLIC "-//W3C//DTD SVG 1.1//EN"
  "http://www.w3.org/Graphics/SVG/1.1/DTD/svg11.dtd">
<svg xmlns:xlink="http://www.w3.org/1999/xlink" width="720pt" height="540pt" viewBox="0 0 720 540" xmlns="http://www.w3.org/2000/svg" version="1.1">
 <metadata>
  <rdf:RDF xmlns:dc="http://purl.org/dc/elements/1.1/" xmlns:cc="http://creativecommons.org/ns#" xmlns:rdf="http://www.w3.org/1999/02/22-rdf-syntax-ns#">
   <cc:Work>
    <dc:type rdf:resource="http://purl.org/dc/dcmitype/StillImage"/>
    <dc:format>image/svg+xml</dc:format>
    <dc:creator>
     <cc:Agent>
      <dc:title>Matplotlib v3.10.0, https://matplotlib.org/</dc:title>
     </cc:Agent>
    </dc:creator>
   </cc:Work>
  </rdf:RDF>
 </metadata>
 <defs>
  <style type="text/css">*{stroke-linejoin: round; stroke-linecap: butt}</style>
 </defs>
 <g id="figure_1">
  <g id="patch_1">
   <path d="M 0 540
L 720 540
L 720 0
L 0 0
z
" style="fill: #ffffff"/>
  </g>
  <g id="axes_1">
   <g id="patch_2">
    <path d="M 45.702 193.536
L 168.138 193.536
Q 177.03 193.536 177.03 186.7968
L 177.03 114.7392
Q 177.03 108 168.138 108
L 45.702 108
Q 36.81 108 36.81 114.7392
L 36.81 186.7968
Q 36.81 193.536 45.702 193.536
z
" clip-path="url(#p67518428b1)" style="fill: #e9edf1; stroke: #203349; stroke-width: 1.3; stroke-linejoin: miter"/>
   </g>
   <g id="patch_3">
    <path d="M 216.702 193.536
L 339.138 193.536
Q 348.03 193.536 348.03 186.7968
L 348.03 114.7392
Q 348.03 108 339.138 108
L 216.702 108
Q 207.81 108 207.81 114.7392
L 207.81 186.7968
Q 207.81 193.536 216.702 193.536
z
" clip-path="url(#p67518428b1)" style="fill: #e4effb; stroke: #203349; stroke-width: 1.3; stroke-linejoin: miter"/>
   </g>
   <g id="patch_4">
    <path d="M 387.702 193.536
L 510.138 193.536
Q 519.03 193.536 519.03 186.7968
L 519.03 114.7392
Q 519.03 108 510.138 108
L 387.702 108
Q 378.81 108 378.81 114.7392
L 378.81 186.7968
Q 378.81 193.536 387.702 193.536
z
" clip-path="url(#p67518428b1)" style="fill: #e4effb; stroke: #203349; stroke-width: 1.3; stroke-linejoin: miter"/>
   </g>
   <g id="patch_5">
    <path d="M 558.702 193.536
L 681.138 193.536
Q 690.03 193.536 690.03 186.7968
L 690.03 114.7392
Q 690.03 108 681.138 108
L 558.702 108
Q 549.81 108 549.81 114.7392
L 549.81 186.7968
Q 549.81 193.536 558.702 193.536
z
" clip-path="url(#p67518428b1)" style="fill: #ede6f7; stroke: #203349; stroke-width: 1.3; stroke-linejoin: miter"/>
   </g>
   <g id="patch_6">
    <path d="M 177.319731 150.768
Q 192.419503 150.768 205.730421 150.768
" clip-path="url(#p67518428b1)" style="fill: none; stroke: #203349; stroke-width: 1.6; stroke-linecap: round"/>
    <path d="M 199.330421 147.568
L 205.730421 150.768
L 199.330421 153.968
z
" clip-path="url(#p67518428b1)" style="fill: #203349; stroke: #203349; stroke-width: 1.6; stroke-linecap: round"/>
   </g>
   <g id="patch_7">
    <path d="M 348.319731 150.768
Q 363.419503 150.768 376.730421 150.768
" clip-path="url(#p67518428b1)" style="fill: none; stroke: #203349; stroke-width: 1.6; stroke-linecap: round"/>
    <path d="M 370.330421 147.568
L 376.730421 150.768
L 370.330421 153.968
z
" clip-path="url(#p67518428b1)" style="fill: #203349; stroke: #203349; stroke-width: 1.6; stroke-linecap: round"/>
   </g>
   <g id="patch_8">
    <path d="M 519.319731 150.768
Q 534.419503 150.768 547.730421 150.768
" clip-path="url(#p67518428b1)" style="fill: none; stroke: #203349; stroke-width: 1.6; stroke-linecap: round"/>
    <path d="M 541.330421 147.568
L 547.730421 150.768
L 541.330421 153.968
z
" clip-path="url(#p67518428b1)" style="fill: #203349; stroke: #203349; stroke-width: 1.6; stroke-linecap: round"/>
   </g>
   <g id="patch_9">
    <path d="M 182.502 312.768
L 304.938 312.768
Q 313.83 312.768 313.83 306.0288
L 313.83 254.7072
Q 313.83 247.968 304.938 247.968
L 182.502 247.968
Q 173.61 247.968 173.61 254.7072
L 173.61 306.0288
Q 173.61 312.768 182.502 312.768
z
" clip-path="url(#p67518428b1)" style="fill: #e4effb; stroke: #203349; stroke-width: 1.3; stroke-linejoin: miter"/>
   </g>
   <g id="patch_10">
    <path d="M 319.302 312.768
L 441.738 312.768
Q 450.63 312.768 450.63 306.0288
L 450.63 254.7072
Q 450.63 247.968 441.738 247.968
L 319.302 247.968
Q 310.41 247.968 310.41 254.7072
L 310.41 306.0288
Q 310.41 312.768 319.302 312.768
z
" clip-path="url(#p67518428b1)" style="fill: #e4effb; stroke: #203349; stroke-width: 1.3; stroke-linejoin: miter"/>
   </g>
   <g id="patch_11">
    <path d="M 456.102 312.768
L 578.538 312.768
Q 587.43 312.768 587.43 306.0288
L 587.43 254.7072
Q 587.43 247.968 578.538 247.968
L 456.102 247.968
Q 447.21 247.968 447.21 254.7072
L 447.21 306.0288
Q 447.21 312.768 456.102 312.768
z
" clip-path="url(#p67518428b1)" style="fill: #e4effb; stroke: #203349; stroke-width: 1.3; stroke-linejoin: miter"/>
   </g>
   <g id="patch_12">
    <path d="M 319.302 416.448
L 373.338 416.448
Q 382.23 416.448 382.23 409.7088
L 382.23 358.3872
Q 382.23 351.648 373.338 351.648
L 319.302 351.648
Q 310.41 351.648 310.41 358.3872
L 310.41 409.7088
Q 310.41 416.448 319.302 416.448
z
" clip-path="url(#p67518428b1)" style="fill: #ede6f7; stroke: #203349; stroke-width: 1.3; stroke-linejoin: miter"/>
   </g>
   <g id="patch_13">
    <path d="M 456.102 416.448
L 510.138 416.448
Q 519.03 416.448 519.03 409.7088
L 519.03 358.3872
Q 519.03 351.648 510.138 351.648
L 456.102 351.648
Q 447.21 351.648 447.21 358.3872
L 447.21 409.7088
Q 447.21 416.448 456.102 416.448
z
" clip-path="url(#p67518428b1)" style="fill: #ede6f7; stroke: #203349; stroke-width: 1.3; stroke-linejoin: miter"/>
   </g>
   <g id="patch_14">
    <path d="M 592.902 416.448
L 646.938 416.448
Q 655.83 416.448 655.83 409.7088
L 655.83 358.3872
Q 655.83 351.648 646.938 351.648
L 592.902 351.648
Q 584.01 351.648 584.01 358.3872
L 584.01 409.7088
Q 584.01 416.448 592.902 416.448
z
" clip-path="url(#p67518428b1)" style="fill: #ede6f7; stroke: #203349; stroke-width: 1.3; stroke-linejoin: miter"/>
   </g>
   <g id="text_1">
    <!-- GPU 的下一批数据，何时准备好？ -->
    <g style="fill: #203349" transform="translate(31.68 43.053984) scale(0.23 -0.23)">
     <defs>
      <path id="MicrosoftYaHei-Bold-47" d="M 4494 325
Q 3784 -84 2750 -84
Q 1594 -84 925 566
Q 256 1216 256 2344
Q 256 3488 992 4205
Q 1728 4922 2931 4922
Q 3706 4922 4284 4703
L 4284 3725
Q 3722 4053 2909 4053
Q 2209 4053 1775 3597
Q 1341 3141 1341 2394
Q 1341 1634 1733 1209
Q 2125 784 2803 784
Q 3206 784 3463 909
L 3463 1903
L 2484 1903
L 2484 2731
L 4494 2731
L 4494 325
z
" transform="scale(0.015625)"/>
      <path id="MicrosoftYaHei-Bold-50" d="M 1591 1688
L 1591 0
L 559 0
L 559 4841
L 2225 4841
Q 4031 4841 4031 3309
Q 4031 2566 3486 2117
Q 2941 1669 2122 1688
L 1591 1688
z
M 1591 4041
L 1591 2478
L 2038 2478
Q 2947 2478 2947 3269
Q 2947 4041 2047 4041
L 1591 4041
z
" transform="scale(0.015625)"/>
      <path id="MicrosoftYaHei-Bold-55" d="M 4466 2081
Q 4466 -84 2453 -84
Q 509 -84 509 2025
L 509 4841
L 1544 4841
L 1544 2019
Q 1544 809 2497 809
Q 3434 809 3434 1975
L 3434 4841
L 4466 4841
L 4466 2081
z
" transform="scale(0.015625)"/>
      <path id="MicrosoftYaHei-Bold-20" transform="scale(0.015625)"/>
      <path id="MicrosoftYaHei-Bold-7684" d="M 1250 5303
L 2181 5159
L 1900 4309
L 2963 4309
L 2963 3091
Q 3466 3934 3925 5316
L 4788 5091
Q 4650 4675 4494 4278
L 6106 4278
L 6034 681
Q 6019 100 5937 -133
Q 5856 -366 5684 -512
Q 5513 -659 5205 -712
Q 4897 -766 3863 -766
Q 3769 -216 3625 178
Q 4088 141 4609 141
Q 4759 141 4868 175
Q 4978 209 5048 279
Q 5119 350 5144 437
Q 5169 525 5184 1206
L 5213 2484
Q 5225 3081 5225 3453
L 4138 3453
Q 3931 3016 3700 2603
Q 3403 2797 2963 2988
L 2963 -734
L 2094 -734
L 2094 -284
L 1206 -284
L 1206 -772
L 338 -772
L 338 4309
L 997 4309
Q 1178 4922 1250 5303
z
M 2094 3491
L 1206 3491
L 1206 2422
L 2094 2422
L 2094 3491
z
M 1206 534
L 2094 534
L 2094 1603
L 1206 1603
L 1206 534
z
M 3944 2703
Q 4394 2166 4913 1397
L 4125 872
Q 3650 1653 3219 2203
L 3944 2703
z
" transform="scale(0.015625)"/>
      <path id="MicrosoftYaHei-Bold-4e0b" d="M 4038 3372
Q 5050 2647 6069 1866
L 5425 1078
Q 4363 1997 3488 2647
L 3488 -822
L 2475 -822
L 2475 4066
L 175 4066
L 175 4947
L 6213 4947
L 6213 4066
L 3488 4066
L 3488 2822
L 4038 3372
z
" transform="scale(0.015625)"/>
      <path id="MicrosoftYaHei-Bold-4e00" d="M 188 2716
L 6225 2716
L 6225 1791
L 188 1791
L 188 2716
z
" transform="scale(0.015625)"/>
      <path id="MicrosoftYaHei-Bold-6279" d="M 113 4153
L 738 4153
L 738 5253
L 1531 5253
L 1531 4153
L 2031 4153
L 2031 3378
L 1531 3378
L 1531 2475
Q 1791 2538 1994 2597
Q 1981 2103 2000 1759
L 1531 1628
L 1531 -22
Q 1531 -372 1392 -559
Q 1253 -747 942 -778
Q 631 -809 244 -809
Q 194 -428 94 3
L 575 3
Q 738 3 738 247
L 738 1406
L 150 1241
L 81 2159
L 738 2294
L 738 3378
L 113 3378
L 113 4153
z
M 5738 4172
L 6313 3466
Q 5619 2750 4844 2078
L 4844 366
Q 4844 116 5056 116
L 5181 116
Q 5294 116 5367 273
Q 5441 431 5500 1641
L 6306 1372
Q 6244 509 6181 125
Q 6119 -259 5887 -468
Q 5656 -678 5250 -678
L 4869 -678
Q 3981 -678 3981 247
L 3981 5222
L 4844 5222
L 4844 3184
Q 5222 3588 5738 4172
z
M 3138 5184
L 3138 3428
L 3813 3428
L 3813 2584
L 3138 2584
L 3138 478
Q 3500 634 3794 778
Q 3806 241 3844 -97
Q 2719 -572 2425 -766
L 1975 -47
Q 2288 216 2281 691
L 2281 5184
L 3138 5184
z
" transform="scale(0.015625)"/>
      <path id="MicrosoftYaHei-Bold-6570" d="M 238 4091
L 725 4091
Q 559 4425 281 4803
L 844 5153
Q 1038 4922 1369 4428
L 806 4091
L 1506 4091
L 1506 5316
L 2300 5316
L 2300 4091
L 2956 4091
L 2438 4428
Q 2750 4809 2963 5172
L 3550 4822
Q 3341 4466 3031 4091
L 3394 4091
L 3394 3453
L 2300 3453
L 2300 3016
L 2513 3303
Q 2903 3094 3253 2891
Q 3766 3841 4138 5347
L 4994 5266
Q 4869 4781 4728 4341
L 6294 4341
L 6294 3578
L 6041 3578
Q 5906 1922 5338 856
Q 5738 391 6319 53
Q 6094 -203 5775 -778
Q 5228 -413 4828 109
Q 4313 -497 3631 -872
Q 3378 -513 3072 -197
L 2850 -566
Q 2475 -350 2031 -128
Q 1347 -584 394 -778
Q 281 -434 63 -9
Q 716 59 1213 253
Q 781 444 300 641
Q 513 950 681 1259
L 169 1259
L 169 1897
L 991 1897
Q 1094 2144 1169 2391
L 1506 2359
L 1506 2959
Q 1044 2472 344 2053
Q 213 2472 50 2803
Q 672 3044 1172 3453
L 238 3453
L 238 4091
z
M 4394 3400
Q 4519 2359 4831 1659
Q 5203 2478 5275 3578
L 4463 3578
Q 4431 3488 4394 3400
z
M 2300 2216
L 1984 2216
Q 1913 2063 1825 1897
L 3281 1897
L 3281 1316
Q 3038 806 2672 413
L 3294 166
L 3169 -38
Q 3859 322 4347 894
Q 4041 1522 3878 2300
Q 3769 2103 3656 1922
Q 3513 2172 3322 2438
L 3138 2159
Q 2750 2422 2300 2691
L 2300 2216
z
M 1300 934
L 1950 691
Q 2231 934 2413 1259
L 1484 1259
L 1300 934
z
" transform="scale(0.015625)"/>
      <path id="MicrosoftYaHei-Bold-636e" d="M 6294 1916
L 4869 1916
L 4869 1391
L 5919 1391
L 5919 -853
L 5181 -853
L 5181 -541
L 3788 -541
L 3788 -853
L 3050 -853
L 3050 1391
L 4081 1391
L 4081 1916
L 2988 1916
Q 2875 203 2188 -803
Q 1925 -459 1625 -166
Q 2250 928 2250 2803
L 2250 5084
L 6031 5084
L 6031 3128
L 4869 3128
L 4869 2572
L 6294 2572
L 6294 1916
z
M 169 4147
L 763 4147
L 763 5253
L 1519 5253
L 1519 4147
L 2056 4147
L 2056 3347
L 1519 3347
L 1519 2472
Q 1788 2528 2088 2603
Q 2056 2103 2063 1791
Q 1788 1722 1519 1653
L 1519 -59
Q 1519 -753 950 -772
Q 619 -803 313 -791
Q 250 -422 131 22
Q 338 16 550 9
Q 763 3 763 309
L 763 1459
Q 463 1378 163 1303
L 94 2166
Q 375 2222 763 2303
L 763 3347
L 169 3347
L 169 4147
z
M 5263 3784
L 5263 4428
L 3013 4428
L 3013 3784
L 5263 3784
z
M 5181 734
L 3788 734
L 3788 116
L 5181 116
L 5181 734
z
M 4081 2572
L 4081 3128
L 3013 3128
L 3013 2572
L 4081 2572
z
" transform="scale(0.015625)"/>
      <path id="MicrosoftYaHei-Bold-ff0c" d="M 2075 831
L 1569 -863
L 831 -863
L 1191 831
L 2075 831
z
" transform="scale(0.015625)"/>
      <path id="MicrosoftYaHei-Bold-4f55" d="M 1275 5309
L 2150 5116
Q 1938 4359 1631 3644
L 1631 -778
L 794 -778
L 794 2034
Q 575 1681 331 1341
Q 244 1809 75 2478
Q 863 3766 1275 5309
z
M 2125 4959
L 6288 4959
L 6288 4153
L 5863 4153
L 5863 447
Q 5863 -141 5619 -445
Q 5375 -750 4956 -776
Q 4538 -803 3663 -803
Q 3588 -384 3475 84
Q 3850 63 4178 63
Q 4538 63 4678 100
Q 4819 138 4906 278
Q 4994 419 4994 653
L 4994 4153
L 2125 4153
L 2125 4959
z
M 4425 3491
L 4425 797
L 2994 797
L 2994 372
L 2213 372
L 2213 3491
L 4425 3491
z
M 2994 2766
L 2994 1522
L 3644 1522
L 3644 2766
L 2994 2766
z
" transform="scale(0.015625)"/>
      <path id="MicrosoftYaHei-Bold-65f6" d="M 3038 4241
L 4888 4241
L 4888 5291
L 5781 5291
L 5781 4241
L 6306 4241
L 6306 3409
L 5781 3409
L 5781 316
Q 5781 -209 5547 -478
Q 5313 -747 4898 -762
Q 4484 -778 3669 -778
Q 3569 -209 3456 134
Q 4344 109 4431 109
Q 4888 109 4888 584
L 4888 3409
L 3038 3409
L 3038 4241
z
M 394 -497
L 394 4897
L 2856 4897
L 2856 -459
L 2031 -459
L 2031 -28
L 1219 -28
L 1219 -497
L 394 -497
z
M 2031 4072
L 1219 4072
L 1219 2834
L 2031 2834
L 2031 4072
z
M 1219 797
L 2031 797
L 2031 2034
L 1219 2034
L 1219 797
z
M 3588 3072
Q 4013 2541 4713 1559
L 3956 1066
Q 3388 2009 2938 2641
L 3588 3072
z
" transform="scale(0.015625)"/>
      <path id="MicrosoftYaHei-Bold-51c6" d="M 2594 5328
L 3406 5116
Q 3250 4675 3066 4266
L 4350 4266
Q 4100 4581 3781 4941
L 4406 5384
Q 4819 4966 5175 4541
L 4778 4266
L 6181 4266
L 6181 3591
L 4906 3591
L 4906 2916
L 6131 2916
L 6131 2272
L 4906 2272
L 4906 1597
L 6131 1597
L 6131 953
L 4906 953
L 4906 266
L 6250 266
L 6250 -397
L 2963 -397
L 2963 -847
L 2113 -847
L 2113 2588
Q 1941 2350 1756 2122
Q 1550 2603 1356 2959
Q 2188 3959 2594 5328
z
M 2963 2916
L 4056 2916
L 4056 3591
L 2963 3591
L 2963 2916
z
M 2963 1597
L 4056 1597
L 4056 2272
L 2963 2272
L 2963 1597
z
M 2963 266
L 4056 266
L 4056 953
L 2963 953
L 2963 266
z
M 731 5022
Q 1200 4422 1700 3709
L 956 3203
Q 525 3903 38 4572
L 731 5022
z
M 925 2472
Q 1344 2241 1738 2059
L 825 -609
Q 481 -353 44 -109
Q 475 966 925 2472
z
" transform="scale(0.015625)"/>
      <path id="MicrosoftYaHei-Bold-5907" d="M 5669 4847
L 5669 4203
Q 5119 3644 4275 3213
Q 5159 3019 6306 2972
Q 6088 2528 5944 2172
Q 4325 2325 3194 2750
Q 2184 2391 884 2153
L 5600 2153
L 5600 -828
L 4738 -828
L 4738 -584
L 1663 -584
L 1663 -828
L 800 -828
L 800 2138
Q 609 2103 413 2072
Q 269 2416 88 2816
Q 1294 2978 2219 3219
Q 1797 3481 1484 3800
Q 1091 3469 663 3209
Q 481 3422 119 3759
Q 1156 4384 1900 5347
L 2794 5247
Q 2647 5041 2494 4847
L 5669 4847
z
M 3206 3534
Q 3959 3825 4431 4197
L 2116 4197
Q 2550 3803 3206 3534
z
M 4738 1522
L 3606 1522
L 3606 1072
L 4738 1072
L 4738 1522
z
M 1663 1072
L 2794 1072
L 2794 1522
L 1663 1522
L 1663 1072
z
M 3606 47
L 4738 47
L 4738 497
L 3606 497
L 3606 47
z
M 1663 47
L 2794 47
L 2794 497
L 1663 497
L 1663 47
z
" transform="scale(0.015625)"/>
      <path id="MicrosoftYaHei-Bold-597d" d="M 100 4209
L 834 4209
Q 916 4747 988 5347
L 1856 5266
L 1681 4209
L 2913 4209
Q 2859 2084 2244 897
L 3125 147
L 2500 -522
Q 2144 -153 1781 200
Q 1313 -372 656 -778
Q 369 -391 94 -84
Q 719 281 1156 797
Q 728 1197 294 1584
Q 522 2375 709 3428
L 100 3428
L 100 4209
z
M 1188 1797
L 1588 1456
Q 1953 2222 2044 3428
L 1538 3428
Q 1372 2581 1188 1797
z
M 2925 2653
L 4263 2653
L 4263 3247
L 5131 4228
L 3144 4228
L 3144 5047
L 6213 5047
L 6213 4159
L 5150 2934
L 5150 2653
L 6319 2653
L 6319 1809
L 5150 1809
L 5150 266
Q 5150 59 5065 -200
Q 4981 -459 4762 -626
Q 4544 -794 4050 -801
Q 3556 -809 3288 -809
Q 3231 -372 3131 34
Q 3644 -19 3872 -19
Q 4263 -19 4263 522
L 4263 1809
L 2925 1809
L 2925 2653
z
" transform="scale(0.015625)"/>
      <path id="MicrosoftYaHei-Bold-ff1f" d="M 1831 1416
L 1006 1416
L 1006 1709
Q 1006 2044 1128 2280
Q 1250 2516 1538 2753
Q 1869 3025 1978 3198
Q 2088 3372 2088 3572
Q 2088 3803 1925 3940
Q 1763 4078 1459 4078
Q 872 4078 366 3641
L 366 4603
Q 925 4916 1563 4916
Q 2278 4916 2675 4587
Q 3072 4259 3072 3700
Q 3072 3341 2909 3037
Q 2747 2734 2350 2413
Q 2016 2147 1923 1995
Q 1831 1844 1831 1631
L 1831 1416
z
M 1422 959
Q 1659 959 1828 806
Q 1997 653 1997 434
Q 1997 222 1828 69
Q 1659 -84 1422 -84
Q 1181 -84 1015 70
Q 850 225 850 434
Q 850 650 1015 804
Q 1181 959 1422 959
z
" transform="scale(0.015625)"/>
     </defs>
     <use xlink:href="#MicrosoftYaHei-Bold-47"/>
     <use xlink:href="#MicrosoftYaHei-Bold-50" transform="translate(76.513672 0)"/>
     <use xlink:href="#MicrosoftYaHei-Bold-55" transform="translate(142.236328 0)"/>
     <use xlink:href="#MicrosoftYaHei-Bold-20" transform="translate(219.873047 0)"/>
     <use xlink:href="#MicrosoftYaHei-Bold-7684" transform="translate(249.658203 0)"/>
     <use xlink:href="#MicrosoftYaHei-Bold-4e0b" transform="translate(349.658203 0)"/>
     <use xlink:href="#MicrosoftYaHei-Bold-4e00" transform="translate(449.658203 0)"/>
     <use xlink:href="#MicrosoftYaHei-Bold-6279" transform="translate(549.658203 0)"/>
     <use xlink:href="#MicrosoftYaHei-Bold-6570" transform="translate(649.658203 0)"/>
     <use xlink:href="#MicrosoftYaHei-Bold-636e" transform="translate(749.658203 0)"/>
     <use xlink:href="#MicrosoftYaHei-Bold-ff0c" transform="translate(849.658203 0)"/>
     <use xlink:href="#MicrosoftYaHei-Bold-4f55" transform="translate(949.658203 0)"/>
     <use xlink:href="#MicrosoftYaHei-Bold-65f6" transform="translate(1049.658203 0)"/>
     <use xlink:href="#MicrosoftYaHei-Bold-51c6" transform="translate(1149.658203 0)"/>
     <use xlink:href="#MicrosoftYaHei-Bold-5907" transform="translate(1249.658203 0)"/>
     <use xlink:href="#MicrosoftYaHei-Bold-597d" transform="translate(1349.658203 0)"/>
     <use xlink:href="#MicrosoftYaHei-Bold-ff1f" transform="translate(1449.658203 0)"/>
    </g>
   </g>
   <g id="text_2">
    <!-- 假设读取一批 20 ms、计算一批 10 ms；忽略传输，演示稳态等待 -->
    <g style="fill: #203349" transform="translate(31.68 82.047469) scale(0.14 -0.14)">
     <defs>
      <path id="MicrosoftYaHei-5047" d="M 3763 4953
L 3763 2841
L 3325 2841
L 3325 3034
L 2319 3034
L 2319 2247
L 3625 2247
L 3625 1847
L 2319 1847
L 2319 1047
L 3706 1047
L 3706 647
L 2319 647
L 2319 -847
L 1856 -847
L 1856 4953
L 3763 4953
z
M 3756 2109
L 3756 2497
L 5963 2497
L 5963 2122
Q 5763 1094 5191 369
Q 5663 -106 6381 -378
Q 6138 -659 6031 -816
Q 5350 -463 4888 34
Q 4309 -531 3450 -872
Q 3325 -684 3156 -472
Q 4044 -159 4606 375
Q 4081 1109 3941 2109
L 3756 2109
z
M 63 2247
Q 863 3666 1175 5316
L 1638 5228
Q 1478 4528 1256 3881
L 1256 -859
L 819 -859
L 819 2788
Q 566 2244 263 1741
Q 181 1984 63 2247
z
M 3969 3447
L 5475 3447
L 5475 4559
L 4006 4559
L 4006 4959
L 5913 4959
L 5913 2809
L 5475 2809
L 5475 3047
L 3969 3047
L 3969 3447
z
M 3325 4553
L 2319 4553
L 2319 3434
L 3325 3434
L 3325 4553
z
M 5513 2109
L 4350 2109
Q 4484 1288 4903 703
Q 5366 1297 5513 2109
z
" transform="scale(0.015625)"/>
      <path id="MicrosoftYaHei-8bbe" d="M 2231 2116
L 2231 2547
L 5638 2547
L 5638 2116
Q 5144 1031 4419 416
Q 5216 -109 6338 -316
Q 6119 -597 5956 -822
Q 4841 -500 4013 113
Q 3163 -463 1863 -872
Q 1700 -641 1538 -422
Q 2778 -88 3613 431
Q 2888 1131 2559 2116
L 2231 2116
z
M 4856 4553
L 3294 4553
L 3294 4372
Q 3294 3222 2244 2659
Q 2075 2866 1881 3047
Q 2806 3522 2806 4359
L 2806 5016
L 5344 5016
L 5344 3741
Q 5344 3459 5631 3459
L 6319 3459
Q 6288 3203 6269 2997
L 5444 2997
Q 4856 2997 4856 3647
L 4856 4553
z
M 2250 1028
Q 2263 734 2294 472
Q 1438 -84 1019 -422
L 719 -9
Q 931 197 931 553
L 931 2778
L 138 2778
L 138 3228
L 1406 3228
L 1406 453
Q 1813 722 2250 1028
z
M 988 5128
Q 1469 4653 1906 4166
L 1469 3803
Q 1013 4391 613 4803
L 988 5128
z
M 3031 2116
Q 3347 1319 4022 713
Q 4684 1225 5081 2116
L 3031 2116
z
" transform="scale(0.015625)"/>
      <path id="MicrosoftYaHei-8bfb" d="M 1844 3516
L 3750 3516
L 3750 4141
L 2075 4141
L 2075 4578
L 3750 4578
L 3750 5303
L 4225 5303
L 4225 4578
L 6013 4578
L 6013 4141
L 4225 4141
L 4225 3516
L 6138 3516
L 6063 2291
Q 5838 2316 5581 2322
L 5650 3078
L 1844 3078
L 1844 3516
z
M 1794 1291
L 4063 1291
Q 4188 1803 4156 2916
L 4631 2916
Q 4650 1741 4556 1291
L 6219 1291
L 6219 853
L 4463 853
Q 4419 734 4369 634
Q 5300 134 6200 -391
L 5888 -816
Q 4950 -222 4125 247
Q 3563 -434 2044 -884
Q 1906 -666 1731 -434
Q 3544 53 3950 853
L 1794 853
L 1794 1291
z
M 2025 672
Q 2038 384 2069 128
Q 1381 -316 913 -691
L 625 -278
Q 838 -91 838 259
L 838 2678
L 88 2678
L 88 3128
L 1306 3128
L 1306 166
Q 1619 378 2025 672
z
M 813 5147
Q 1288 4672 1763 4141
L 1331 3784
Q 894 4334 431 4834
L 813 5147
z
M 2056 1997
L 2281 2334
Q 2869 2053 3425 1728
L 3181 1353
Q 2675 1678 2056 1997
z
M 2513 2678
L 2744 3022
Q 3331 2734 3869 2434
L 3619 2053
Q 3088 2384 2513 2678
z
" transform="scale(0.015625)"/>
      <path id="MicrosoftYaHei-53d6" d="M 88 641
Q 363 675 650 713
L 650 4578
L 181 4578
L 181 5016
L 3244 5016
L 3244 4797
L 5975 4797
L 5975 4403
Q 5613 2097 4906 1006
Q 5497 172 6325 -291
Q 6150 -472 5944 -753
Q 5275 -266 4625 609
Q 3994 -219 3125 -828
Q 2947 -594 2806 -434
L 2806 -822
L 2338 -822
L 2338 531
Q 1197 353 156 178
L 88 641
z
M 3194 4372
L 3194 4578
L 2806 4578
L 2806 1025
Q 3156 1081 3519 1141
Q 3500 884 3500 709
Q 3147 656 2806 603
L 2806 -403
Q 3681 109 4350 1006
Q 3628 2156 3422 4372
L 3194 4372
z
M 5506 4372
L 3875 4372
Q 4022 2544 4638 1428
Q 5181 2344 5506 4372
z
M 2338 953
L 2338 1866
L 1119 1866
L 1119 775
Q 1703 859 2338 953
z
M 1119 2266
L 2338 2266
L 2338 3222
L 1119 3222
L 1119 2266
z
M 1119 3622
L 2338 3622
L 2338 4578
L 1119 4578
L 1119 3622
z
" transform="scale(0.015625)"/>
      <path id="MicrosoftYaHei-4e00" d="M 100 2703
L 6313 2703
L 6313 2153
L 100 2153
L 100 2703
z
" transform="scale(0.015625)"/>
      <path id="MicrosoftYaHei-6279" d="M 4125 5247
L 4613 5247
L 4613 2928
Q 5297 3519 5856 4178
L 6244 3828
Q 5381 2944 4613 2313
L 4613 172
Q 4613 -203 4931 -203
L 5300 -203
Q 5675 -203 5731 141
Q 5806 522 5850 1191
Q 6081 1091 6325 1009
Q 6269 422 6194 -9
Q 6081 -678 5475 -678
L 4869 -678
Q 4125 -678 4125 84
L 4125 5247
z
M 81 1916
Q 503 2031 969 2178
L 969 3634
L 163 3634
L 163 4084
L 969 4084
L 969 5316
L 1456 5316
L 1456 4084
L 2138 4084
L 2138 3634
L 1456 3634
L 1456 2331
Q 1775 2438 2113 2553
Q 2094 2284 2088 2053
Q 1784 1941 1456 1825
L 1456 -84
Q 1456 -741 869 -766
Q 619 -778 288 -772
Q 263 -522 213 -259
Q 500 -291 731 -291
Q 969 -291 969 -34
L 969 1659
Q 578 1528 156 1391
L 81 1916
z
M 3944 716
Q 3963 434 3994 191
Q 3194 -303 2869 -528
Q 2688 -659 2563 -791
L 2231 -384
Q 2431 -203 2431 147
L 2431 5247
L 2919 5247
L 2919 3334
L 3950 3334
L 3950 2872
L 2919 2872
L 2919 78
Q 3338 322 3944 716
z
" transform="scale(0.015625)"/>
      <path id="MicrosoftYaHei-20" transform="scale(0.015625)"/>
      <path id="MicrosoftYaHei-32" d="M 2666 3572
Q 2666 3963 2419 4186
Q 2172 4409 1747 4409
Q 1447 4409 1140 4256
Q 834 4103 569 3819
L 569 4413
Q 806 4659 1107 4790
Q 1409 4922 1816 4922
Q 2472 4922 2872 4570
Q 3272 4219 3272 3619
Q 3272 3084 3026 2693
Q 2781 2303 2188 1894
Q 1581 1475 1376 1294
Q 1172 1113 1090 947
Q 1009 781 1009 544
L 3416 544
L 3416 0
L 372 0
L 372 241
Q 372 659 486 951
Q 600 1244 862 1520
Q 1125 1797 1681 2184
Q 2250 2584 2458 2886
Q 2666 3188 2666 3572
z
" transform="scale(0.015625)"/>
      <path id="MicrosoftYaHei-30" d="M 284 2325
Q 284 3606 709 4264
Q 1134 4922 1941 4922
Q 3478 4922 3478 2441
Q 3478 1216 3045 567
Q 2613 -81 1831 -81
Q 1094 -81 689 534
Q 284 1150 284 2325
z
M 909 2353
Q 909 425 1888 425
Q 2850 425 2850 2384
Q 2850 4413 1906 4413
Q 909 4413 909 2353
z
" transform="scale(0.015625)"/>
      <path id="MicrosoftYaHei-6d" d="M 5522 0
L 4909 0
L 4909 1984
Q 4909 2547 4734 2789
Q 4559 3031 4159 3031
Q 3822 3031 3581 2715
Q 3341 2400 3341 1969
L 3341 0
L 2728 0
L 2728 2047
Q 2728 3031 1969 3031
Q 1619 3031 1389 2731
Q 1159 2431 1159 1966
L 1159 0
L 547 0
L 547 3456
L 1159 3456
L 1159 2909
L 1172 2909
Q 1541 3538 2250 3538
Q 2597 3538 2862 3347
Q 3128 3156 3231 2831
Q 3616 3538 4381 3538
Q 5522 3538 5522 2131
L 5522 0
z
" transform="scale(0.015625)"/>
      <path id="MicrosoftYaHei-73" d="M 353 747
Q 816 413 1350 413
Q 2066 413 2066 881
Q 2066 1081 1909 1211
Q 1753 1341 1275 1519
Q 700 1750 528 1976
Q 356 2203 356 2525
Q 356 2984 745 3261
Q 1134 3538 1703 3538
Q 2144 3538 2522 3384
L 2522 2794
Q 2134 3044 1644 3044
Q 1350 3044 1165 2916
Q 981 2788 981 2578
Q 981 2372 1114 2256
Q 1247 2141 1703 1959
Q 2281 1744 2484 1512
Q 2688 1281 2688 941
Q 2688 466 2298 192
Q 1909 -81 1291 -81
Q 753 -81 353 122
L 353 747
z
" transform="scale(0.015625)"/>
      <path id="MicrosoftYaHei-3001" d="M 1931 -413
L 1556 -791
Q 1028 -216 397 306
L 728 650
Q 1506 22 1931 -413
z
" transform="scale(0.015625)"/>
      <path id="MicrosoftYaHei-8ba1" d="M 2100 3153
L 3919 3153
L 3919 5303
L 4456 5303
L 4456 3153
L 6288 3153
L 6288 2703
L 4456 2703
L 4456 -822
L 3919 -822
L 3919 2703
L 2100 2703
L 2100 3153
z
M 2675 903
Q 2694 578 2719 359
Q 1719 -266 1069 -728
L 769 -303
Q 988 -116 988 266
L 988 2741
L 100 2741
L 100 3191
L 1488 3191
L 1488 153
Q 2031 484 2675 903
z
M 738 5222
Q 1419 4522 1725 4184
L 1288 3816
Q 894 4334 356 4891
L 738 5222
z
" transform="scale(0.015625)"/>
      <path id="MicrosoftYaHei-7b97" d="M 969 3728
L 2006 3728
Q 1775 4016 1544 4266
L 1769 4428
L 1244 4428
Q 875 3963 400 3566
Q 263 3722 88 3884
Q 856 4484 1300 5347
L 1831 5347
Q 1684 5059 1506 4791
L 3325 4791
L 3325 4428
L 1919 4428
Q 2144 4200 2369 3953
L 2072 3728
L 4953 3728
Q 4716 4003 4425 4266
L 4641 4428
L 4019 4428
Q 3772 4050 3506 3753
Q 3344 3897 3125 4047
Q 3656 4603 4000 5347
L 4538 5347
Q 4394 5053 4244 4791
L 6225 4791
L 6225 4428
L 4800 4428
Q 5069 4206 5294 3972
L 4991 3728
L 5475 3728
L 5475 916
L 5038 916
L 5038 1122
L 1406 1122
L 1406 916
L 969 916
L 969 3728
z
M 150 609
L 1850 609
Q 1875 788 1875 1003
L 2331 1003
Q 2331 794 2309 609
L 4356 609
L 4356 997
L 4819 997
L 4819 609
L 6300 609
L 6300 222
L 4819 222
L 4819 -828
L 4356 -828
L 4356 222
L 2244 222
Q 2019 -619 763 -884
Q 644 -691 488 -472
Q 1525 -297 1756 222
L 150 222
L 150 609
z
M 5038 3378
L 1406 3378
L 1406 2959
L 5038 2959
L 5038 3378
z
M 1406 1472
L 5038 1472
L 5038 1891
L 1406 1891
L 1406 1472
z
M 1406 2216
L 5038 2216
L 5038 2634
L 1406 2634
L 1406 2216
z
" transform="scale(0.015625)"/>
      <path id="MicrosoftYaHei-31" d="M 1781 0
L 1781 4141
Q 1638 3997 1295 3819
Q 953 3641 663 3569
L 663 4169
Q 1047 4275 1484 4508
Q 1922 4741 2156 4947
L 2388 4947
L 2388 0
L 1781 0
z
" transform="scale(0.015625)"/>
      <path id="MicrosoftYaHei-ff1b" d="M 1606 3531
Q 1772 3531 1890 3415
Q 2009 3300 2009 3138
Q 2009 2975 1893 2858
Q 1778 2741 1606 2741
Q 1434 2741 1318 2858
Q 1203 2975 1203 3138
Q 1203 3300 1322 3415
Q 1441 3531 1606 3531
z
M 1931 775
L 1403 -891
L 966 -891
L 1350 775
L 1931 775
z
" transform="scale(0.015625)"/>
      <path id="MicrosoftYaHei-5ffd" d="M 400 3541
Q 1294 4278 1719 5303
L 2275 5303
Q 2134 4988 1972 4703
L 5819 4703
Q 5756 3522 5675 2672
Q 5575 1666 4625 1666
Q 4263 1666 3813 1684
Q 3781 1909 3719 2222
Q 4313 2172 4569 2172
Q 5144 2172 5200 2909
Q 5256 3584 5294 4253
L 4416 4253
Q 4128 2634 2419 1566
Q 2263 1753 2050 1959
Q 3653 2856 3925 4253
L 3078 4253
Q 2672 2872 969 1966
Q 819 2147 625 2359
Q 2188 3119 2581 4253
L 1694 4253
Q 1266 3616 719 3153
Q 594 3334 400 3541
z
M 1625 1316
L 2113 1316
L 2113 178
Q 2113 -234 2494 -234
L 3888 -234
Q 4319 -234 4406 128
Q 4481 459 4556 891
Q 4781 791 5056 697
Q 4969 241 4881 -66
Q 4725 -691 4019 -691
L 2394 -691
Q 1625 -691 1625 103
L 1625 1316
z
M 5000 1191
L 5400 1459
Q 5944 734 6375 53
L 5931 -247
Q 5475 522 5000 1191
z
M 713 1441
L 1188 1316
Q 963 409 638 -391
Q 463 -316 163 -203
Q 506 534 713 1441
z
M 2706 1434
L 3063 1709
Q 3519 1216 3913 716
L 3506 397
Q 3156 903 2706 1434
z
" transform="scale(0.015625)"/>
      <path id="MicrosoftYaHei-7565" d="M 413 4716
L 2600 4716
L 2600 -222
L 2188 -222
L 2188 97
L 825 97
L 825 -347
L 413 -347
L 413 4716
z
M 2638 3378
Q 3269 4222 3719 5341
L 4169 5197
Q 4044 4913 3919 4653
L 5888 4653
L 5888 4234
Q 5453 3375 4819 2756
Q 5434 2328 6331 2109
Q 6194 1853 6094 1591
Q 5122 1919 4466 2450
Q 3797 1925 2906 1516
Q 2756 1772 2619 1947
Q 3463 2269 4125 2763
Q 3747 3159 3428 3734
Q 3200 3353 2969 3047
Q 2781 3266 2638 3378
z
M 3200 1584
L 5756 1584
L 5756 -847
L 5294 -847
L 5294 -547
L 3663 -547
L 3663 -847
L 3200 -847
L 3200 1584
z
M 5294 1147
L 3663 1147
L 3663 -109
L 5294 -109
L 5294 1147
z
M 5363 4228
L 3703 4228
L 3666 4159
Q 4013 3475 4466 3041
Q 4963 3500 5363 4228
z
M 825 516
L 1300 516
L 1300 2209
L 825 2209
L 825 516
z
M 1713 516
L 2188 516
L 2188 2209
L 1713 2209
L 1713 516
z
M 2188 4297
L 1713 4297
L 1713 2628
L 2188 2628
L 2188 4297
z
M 825 2628
L 1300 2628
L 1300 4297
L 825 4297
L 825 2628
z
" transform="scale(0.015625)"/>
      <path id="MicrosoftYaHei-4f20" d="M 2413 684
L 2681 1053
Q 3397 666 4056 278
L 5269 1472
L 2606 1472
L 2606 1916
Q 2731 2306 2847 2691
L 1869 2691
L 1869 3128
L 2975 3128
Q 3097 3550 3203 3959
L 2175 3959
L 2175 4397
L 3316 4397
Q 3425 4831 3519 5253
L 4056 5253
Q 3959 4838 3847 4397
L 6050 4397
L 6050 3959
L 3734 3959
Q 3625 3553 3503 3128
L 6300 3128
L 6300 2691
L 3378 2691
Q 3266 2306 3144 1909
L 5906 1909
L 5906 1453
L 4481 22
Q 4869 -209 5238 -447
L 4913 -872
Q 3594 34 2413 684
z
M 88 2241
Q 963 3528 1469 5297
L 1975 5147
Q 1741 4422 1475 3791
L 1475 -803
L 981 -803
L 981 2763
Q 663 2175 306 1691
Q 213 1959 88 2241
z
" transform="scale(0.015625)"/>
      <path id="MicrosoftYaHei-8f93" d="M 625 2216
L 1188 2216
L 1188 3353
L 1600 3353
L 1600 2216
L 2200 2216
L 2200 1803
L 1600 1803
L 1600 947
Q 1931 991 2275 1047
Q 2244 809 2231 616
Q 1913 572 1600 528
L 1600 -866
L 1188 -866
L 1188 466
Q 681 391 169 309
L 100 766
Q 638 822 1188 891
L 1188 1803
L 188 1803
L 188 2234
Q 425 2903 681 3934
L 131 3934
L 131 4334
L 781 4334
Q 888 4784 1000 5297
L 1450 5197
Q 1331 4741 1225 4334
L 2356 4334
L 2356 3934
L 1119 3934
Q 844 2922 625 2216
z
M 2813 -853
L 2413 -853
L 2413 2828
L 4075 2828
L 4075 -247
Q 4075 -797 3569 -797
Q 3375 -797 3081 -791
Q 3050 -653 2994 -403
Q 3244 -422 3450 -422
Q 3675 -422 3675 -172
L 3675 553
L 2813 553
L 2813 -853
z
M 4619 5253
L 4513 5116
Q 5244 4016 6344 3541
Q 6131 3291 6019 3109
Q 5594 3347 5231 3647
L 5231 3334
L 3063 3334
L 3063 3609
Q 2694 3303 2294 3047
Q 2106 3291 1963 3428
Q 3206 4153 3969 5253
L 4619 5253
z
M 5550 2941
L 5975 2941
L 5975 -103
Q 5975 -797 5388 -803
Q 5069 -809 4656 -791
Q 4625 -559 4569 -322
Q 4963 -372 5244 -372
Q 5550 -372 5550 -47
L 5550 2941
z
M 4206 4791
Q 3738 4203 3194 3728
L 5131 3728
Q 4600 4191 4206 4791
z
M 4594 2641
L 4994 2641
L 4994 366
L 4594 366
L 4594 2641
z
M 2813 903
L 3675 903
L 3675 1503
L 2813 1503
L 2813 903
z
M 3675 2447
L 2813 2447
L 2813 1853
L 3675 1853
L 3675 2447
z
" transform="scale(0.015625)"/>
      <path id="MicrosoftYaHei-ff0c" d="M 1931 775
L 1403 -891
L 966 -891
L 1350 775
L 1931 775
z
" transform="scale(0.015625)"/>
      <path id="MicrosoftYaHei-6f14" d="M 2125 2816
L 3688 2816
L 3688 3309
L 2400 3309
L 2400 3716
L 5450 3716
L 5450 3309
L 4125 3309
L 4125 2816
L 5688 2816
L 5688 366
L 5250 366
L 5250 584
L 2563 584
L 2563 366
L 2125 366
L 2125 2816
z
M 1794 4634
L 3722 4634
Q 3575 4875 3406 5122
L 3850 5341
Q 4116 4931 4278 4634
L 6063 4634
L 6063 3628
L 5606 3628
L 5606 4228
L 2250 4228
L 2250 3622
L 1794 3622
L 1794 4634
z
M 1019 1772
Q 1200 1659 1494 1566
Q 1100 303 788 -747
L 275 -534
Q 713 603 1019 1772
z
M 3263 409
L 3569 47
Q 2756 -466 1994 -847
Q 1863 -628 1700 -447
Q 2588 -53 3263 409
z
M 4238 9
L 4500 366
Q 5356 -22 6088 -397
L 5800 -816
Q 5000 -353 4238 9
z
M 406 3591
Q 1044 3128 1488 2747
L 1125 2334
Q 600 2816 94 3228
L 406 3591
z
M 700 5209
Q 1344 4709 1713 4378
L 1356 3991
Q 869 4472 375 4878
L 700 5209
z
M 2563 1884
L 3688 1884
L 3688 2428
L 2563 2428
L 2563 1884
z
M 2563 972
L 3688 972
L 3688 1516
L 2563 1516
L 2563 972
z
M 4125 972
L 5250 972
L 5250 1516
L 4125 1516
L 4125 972
z
M 5250 2428
L 4125 2428
L 4125 1884
L 5250 1884
L 5250 2428
z
" transform="scale(0.015625)"/>
      <path id="MicrosoftYaHei-793a" d="M 100 3072
L 6300 3072
L 6300 2603
L 3619 2603
L 3619 78
Q 3619 -703 2800 -709
Q 2366 -709 1825 -703
Q 1788 -447 1731 -128
Q 2225 -178 2663 -178
Q 3088 -178 3088 241
L 3088 2603
L 100 2603
L 100 3072
z
M 675 4916
L 5744 4916
L 5744 4447
L 675 4447
L 675 4916
z
M 4413 1847
L 4831 2128
Q 5600 1184 6319 159
L 5863 -141
Q 5088 991 4413 1847
z
M 1481 2141
L 1938 1884
Q 1281 747 538 -278
Q 344 -134 125 16
Q 825 922 1481 2141
z
" transform="scale(0.015625)"/>
      <path id="MicrosoftYaHei-7a33" d="M 2444 1778
L 5450 1778
L 5450 2316
L 2563 2316
L 2563 2728
L 5450 2728
L 5450 3259
L 2575 3259
L 2575 3653
L 2488 3566
Q 2331 3716 2119 3878
Q 2831 4522 3275 5366
L 3763 5272
Q 3616 5009 3456 4766
L 5313 4766
L 5313 4359
Q 5063 4022 4800 3684
L 5925 3684
L 5925 1128
L 5450 1128
L 5450 1353
L 2444 1353
L 2444 1778
z
M 31 991
Q 619 1803 988 3034
L 144 3034
L 144 3472
L 1025 3472
L 1025 4466
Q 653 4431 269 4403
Q 238 4603 181 4853
Q 1200 4916 2231 5059
L 2331 4597
Q 1916 4550 1488 4506
L 1488 3472
L 2269 3472
L 2269 3034
L 1488 3034
L 1488 2288
L 1744 2491
Q 2100 2128 2413 1741
L 2044 1434
Q 1772 1822 1488 2144
L 1488 -834
L 1025 -834
L 1025 1938
Q 703 1072 244 466
Q 150 728 31 991
z
M 2950 991
L 3425 991
L 3425 97
Q 3425 -259 3825 -259
L 4425 -259
Q 4819 -259 4888 53
Q 4944 297 4981 634
Q 5188 541 5456 447
Q 5394 128 5319 -147
Q 5181 -691 4563 -691
L 3731 -691
Q 2950 -691 2950 72
L 2950 991
z
M 4744 4353
L 3172 4353
Q 2903 3991 2603 3684
L 4259 3684
Q 4525 4038 4744 4353
z
M 2275 991
L 2694 841
Q 2481 178 2200 -409
Q 2000 -303 1769 -216
Q 2069 322 2275 991
z
M 5419 797
L 5825 978
Q 6175 309 6388 -147
L 5956 -353
Q 5750 153 5419 797
z
M 3663 1097
L 4000 1334
Q 4369 909 4650 522
L 4269 253
Q 3994 691 3663 1097
z
" transform="scale(0.015625)"/>
      <path id="MicrosoftYaHei-6001" d="M 325 4434
L 2888 4434
Q 2972 4822 2969 5328
L 3438 5328
Q 3444 4841 3372 4434
L 6075 4434
L 6075 3991
L 3528 3991
Q 4419 2706 6231 2241
Q 6050 2034 5881 1759
Q 4041 2394 3172 3772
Q 2975 3331 2588 2953
Q 3078 2616 3538 2259
L 3225 1891
Q 2828 2244 2259 2675
Q 1556 2138 388 1703
Q 294 1922 113 2178
Q 2250 2866 2750 3991
L 325 3991
L 325 4434
z
M 1713 1547
L 2200 1547
L 2200 203
Q 2200 -172 2575 -172
L 3763 -172
Q 4175 -172 4256 134
Q 4331 428 4381 1028
Q 4556 953 4863 847
Q 4763 128 4706 -47
Q 4563 -616 3869 -616
L 2488 -616
Q 1713 -616 1713 172
L 1713 1547
z
M 813 1447
L 1281 1297
Q 1038 522 663 -297
Q 463 -203 194 -116
Q 569 591 813 1447
z
M 4894 1272
L 5263 1553
Q 5781 972 6306 309
L 5888 -9
Q 5425 641 4894 1272
z
M 2594 1503
L 2913 1809
Q 3419 1403 3850 991
L 3488 641
Q 3094 1059 2594 1503
z
" transform="scale(0.015625)"/>
      <path id="MicrosoftYaHei-7b49" d="M 125 2303
L 2913 2303
L 2913 2922
L 563 2922
L 563 3328
L 2913 3328
L 2913 3822
L 3400 3822
L 3400 3328
L 5850 3328
L 5850 2922
L 3400 2922
L 3400 2303
L 6288 2303
L 6288 1884
L 125 1884
L 125 2303
z
M 338 1272
L 4250 1272
L 4250 1766
L 4738 1766
L 4738 1272
L 6075 1272
L 6075 853
L 4738 853
L 4738 22
Q 4738 -766 3925 -766
Q 3450 -766 2969 -759
Q 2938 -534 2875 -228
Q 3375 -278 3794 -278
Q 4250 -278 4250 91
L 4250 853
L 338 853
L 338 1272
z
M 1294 5347
L 1831 5347
Q 1688 5041 1513 4759
L 3325 4759
L 3325 4372
L 1244 4372
Q 875 3878 388 3459
Q 263 3609 75 3797
Q 856 4428 1294 5347
z
M 3969 5347
L 4506 5347
Q 4366 5038 4213 4759
L 6225 4759
L 6225 4372
L 3984 4372
Q 3772 4038 3538 3759
Q 3275 3947 3119 4009
Q 3663 4597 3969 5347
z
M 1500 491
L 1831 809
Q 2256 447 2700 28
L 2338 -316
Q 2000 41 1500 491
z
M 2019 3441
Q 1781 3753 1500 4078
L 1825 4309
Q 2125 4022 2388 3722
L 2019 3441
z
M 4744 3441
Q 4625 3628 4238 4078
L 4563 4309
Q 4900 3984 5113 3722
L 4744 3441
z
" transform="scale(0.015625)"/>
      <path id="MicrosoftYaHei-5f85" d="M 2013 3116
L 3881 3116
L 3881 4016
L 2288 4016
L 2288 4447
L 3881 4447
L 3881 5322
L 4381 5322
L 4381 4447
L 5988 4447
L 5988 4016
L 4381 4016
L 4381 3116
L 6238 3116
L 6238 2678
L 2013 2678
L 2013 3116
z
M 2025 1891
L 4813 1891
L 4813 2484
L 5313 2484
L 5313 1891
L 6288 1891
L 6288 1453
L 5313 1453
L 5313 -9
Q 5313 -747 4531 -747
Q 4169 -747 3550 -741
Q 3513 -516 3450 -216
Q 3994 -259 4425 -259
Q 4813 -259 4813 166
L 4813 1453
L 2025 1453
L 2025 1891
z
M 81 1622
Q 894 2391 1606 3672
L 2044 3447
Q 1756 2966 1469 2547
L 1469 -847
L 1000 -847
L 1000 1913
Q 653 1475 300 1122
Q 206 1366 81 1622
z
M 94 3578
Q 975 4272 1600 5341
L 2044 5084
Q 1250 3903 350 3134
Q 238 3353 94 3578
z
M 2475 972
L 2838 1253
Q 3288 766 3631 334
L 3231 28
Q 2881 509 2475 972
z
" transform="scale(0.015625)"/>
     </defs>
     <use xlink:href="#MicrosoftYaHei-5047"/>
     <use xlink:href="#MicrosoftYaHei-8bbe" transform="translate(100 0)"/>
     <use xlink:href="#MicrosoftYaHei-8bfb" transform="translate(200 0)"/>
     <use xlink:href="#MicrosoftYaHei-53d6" transform="translate(300 0)"/>
     <use xlink:href="#MicrosoftYaHei-4e00" transform="translate(400 0)"/>
     <use xlink:href="#MicrosoftYaHei-6279" transform="translate(500 0)"/>
     <use xlink:href="#MicrosoftYaHei-20" transform="translate(600 0)"/>
     <use xlink:href="#MicrosoftYaHei-32" transform="translate(629.589844 0)"/>
     <use xlink:href="#MicrosoftYaHei-30" transform="translate(688.232422 0)"/>
     <use xlink:href="#MicrosoftYaHei-20" transform="translate(746.875 0)"/>
     <use xlink:href="#MicrosoftYaHei-6d" transform="translate(776.464844 0)"/>
     <use xlink:href="#MicrosoftYaHei-73" transform="translate(870.166016 0)"/>
     <use xlink:href="#MicrosoftYaHei-3001" transform="translate(916.455078 0)"/>
     <use xlink:href="#MicrosoftYaHei-8ba1" transform="translate(1016.455078 0)"/>
     <use xlink:href="#MicrosoftYaHei-7b97" transform="translate(1116.455078 0)"/>
     <use xlink:href="#MicrosoftYaHei-4e00" transform="translate(1216.455078 0)"/>
     <use xlink:href="#MicrosoftYaHei-6279" transform="translate(1316.455078 0)"/>
     <use xlink:href="#MicrosoftYaHei-20" transform="translate(1416.455078 0)"/>
     <use xlink:href="#MicrosoftYaHei-31" transform="translate(1446.044922 0)"/>
     <use xlink:href="#MicrosoftYaHei-30" transform="translate(1504.6875 0)"/>
     <use xlink:href="#MicrosoftYaHei-20" transform="translate(1563.330078 0)"/>
     <use xlink:href="#MicrosoftYaHei-6d" transform="translate(1592.919922 0)"/>
     <use xlink:href="#MicrosoftYaHei-73" transform="translate(1686.621094 0)"/>
     <use xlink:href="#MicrosoftYaHei-ff1b" transform="translate(1732.910156 0)"/>
     <use xlink:href="#MicrosoftYaHei-5ffd" transform="translate(1832.910156 0)"/>
     <use xlink:href="#MicrosoftYaHei-7565" transform="translate(1932.910156 0)"/>
     <use xlink:href="#MicrosoftYaHei-4f20" transform="translate(2032.910156 0)"/>
     <use xlink:href="#MicrosoftYaHei-8f93" transform="translate(2132.910156 0)"/>
     <use xlink:href="#MicrosoftYaHei-ff0c" transform="translate(2232.910156 0)"/>
     <use xlink:href="#MicrosoftYaHei-6f14" transform="translate(2332.910156 0)"/>
     <use xlink:href="#MicrosoftYaHei-793a" transform="translate(2432.910156 0)"/>
     <use xlink:href="#MicrosoftYaHei-7a33" transform="translate(2532.910156 0)"/>
     <use xlink:href="#MicrosoftYaHei-6001" transform="translate(2632.910156 0)"/>
     <use xlink:href="#MicrosoftYaHei-7b49" transform="translate(2732.910156 0)"/>
     <use xlink:href="#MicrosoftYaHei-5f85" transform="translate(2832.910156 0)"/>
    </g>
   </g>
   <g id="text_3">
    <!-- 文件 / 样本 -->
    <g style="fill: #203349" transform="translate(71.786563 154.623469) scale(0.14 -0.14)">
     <defs>
      <path id="MicrosoftYaHei-6587" d="M 194 4241
L 3194 4241
Q 2878 4841 2700 5116
L 3181 5341
Q 3356 5072 3706 4466
L 3256 4241
L 6194 4241
L 6194 3778
L 5041 3778
Q 4706 1994 3603 909
Q 4434 303 6244 -178
Q 5956 -503 5806 -722
Q 4044 -113 3203 553
Q 2359 -103 506 -772
Q 344 -553 131 -284
Q 1919 253 2822 913
Q 1681 2131 1372 3778
L 194 3778
L 194 4241
z
M 4506 3778
L 1872 3778
Q 2153 2241 3216 1238
Q 4231 2181 4506 3778
z
" transform="scale(0.015625)"/>
      <path id="MicrosoftYaHei-4ef6" d="M 1950 1816
L 4119 1816
L 4119 3397
L 2928 3397
Q 2675 2725 2375 2197
Q 2194 2372 1963 2528
Q 2556 3572 2838 4859
L 3344 4716
Q 3222 4250 3081 3834
L 4119 3834
L 4119 5284
L 4619 5284
L 4619 3834
L 6113 3834
L 6113 3397
L 4619 3397
L 4619 1816
L 6319 1816
L 6319 1378
L 4619 1378
L 4619 -809
L 4119 -809
L 4119 1378
L 1950 1378
L 1950 1816
z
M 69 2191
Q 931 3466 1456 5278
L 1969 5128
Q 1738 4400 1469 3763
L 1469 -816
L 975 -816
L 975 2731
Q 656 2141 294 1647
Q 200 1916 69 2191
z
" transform="scale(0.015625)"/>
      <path id="MicrosoftYaHei-2f" d="M 2791 4841
L 469 -803
L -103 -803
L 2219 4841
L 2791 4841
z
" transform="scale(0.015625)"/>
      <path id="MicrosoftYaHei-6837" d="M 2150 1197
L 3981 1197
L 3981 2222
L 2619 2222
L 2619 2659
L 3981 2659
L 3981 3641
L 2475 3641
L 2475 4078
L 4406 4078
Q 4925 4828 5188 5316
L 5650 5022
Q 5325 4578 4931 4078
L 6075 4078
L 6075 3641
L 4469 3641
L 4469 2659
L 5900 2659
L 5900 2222
L 4469 2222
L 4469 1197
L 6275 1197
L 6275 759
L 4469 759
L 4469 -872
L 3981 -872
L 3981 759
L 2150 759
L 2150 1197
z
M 94 1384
Q 700 2316 1038 3603
L 163 3603
L 163 4022
L 1088 4022
L 1088 5259
L 1544 5259
L 1544 4022
L 2275 4022
L 2275 3603
L 1544 3603
L 1544 2622
L 1794 2847
Q 2200 2447 2594 2022
L 2238 1697
Q 1756 2247 1544 2472
L 1544 -872
L 1088 -872
L 1088 2559
Q 750 1547 319 841
Q 225 1109 94 1384
z
M 2831 5047
L 3200 5322
Q 3694 4766 3906 4466
L 3481 4172
Q 3113 4703 2831 5047
z
" transform="scale(0.015625)"/>
      <path id="MicrosoftYaHei-672c" d="M 6281 803
Q 6119 641 5856 366
Q 4344 1531 3444 3353
L 3444 878
L 4875 878
L 4875 441
L 3444 441
L 3444 -841
L 2956 -841
L 2956 441
L 1475 441
L 1475 878
L 2956 878
L 2956 3353
Q 2159 1766 513 291
Q 269 522 100 666
Q 1878 2125 2759 3753
L 238 3753
L 238 4216
L 2956 4216
L 2956 5341
L 3444 5341
L 3444 4216
L 6163 4216
L 6163 3753
L 3622 3753
Q 4616 1884 6281 803
z
" transform="scale(0.015625)"/>
     </defs>
     <use xlink:href="#MicrosoftYaHei-6587"/>
     <use xlink:href="#MicrosoftYaHei-4ef6" transform="translate(100 0)"/>
     <use xlink:href="#MicrosoftYaHei-20" transform="translate(200 0)"/>
     <use xlink:href="#MicrosoftYaHei-2f" transform="translate(229.589844 0)"/>
     <use xlink:href="#MicrosoftYaHei-20" transform="translate(272.314453 0)"/>
     <use xlink:href="#MicrosoftYaHei-6837" transform="translate(301.904297 0)"/>
     <use xlink:href="#MicrosoftYaHei-672c" transform="translate(401.904297 0)"/>
    </g>
   </g>
   <g id="text_4">
    <!-- Dataset -->
    <g style="fill: #203349" transform="translate(252.421406 143.930312) scale(0.14 -0.14)">
     <defs>
      <path id="MicrosoftYaHei-44" d="M 625 0
L 625 4841
L 2006 4841
Q 3106 4841 3836 4200
Q 4566 3559 4566 2481
Q 4566 1356 3836 678
Q 3106 0 1956 0
L 625 0
z
M 1250 4284
L 1250 553
L 1953 553
Q 2875 553 3392 1056
Q 3909 1559 3909 2466
Q 3909 3372 3378 3828
Q 2847 4284 1981 4284
L 1250 4284
z
" transform="scale(0.015625)"/>
      <path id="MicrosoftYaHei-61" d="M 628 3216
Q 1144 3538 1819 3538
Q 3069 3538 3069 2225
L 3069 0
L 2463 0
L 2463 534
L 2447 534
Q 2088 -81 1388 -81
Q 884 -81 587 191
Q 291 463 291 925
Q 291 1894 1438 2053
L 2463 2197
Q 2463 3044 1763 3044
Q 1141 3044 628 2625
L 628 3216
z
M 1653 1625
Q 1228 1569 1067 1412
Q 906 1256 906 975
Q 906 728 1081 572
Q 1256 416 1544 416
Q 1944 416 2203 697
Q 2463 978 2463 1403
L 2463 1734
L 1653 1625
z
" transform="scale(0.015625)"/>
      <path id="MicrosoftYaHei-74" d="M 2206 34
Q 2006 -75 1666 -75
Q 738 -75 738 953
L 738 2950
L 144 2950
L 144 3456
L 738 3456
L 738 4288
L 1347 4481
L 1347 3456
L 2206 3456
L 2206 2950
L 1347 2950
L 1347 1063
Q 1347 722 1462 575
Q 1578 428 1847 428
Q 2053 428 2206 544
L 2206 34
z
" transform="scale(0.015625)"/>
      <path id="MicrosoftYaHei-65" d="M 3363 1572
L 944 1572
Q 959 1019 1246 717
Q 1534 416 2050 416
Q 2631 416 3116 788
L 3116 241
Q 2659 -81 1906 -81
Q 1156 -81 736 394
Q 316 869 316 1713
Q 316 2506 777 3022
Q 1238 3538 1922 3538
Q 2600 3538 2981 3102
Q 3363 2666 3363 1881
L 3363 1572
z
M 2750 2063
Q 2747 2531 2528 2787
Q 2309 3044 1913 3044
Q 1547 3044 1280 2772
Q 1013 2500 944 2063
L 2750 2063
z
" transform="scale(0.015625)"/>
     </defs>
     <use xlink:href="#MicrosoftYaHei-44"/>
     <use xlink:href="#MicrosoftYaHei-61" transform="translate(76.171875 0)"/>
     <use xlink:href="#MicrosoftYaHei-74" transform="translate(131.445312 0)"/>
     <use xlink:href="#MicrosoftYaHei-61" transform="translate(168.701172 0)"/>
     <use xlink:href="#MicrosoftYaHei-73" transform="translate(223.974609 0)"/>
     <use xlink:href="#MicrosoftYaHei-65" transform="translate(270.263672 0)"/>
     <use xlink:href="#MicrosoftYaHei-74" transform="translate(327.001953 0)"/>
    </g>
    <!-- 读取与预处理 -->
    <g style="fill: #203349" transform="translate(235.92 165.316625) scale(0.14 -0.14)">
     <defs>
      <path id="MicrosoftYaHei-4e0e" d="M 1163 2384
L 1163 2859
L 1413 5328
L 1931 5328
L 1834 4334
L 6269 4334
L 6269 3859
L 1791 3859
L 1694 2859
L 5813 2859
Q 5738 1547 5644 416
Q 5556 -247 5263 -478
Q 4981 -703 4322 -703
Q 3706 -697 2900 -678
Q 2863 -466 2794 -134
Q 3744 -203 4213 -209
Q 5050 -266 5125 447
Q 5206 1278 5263 2384
L 1163 2384
z
M 106 1409
L 4738 1409
L 4738 934
L 106 934
L 106 1409
z
" transform="scale(0.015625)"/>
      <path id="MicrosoftYaHei-9884" d="M 531 3872
L 844 4147
Q 1069 3947 1275 3747
L 1938 4553
L 175 4553
L 175 4991
L 2513 4991
L 2513 4553
L 1588 3434
Q 1694 3322 1794 3216
L 1544 2997
L 2681 2997
L 2681 2578
Q 2581 2097 2369 1466
Q 2175 1534 1938 1609
Q 2094 2003 2213 2559
L 1588 2559
L 1588 -72
Q 1588 -784 888 -784
L 225 -784
Q 194 -559 138 -278
Q 450 -316 769 -316
Q 1119 -316 1119 84
L 1119 2559
L 113 2559
L 113 2997
L 1344 2997
Q 938 3484 531 3872
z
M 2969 3716
L 4025 3716
L 4181 4572
L 2744 4572
L 2744 5009
L 6294 5009
L 6294 4572
L 4688 4572
L 4506 3716
L 6006 3716
L 6006 641
L 5550 641
L 5550 3284
L 3425 3284
L 3425 641
L 2969 641
L 2969 3716
z
M 4244 3028
L 4706 3028
L 4706 2097
Q 4706 1366 4519 841
Q 5500 184 6306 -441
L 5963 -847
Q 5200 -197 4325 428
Q 4263 334 4200 247
Q 3694 -397 2613 -897
Q 2413 -641 2263 -484
Q 3381 -22 3831 572
Q 4244 1109 4244 2128
L 4244 3028
z
" transform="scale(0.015625)"/>
      <path id="MicrosoftYaHei-5904" d="M 1706 5197
Q 1575 4591 1413 4034
L 3081 4034
L 3081 3578
Q 2906 1966 2150 772
Q 2719 128 3531 -16
Q 4488 -184 6319 -103
Q 6213 -347 6138 -622
Q 4425 -684 3475 -497
Q 2519 -334 1869 359
Q 1325 -353 550 -903
Q 344 -709 138 -534
Q 981 34 1538 766
Q 1088 1434 825 2434
Q 631 2003 413 1609
Q 281 1784 50 2041
Q 819 3409 1188 5278
L 1706 5197
z
M 3850 5253
L 4369 5253
L 4369 3159
L 4644 3478
Q 5531 2878 6244 2297
L 5906 1866
Q 5244 2447 4369 3078
L 4369 147
L 3850 147
L 3850 5253
z
M 2575 3559
L 1263 3559
Q 1188 3334 1113 3122
Q 1369 1941 1831 1197
Q 2463 2234 2575 3559
z
" transform="scale(0.015625)"/>
      <path id="MicrosoftYaHei-7406" d="M 2031 -166
L 3988 -166
L 3988 734
L 2394 734
L 2394 1172
L 3988 1172
L 3988 1997
L 2988 1997
L 2988 1766
L 2525 1766
L 2525 4991
L 5913 4991
L 5913 1766
L 5450 1766
L 5450 1997
L 4450 1997
L 4450 1172
L 6044 1172
L 6044 734
L 4450 734
L 4450 -166
L 6319 -166
L 6319 -603
L 2031 -603
L 2031 -166
z
M 44 203
Q 525 319 975 434
L 975 2328
L 194 2328
L 194 2766
L 975 2766
L 975 4328
L 131 4328
L 131 4766
L 2281 4766
L 2281 4328
L 1438 4328
L 1438 2766
L 2231 2766
L 2231 2328
L 1438 2328
L 1438 559
Q 1850 675 2238 791
Q 2269 509 2306 303
Q 1238 16 213 -303
L 44 203
z
M 4450 2422
L 5450 2422
L 5450 3291
L 4450 3291
L 4450 2422
z
M 2988 2422
L 3988 2422
L 3988 3291
L 2988 3291
L 2988 2422
z
M 5450 4566
L 4450 4566
L 4450 3703
L 5450 3703
L 5450 4566
z
M 2988 3703
L 3988 3703
L 3988 4566
L 2988 4566
L 2988 3703
z
" transform="scale(0.015625)"/>
     </defs>
     <use xlink:href="#MicrosoftYaHei-8bfb"/>
     <use xlink:href="#MicrosoftYaHei-53d6" transform="translate(100 0)"/>
     <use xlink:href="#MicrosoftYaHei-4e0e" transform="translate(200 0)"/>
     <use xlink:href="#MicrosoftYaHei-9884" transform="translate(300 0)"/>
     <use xlink:href="#MicrosoftYaHei-5904" transform="translate(400 0)"/>
     <use xlink:href="#MicrosoftYaHei-7406" transform="translate(500 0)"/>
    </g>
   </g>
   <g id="text_5">
    <!-- DataLoader -->
    <g style="fill: #203349" transform="translate(410.302969 143.930312) scale(0.14 -0.14)">
     <defs>
      <path id="MicrosoftYaHei-4c" d="M 3178 0
L 625 0
L 625 4841
L 1250 4841
L 1250 553
L 3178 553
L 3178 0
z
" transform="scale(0.015625)"/>
      <path id="MicrosoftYaHei-6f" d="M 316 1691
Q 316 2547 794 3042
Q 1272 3538 2091 3538
Q 2869 3538 3311 3061
Q 3753 2584 3753 1744
Q 3753 925 3281 422
Q 2809 -81 2016 -81
Q 1241 -81 778 406
Q 316 894 316 1691
z
M 941 1709
Q 941 1113 1242 769
Q 1544 425 2053 425
Q 2578 425 2853 761
Q 3128 1097 3128 1725
Q 3128 2356 2853 2693
Q 2578 3031 2053 3031
Q 1538 3031 1239 2678
Q 941 2325 941 1709
z
" transform="scale(0.015625)"/>
      <path id="MicrosoftYaHei-64" d="M 3547 0
L 2934 0
L 2934 575
L 2922 575
Q 2544 -81 1747 -81
Q 1091 -81 703 386
Q 316 853 316 1647
Q 316 2503 753 3020
Q 1191 3538 1897 3538
Q 2603 3538 2922 2988
L 2934 2988
L 2934 5116
L 3547 5116
L 3547 0
z
M 2938 2056
Q 2938 2472 2664 2751
Q 2391 3031 1991 3031
Q 1503 3031 1222 2667
Q 941 2303 941 1675
Q 941 1097 1211 761
Q 1481 425 1931 425
Q 2375 425 2656 754
Q 2938 1084 2938 1575
L 2938 2056
z
" transform="scale(0.015625)"/>
      <path id="MicrosoftYaHei-72" d="M 2400 2850
Q 2247 2959 1978 2959
Q 1622 2959 1390 2626
Q 1159 2294 1159 1750
L 1159 0
L 547 0
L 547 3456
L 1159 3456
L 1159 2753
L 1172 2753
Q 1434 3516 2078 3516
Q 2288 3516 2400 3469
L 2400 2850
z
" transform="scale(0.015625)"/>
     </defs>
     <use xlink:href="#MicrosoftYaHei-44"/>
     <use xlink:href="#MicrosoftYaHei-61" transform="translate(76.171875 0)"/>
     <use xlink:href="#MicrosoftYaHei-74" transform="translate(131.445312 0)"/>
     <use xlink:href="#MicrosoftYaHei-61" transform="translate(168.701172 0)"/>
     <use xlink:href="#MicrosoftYaHei-4c" transform="translate(223.974609 0)"/>
     <use xlink:href="#MicrosoftYaHei-6f" transform="translate(275.292969 0)"/>
     <use xlink:href="#MicrosoftYaHei-61" transform="translate(337.492188 0)"/>
     <use xlink:href="#MicrosoftYaHei-64" transform="translate(392.765625 0)"/>
     <use xlink:href="#MicrosoftYaHei-65" transform="translate(456.730469 0)"/>
     <use xlink:href="#MicrosoftYaHei-72" transform="translate(513.46875 0)"/>
    </g>
    <!-- 组 batch -->
    <g style="fill: #203349" transform="translate(421.272188 165.316625) scale(0.14 -0.14)">
     <defs>
      <path id="MicrosoftYaHei-7ec4" d="M 1994 -516
L 1994 -66
L 2738 -66
L 2738 4941
L 5763 4941
L 5763 -66
L 6313 -66
L 6313 -516
L 1994 -516
z
M 969 1703
Q 1606 1784 2300 1872
Q 2275 1603 2256 1447
Q 1331 1328 400 1191
L 300 1647
Q 697 1956 1284 2941
Q 597 2897 256 2866
L 131 3278
Q 619 3866 1200 5291
L 1706 5116
Q 1163 4091 681 3316
Q 1197 3319 1506 3328
Q 1756 3775 2038 4334
L 2519 4122
Q 1806 2859 969 1703
z
M 5288 4491
L 3213 4491
L 3213 3259
L 5288 3259
L 5288 4491
z
M 3213 -66
L 5288 -66
L 5288 1166
L 3213 1166
L 3213 -66
z
M 3213 1597
L 5288 1597
L 5288 2828
L 3213 2828
L 3213 1597
z
M 181 291
Q 1088 459 2356 741
Q 2331 453 2331 266
Q 1031 -3 319 -184
L 181 291
z
" transform="scale(0.015625)"/>
      <path id="MicrosoftYaHei-62" d="M 1159 488
L 1159 0
L 547 0
L 547 5116
L 1159 5116
L 1159 2859
L 1172 2859
Q 1578 3538 2359 3538
Q 3009 3538 3392 3080
Q 3775 2622 3775 1828
Q 3775 953 3345 436
Q 2916 -81 2200 -81
Q 1525 -81 1172 488
L 1159 488
z
M 1156 1422
Q 1156 1003 1428 714
Q 1700 425 2109 425
Q 2597 425 2872 800
Q 3147 1175 3147 1838
Q 3147 2384 2890 2707
Q 2634 3031 2191 3031
Q 1741 3031 1448 2709
Q 1156 2388 1156 1891
L 1156 1422
z
" transform="scale(0.015625)"/>
      <path id="MicrosoftYaHei-63" d="M 2934 156
Q 2538 -81 1978 -81
Q 1228 -81 772 400
Q 316 881 316 1647
Q 316 2497 808 3017
Q 1300 3538 2125 3538
Q 2600 3538 2938 3369
L 2938 2763
Q 2572 3031 2125 3031
Q 1600 3031 1270 2667
Q 941 2303 941 1697
Q 941 1100 1252 762
Q 1563 425 2091 425
Q 2538 425 2934 719
L 2934 156
z
" transform="scale(0.015625)"/>
      <path id="MicrosoftYaHei-68" d="M 3466 0
L 2856 0
L 2856 1988
Q 2856 3031 2081 3031
Q 1684 3031 1421 2726
Q 1159 2422 1159 1959
L 1159 0
L 547 0
L 547 5116
L 1159 5116
L 1159 2888
L 1172 2888
Q 1569 3538 2300 3538
Q 3466 3538 3466 2128
L 3466 0
z
" transform="scale(0.015625)"/>
     </defs>
     <use xlink:href="#MicrosoftYaHei-7ec4"/>
     <use xlink:href="#MicrosoftYaHei-20" transform="translate(100 0)"/>
     <use xlink:href="#MicrosoftYaHei-62" transform="translate(129.589844 0)"/>
     <use xlink:href="#MicrosoftYaHei-61" transform="translate(192.082031 0)"/>
     <use xlink:href="#MicrosoftYaHei-74" transform="translate(247.355469 0)"/>
     <use xlink:href="#MicrosoftYaHei-63" transform="translate(283.236328 0)"/>
     <use xlink:href="#MicrosoftYaHei-68" transform="translate(333.382812 0)"/>
    </g>
   </g>
   <g id="text_6">
    <!-- 传输后 -->
    <g style="fill: #203349" transform="translate(598.92 143.930312) scale(0.14 -0.14)">
     <defs>
      <path id="MicrosoftYaHei-540e" d="M 1888 1984
L 5688 1984
L 5688 -828
L 5188 -828
L 5188 -403
L 2388 -403
L 2388 -828
L 1888 -828
L 1888 1984
z
M 1313 2991
Q 1313 1272 1138 672
Q 963 -16 394 -847
Q 250 -634 50 -409
Q 494 222 650 859
Q 806 1472 806 2659
L 806 4766
Q 3544 4853 5631 5141
L 5931 4622
Q 3344 4359 1313 4284
L 1313 3459
L 6263 3459
L 6263 2991
L 1313 2991
z
M 5188 1528
L 2388 1528
L 2388 41
L 5188 41
L 5188 1528
z
" transform="scale(0.015625)"/>
     </defs>
     <use xlink:href="#MicrosoftYaHei-4f20"/>
     <use xlink:href="#MicrosoftYaHei-8f93" transform="translate(100 0)"/>
     <use xlink:href="#MicrosoftYaHei-540e" transform="translate(200 0)"/>
    </g>
    <!-- GPU 计算 -->
    <g style="fill: #203349" transform="translate(589.134219 165.316625) scale(0.14 -0.14)">
     <defs>
      <path id="MicrosoftYaHei-47" d="M 4284 331
Q 3559 -81 2647 -81
Q 1597 -81 955 583
Q 313 1247 313 2356
Q 313 3478 1022 4200
Q 1731 4922 2841 4922
Q 3625 4922 4169 4672
L 4169 3997
Q 3588 4363 2784 4363
Q 1994 4363 1481 3822
Q 969 3281 969 2397
Q 969 1488 1441 981
Q 1913 475 2716 475
Q 3269 475 3656 688
L 3656 1997
L 2606 1997
L 2606 2550
L 4284 2550
L 4284 331
z
" transform="scale(0.015625)"/>
      <path id="MicrosoftYaHei-50" d="M 1250 1809
L 1250 0
L 625 0
L 625 4841
L 2000 4841
Q 2784 4841 3217 4462
Q 3650 4084 3650 3381
Q 3650 2669 3144 2226
Q 2638 1784 1878 1809
L 1250 1809
z
M 1250 4291
L 1250 2359
L 1828 2359
Q 2400 2359 2697 2617
Q 2994 2875 2994 3356
Q 2994 4291 1888 4291
L 1250 4291
z
" transform="scale(0.015625)"/>
      <path id="MicrosoftYaHei-55" d="M 4213 1972
Q 4213 -81 2350 -81
Q 566 -81 566 1900
L 566 4841
L 1191 4841
L 1191 1928
Q 1191 475 2409 475
Q 3588 475 3588 1881
L 3588 4841
L 4213 4841
L 4213 1972
z
" transform="scale(0.015625)"/>
     </defs>
     <use xlink:href="#MicrosoftYaHei-47"/>
     <use xlink:href="#MicrosoftYaHei-50" transform="translate(74.365234 0)"/>
     <use xlink:href="#MicrosoftYaHei-55" transform="translate(135.546875 0)"/>
     <use xlink:href="#MicrosoftYaHei-20" transform="translate(210.205078 0)"/>
     <use xlink:href="#MicrosoftYaHei-8ba1" transform="translate(239.794922 0)"/>
     <use xlink:href="#MicrosoftYaHei-7b97" transform="translate(339.794922 0)"/>
    </g>
   </g>
   <g id="text_7">
    <!-- 读数据 -->
    <g style="fill: #203349" transform="translate(38.52 284.498859) scale(0.15 -0.15)">
     <defs>
      <path id="MicrosoftYaHei-6570" d="M 4175 5303
L 4675 5228
Q 4544 4622 4369 4097
L 6281 4097
L 6281 3672
L 5888 3672
Q 5731 1834 5088 753
Q 5594 66 6375 -372
Q 6175 -647 6038 -866
Q 5275 -372 4769 309
Q 4194 -403 3400 -928
Q 3263 -747 3044 -534
Q 3919 41 4463 772
Q 3956 1647 3794 2791
Q 3663 2559 3519 2359
Q 3394 2541 3206 2759
Q 3931 3803 4175 5303
z
M 150 1697
L 1100 1697
Q 1238 1934 1369 2184
L 1819 2041
Q 1719 1866 1619 1697
L 3150 1697
L 3150 1291
Q 2913 678 2431 216
Q 2775 53 3131 -109
L 2856 -541
Q 2469 -322 2050 -103
Q 1344 -609 269 -903
Q 169 -703 56 -466
Q 969 -259 1600 128
Q 1063 403 475 691
Q 675 978 863 1284
L 150 1284
L 150 1697
z
M 219 3847
L 1656 3847
L 1656 5247
L 2119 5247
L 2119 3847
L 3319 3847
L 3319 3434
L 2119 3434
L 2119 3053
L 2306 3266
Q 2888 2841 3281 2516
L 2981 2166
Q 2638 2491 2119 2897
L 2119 2184
L 1656 2184
L 1656 3059
Q 1088 2466 331 2016
Q 213 2197 63 2397
Q 850 2822 1506 3434
L 219 3434
L 219 3847
z
M 5388 3672
L 4219 3672
Q 4188 3591 4150 3516
Q 4263 2191 4775 1247
Q 5275 2159 5388 3672
z
M 1088 834
Q 1531 634 2000 416
Q 2431 784 2675 1284
L 1375 1284
Q 1231 1053 1088 834
z
M 3038 5091
L 3425 4834
Q 3081 4384 2738 4003
Q 2594 4128 2400 4266
Q 2725 4647 3038 5091
z
M 381 4816
L 738 5059
Q 1019 4716 1319 4322
L 931 4047
Q 656 4453 381 4816
z
" transform="scale(0.015625)"/>
      <path id="MicrosoftYaHei-636e" d="M 2900 1334
L 4188 1334
L 4188 2128
L 2731 2128
Q 2663 206 1844 -841
Q 1694 -647 1506 -447
Q 2288 516 2288 2509
L 2288 4947
L 5975 4947
L 5975 3134
L 5525 3134
L 5525 3328
L 2738 3328
L 2738 2553
L 4188 2553
L 4188 3209
L 4638 3209
L 4638 2553
L 6288 2553
L 6288 2128
L 4638 2128
L 4638 1334
L 5938 1334
L 5938 -778
L 5488 -778
L 5488 -416
L 3350 -416
L 3350 -778
L 2900 -778
L 2900 1334
z
M 100 1966
Q 544 2088 963 2213
L 963 3641
L 175 3641
L 175 4091
L 963 4091
L 963 5284
L 1425 5284
L 1425 4091
L 2106 4091
L 2106 3641
L 1425 3641
L 1425 2356
Q 1722 2450 2006 2547
Q 2013 2266 2044 2059
Q 1722 1956 1425 1856
L 1425 -34
Q 1425 -741 806 -753
Q 613 -759 231 -747
Q 206 -497 156 -228
Q 500 -266 681 -266
Q 963 -266 963 53
L 963 1703
Q 534 1559 163 1428
L 100 1966
z
M 5525 4534
L 2738 4534
L 2738 3741
L 5525 3741
L 5525 4534
z
M 5488 922
L 3350 922
L 3350 -9
L 5488 -9
L 5488 922
z
" transform="scale(0.015625)"/>
     </defs>
     <use xlink:href="#MicrosoftYaHei-8bfb"/>
     <use xlink:href="#MicrosoftYaHei-6570" transform="translate(100 0)"/>
     <use xlink:href="#MicrosoftYaHei-636e" transform="translate(200 0)"/>
    </g>
   </g>
   <g id="text_8">
    <!-- GPU -->
    <g style="fill: #203349" transform="translate(38.52 388.178859) scale(0.15 -0.15)">
     <use xlink:href="#MicrosoftYaHei-47"/>
     <use xlink:href="#MicrosoftYaHei-50" transform="translate(74.365234 0)"/>
     <use xlink:href="#MicrosoftYaHei-55" transform="translate(135.546875 0)"/>
    </g>
   </g>
   <g id="text_9">
    <!-- 读 20 -->
    <g style="fill: #203349" transform="translate(226.43875 284.223469) scale(0.14 -0.14)">
     <use xlink:href="#MicrosoftYaHei-8bfb"/>
     <use xlink:href="#MicrosoftYaHei-20" transform="translate(100 0)"/>
     <use xlink:href="#MicrosoftYaHei-32" transform="translate(129.589844 0)"/>
     <use xlink:href="#MicrosoftYaHei-30" transform="translate(188.232422 0)"/>
    </g>
   </g>
   <g id="text_10">
    <!-- 读 20 -->
    <g style="fill: #203349" transform="translate(363.23875 284.223469) scale(0.14 -0.14)">
     <use xlink:href="#MicrosoftYaHei-8bfb"/>
     <use xlink:href="#MicrosoftYaHei-20" transform="translate(100 0)"/>
     <use xlink:href="#MicrosoftYaHei-32" transform="translate(129.589844 0)"/>
     <use xlink:href="#MicrosoftYaHei-30" transform="translate(188.232422 0)"/>
    </g>
   </g>
   <g id="text_11">
    <!-- 读 20 -->
    <g style="fill: #203349" transform="translate(500.03875 284.223469) scale(0.14 -0.14)">
     <use xlink:href="#MicrosoftYaHei-8bfb"/>
     <use xlink:href="#MicrosoftYaHei-20" transform="translate(100 0)"/>
     <use xlink:href="#MicrosoftYaHei-32" transform="translate(129.589844 0)"/>
     <use xlink:href="#MicrosoftYaHei-30" transform="translate(188.232422 0)"/>
    </g>
   </g>
   <g id="text_12">
    <!-- 算 10 -->
    <g style="fill: #203349" transform="translate(330.273125 387.628078) scale(0.13 -0.13)">
     <use xlink:href="#MicrosoftYaHei-7b97"/>
     <use xlink:href="#MicrosoftYaHei-20" transform="translate(100 0)"/>
     <use xlink:href="#MicrosoftYaHei-31" transform="translate(129.589844 0)"/>
     <use xlink:href="#MicrosoftYaHei-30" transform="translate(188.232422 0)"/>
    </g>
   </g>
   <g id="text_13">
    <!-- 算 10 -->
    <g style="fill: #203349" transform="translate(467.073125 387.628078) scale(0.13 -0.13)">
     <use xlink:href="#MicrosoftYaHei-7b97"/>
     <use xlink:href="#MicrosoftYaHei-20" transform="translate(100 0)"/>
     <use xlink:href="#MicrosoftYaHei-31" transform="translate(129.589844 0)"/>
     <use xlink:href="#MicrosoftYaHei-30" transform="translate(188.232422 0)"/>
    </g>
   </g>
   <g id="text_14">
    <!-- 算 10 -->
    <g style="fill: #203349" transform="translate(603.873125 387.628078) scale(0.13 -0.13)">
     <use xlink:href="#MicrosoftYaHei-7b97"/>
     <use xlink:href="#MicrosoftYaHei-20" transform="translate(100 0)"/>
     <use xlink:href="#MicrosoftYaHei-31" transform="translate(129.589844 0)"/>
     <use xlink:href="#MicrosoftYaHei-30" transform="translate(188.232422 0)"/>
    </g>
   </g>
   <g id="text_15">
    <!-- 0 -->
    <g style="fill: #203349" transform="translate(171.801562 459.928687) scale(0.12 -0.12)">
     <use xlink:href="#MicrosoftYaHei-30"/>
    </g>
   </g>
   <g id="text_16">
    <!-- 20 -->
    <g style="fill: #203349" transform="translate(305.083125 459.928687) scale(0.12 -0.12)">
     <use xlink:href="#MicrosoftYaHei-32"/>
     <use xlink:href="#MicrosoftYaHei-30" transform="translate(58.642578 0)"/>
    </g>
   </g>
   <g id="text_17">
    <!-- 40 -->
    <g style="fill: #203349" transform="translate(441.883125 459.928687) scale(0.12 -0.12)">
     <defs>
      <path id="MicrosoftYaHei-34" d="M 2906 4841
L 2906 1644
L 3631 1644
L 3631 1138
L 2906 1138
L 2906 0
L 2313 0
L 2313 1138
L 53 1138
L 53 1616
Q 656 2294 1265 3178
Q 1875 4063 2272 4841
L 2906 4841
z
M 741 1644
L 2313 1644
L 2313 3950
Q 1988 3366 1616 2817
Q 1244 2269 741 1644
z
" transform="scale(0.015625)"/>
     </defs>
     <use xlink:href="#MicrosoftYaHei-34"/>
     <use xlink:href="#MicrosoftYaHei-30" transform="translate(58.642578 0)"/>
    </g>
   </g>
   <g id="text_18">
    <!-- 60 -->
    <g style="fill: #203349" transform="translate(578.683125 459.928687) scale(0.12 -0.12)">
     <defs>
      <path id="MicrosoftYaHei-36" d="M 3181 4219
Q 2803 4413 2391 4413
Q 1763 4413 1381 3866
Q 1000 3319 994 2372
L 1009 2372
Q 1353 3038 2106 3038
Q 2734 3038 3109 2628
Q 3484 2219 3484 1541
Q 3484 831 3051 375
Q 2619 -81 1947 -81
Q 1209 -81 789 495
Q 369 1072 369 2131
Q 369 3413 920 4167
Q 1472 4922 2372 4922
Q 2888 4922 3181 4781
L 3181 4219
z
M 1031 1584
Q 1031 1106 1286 765
Q 1541 425 1963 425
Q 2363 425 2613 719
Q 2863 1013 2863 1475
Q 2863 1975 2627 2253
Q 2391 2531 1956 2531
Q 1544 2531 1287 2250
Q 1031 1969 1031 1584
z
" transform="scale(0.015625)"/>
     </defs>
     <use xlink:href="#MicrosoftYaHei-36"/>
     <use xlink:href="#MicrosoftYaHei-30" transform="translate(58.642578 0)"/>
    </g>
   </g>
   <g id="text_19">
    <!-- 70 -->
    <g style="fill: #203349" transform="translate(647.083125 459.928687) scale(0.12 -0.12)">
     <defs>
      <path id="MicrosoftYaHei-37" d="M 3422 4463
Q 2659 3131 2223 1998
Q 1788 866 1684 0
L 1047 0
Q 1163 853 1594 1947
Q 2025 3041 2747 4300
L 347 4300
L 347 4841
L 3422 4841
L 3422 4463
z
" transform="scale(0.015625)"/>
     </defs>
     <use xlink:href="#MicrosoftYaHei-37"/>
     <use xlink:href="#MicrosoftYaHei-30" transform="translate(58.642578 0)"/>
    </g>
   </g>
   <g id="text_20">
    <!-- 时间单位 ms；理想流水后每 20 ms 才有下一批，计算之间仍可能等 10 ms。 -->
    <g style="fill: #203349" transform="translate(31.68 507.135469) scale(0.14 -0.14)">
     <defs>
      <path id="MicrosoftYaHei-65f6" d="M 344 4728
L 2500 4728
L 2500 -366
L 2006 -366
L 2006 153
L 838 153
L 838 -441
L 344 -441
L 344 4728
z
M 2706 3941
L 4925 3941
L 4925 5322
L 5425 5322
L 5425 3941
L 6313 3941
L 6313 3478
L 5425 3478
L 5425 116
Q 5425 -722 4625 -722
Q 4263 -722 3563 -703
Q 3531 -478 3463 -178
Q 4119 -228 4488 -228
Q 4925 -228 4925 216
L 4925 3478
L 2706 3478
L 2706 3941
z
M 838 616
L 2006 616
L 2006 2234
L 838 2234
L 838 616
z
M 2006 4266
L 838 4266
L 838 2684
L 2006 2684
L 2006 4266
z
M 3406 2878
Q 3906 1966 4163 1422
Q 4000 1347 3663 1172
Q 3419 1766 2963 2653
L 3406 2878
z
" transform="scale(0.015625)"/>
      <path id="MicrosoftYaHei-95f4" d="M 1863 3647
L 4513 3647
L 4513 553
L 2313 553
L 2313 166
L 1863 166
L 1863 3647
z
M 2388 4453
L 2388 4922
L 6013 4922
L 6013 -28
Q 6013 -816 5119 -816
Q 4756 -816 4169 -803
Q 4144 -616 4069 -297
Q 4588 -334 5056 -334
Q 5525 -334 5525 122
L 5525 4453
L 2388 4453
z
M 419 4084
L 906 4084
L 906 -816
L 419 -816
L 419 4084
z
M 2313 997
L 4063 997
L 4063 1884
L 2313 1884
L 2313 997
z
M 4063 3203
L 2313 3203
L 2313 2328
L 4063 2328
L 4063 3203
z
M 744 5003
L 1100 5322
Q 1575 4872 1981 4447
L 1575 4091
Q 1194 4541 744 5003
z
" transform="scale(0.015625)"/>
      <path id="MicrosoftYaHei-5355" d="M 125 909
L 2956 909
L 2956 1616
L 1225 1616
L 1225 1322
L 750 1322
L 750 4353
L 2047 4353
Q 1747 4703 1400 5072
L 1756 5366
Q 2219 4922 2569 4547
L 2338 4353
L 3803 4353
Q 4147 4809 4500 5347
L 5000 5078
Q 4678 4688 4378 4353
L 5656 4353
L 5656 1322
L 5181 1322
L 5181 1616
L 3444 1616
L 3444 909
L 6275 909
L 6275 459
L 3444 459
L 3444 -859
L 2956 -859
L 2956 459
L 125 459
L 125 909
z
M 3444 2053
L 5181 2053
L 5181 2778
L 3444 2778
L 3444 2053
z
M 1225 2053
L 2956 2053
L 2956 2778
L 1225 2778
L 1225 2053
z
M 5181 3916
L 3444 3916
L 3444 3203
L 5181 3203
L 5181 3916
z
M 1225 3203
L 2956 3203
L 2956 3916
L 1225 3916
L 1225 3203
z
" transform="scale(0.015625)"/>
      <path id="MicrosoftYaHei-4f4d" d="M 1788 -59
L 4228 -59
Q 4678 1144 5269 3372
L 5831 3203
Q 5453 2044 4756 -59
L 6319 -59
L 6319 -522
L 1788 -522
L 1788 -59
z
M 81 2291
Q 975 3641 1431 5322
L 1963 5191
Q 1703 4397 1406 3709
L 1406 -853
L 938 -853
L 938 2731
Q 644 2181 319 1716
Q 231 1953 81 2291
z
M 1919 4191
L 4122 4191
Q 3844 4659 3506 5059
L 3931 5353
Q 4206 5034 4613 4497
L 4150 4191
L 6206 4191
L 6206 3728
L 1919 3728
L 1919 4191
z
M 2769 3309
Q 3181 2184 3669 584
L 3150 434
Q 2725 1966 2294 3147
L 2769 3309
z
" transform="scale(0.015625)"/>
      <path id="MicrosoftYaHei-60f3" d="M 2863 1441
L 2863 5009
L 5813 5009
L 5813 1397
L 5350 1397
L 5350 1591
L 3325 1591
L 3325 1441
L 2863 1441
z
M 106 2147
Q 794 2897 1194 3891
L 200 3891
L 200 4303
L 1250 4303
L 1250 5259
L 1700 5259
L 1700 4303
L 2581 4303
L 2581 3891
L 1700 3891
L 1700 3297
L 1900 3491
Q 2356 3141 2700 2803
L 2369 2472
Q 2063 2841 1700 3128
L 1700 1422
L 1250 1422
L 1250 3103
Q 844 2272 319 1653
Q 231 1922 106 2147
z
M 1719 1203
L 2194 1203
L 2194 109
Q 2194 -278 2600 -278
L 3831 -278
Q 4269 -278 4344 78
Q 4400 309 4463 753
Q 4675 666 4956 566
Q 4869 122 4788 -147
Q 4625 -716 3944 -716
L 2488 -716
Q 1719 -716 1719 66
L 1719 1203
z
M 3325 2016
L 5350 2016
L 5350 2609
L 3325 2609
L 3325 2016
z
M 3325 4584
L 3325 3997
L 5350 3997
L 5350 4584
L 3325 4584
z
M 3325 3009
L 5350 3009
L 5350 3597
L 3325 3597
L 3325 3009
z
M 719 1128
L 1188 966
Q 894 122 569 -453
Q 406 -366 119 -228
Q 481 347 719 1128
z
M 5094 897
L 5469 1159
Q 5763 803 6319 53
L 5881 -241
Q 5488 372 5094 897
z
M 2613 1072
L 2913 1384
Q 3344 1047 3788 647
L 3438 284
Q 3013 734 2613 1072
z
" transform="scale(0.015625)"/>
      <path id="MicrosoftYaHei-6d41" d="M 5013 3741
Q 5500 3178 6094 2372
Q 5863 2228 5644 2078
Q 5488 2306 5341 2516
Q 3806 2447 2519 2378
Q 2319 2372 2019 2303
L 1806 2772
Q 2038 2891 2244 3059
Q 2728 3472 3206 4078
L 1819 4078
L 1819 4522
L 3803 4522
Q 3566 4891 3350 5166
L 3763 5422
Q 3994 5128 4288 4734
L 3963 4522
L 6088 4522
L 6088 4078
L 3325 4078
L 3738 3903
Q 3156 3278 2650 2853
Q 3659 2884 5041 2934
Q 4822 3228 4625 3478
L 5013 3741
z
M 4681 2109
L 5150 2109
L 5150 16
Q 5150 -272 5375 -272
L 5594 -272
Q 5788 -272 5838 47
Q 5881 384 5894 834
Q 6113 734 6363 653
Q 6319 128 6269 -153
Q 6194 -709 5675 -709
L 5288 -709
Q 4681 -709 4681 22
L 4681 2109
z
M 2306 2084
L 2781 2084
Q 2781 716 2525 166
Q 2269 -441 1488 -866
Q 1344 -634 1169 -453
Q 1881 -78 2075 409
Q 2306 884 2306 2084
z
M 275 -616
Q 650 484 925 1809
Q 1200 1691 1431 1616
Q 1150 534 825 -784
L 275 -616
z
M 3538 2084
L 4006 2084
L 4006 -703
L 3538 -703
L 3538 2084
z
M 81 3247
L 394 3609
Q 900 3259 1456 2803
Q 1231 2541 1094 2397
Q 444 2978 81 3247
z
M 325 4878
L 644 5209
Q 1100 4847 1663 4347
L 1294 3978
Q 775 4503 325 4878
z
" transform="scale(0.015625)"/>
      <path id="MicrosoftYaHei-6c34" d="M 2925 5297
L 3431 5297
L 3431 4294
Q 3700 3563 4047 2934
Q 4738 3509 5425 4309
L 5844 3934
Q 5113 3169 4300 2506
Q 5125 1200 6319 384
Q 6056 122 5894 -84
Q 4250 1209 3431 3119
L 3431 197
Q 3431 -734 2538 -734
Q 2263 -734 1725 -728
Q 1694 -497 1625 -166
Q 2125 -216 2438 -216
Q 2925 -216 2925 253
L 2925 5297
z
M 256 3297
L 256 3772
L 2413 3772
L 2413 3316
Q 1881 1266 475 -197
Q 263 47 94 184
Q 1506 1672 1913 3297
L 256 3297
z
" transform="scale(0.015625)"/>
      <path id="MicrosoftYaHei-6bcf" d="M 125 2203
L 1044 2203
L 1325 3766
L 5456 3766
Q 5422 2928 5391 2203
L 6300 2203
L 6300 1753
L 5372 1753
Q 5344 1141 5319 616
L 6075 616
L 6075 178
L 5284 178
Q 5222 -278 5031 -484
Q 4788 -753 4181 -753
Q 3831 -753 3288 -728
Q 3256 -516 3194 -222
Q 3838 -278 4119 -278
Q 4513 -278 4638 -128
Q 4722 -41 4766 178
L 763 178
L 763 647
L 963 1753
L 125 1753
L 125 2203
z
M 4866 1753
L 1472 1753
L 1275 616
L 4813 616
Q 4844 1172 4866 1753
z
M 4925 3328
L 1750 3328
L 1553 2203
L 4888 2203
Q 4906 2753 4925 3328
z
M 100 3522
Q 1025 4309 1550 5359
L 2113 5359
Q 1966 5069 1803 4803
L 6156 4803
L 6156 4353
L 1509 4353
Q 1022 3659 413 3134
Q 281 3316 100 3522
z
M 2619 2978
L 2913 3303
Q 3388 2934 3750 2622
L 3413 2247
Q 3025 2628 2619 2978
z
M 2569 1391
L 2863 1716
Q 3338 1347 3700 1034
L 3369 666
Q 2888 1116 2569 1391
z
" transform="scale(0.015625)"/>
      <path id="MicrosoftYaHei-624d" d="M 113 284
Q 2638 1597 3722 3547
L 294 3547
L 294 4034
L 4088 4034
L 4088 5297
L 4613 5297
L 4613 4034
L 6231 4034
L 6231 3547
L 4613 3547
L 4613 209
Q 4613 -678 3775 -678
Q 3306 -678 2619 -666
Q 2581 -391 2519 -72
Q 3125 -134 3650 -134
Q 4088 -134 4088 347
L 4088 3253
Q 2941 1172 481 -172
Q 344 3 113 284
z
" transform="scale(0.015625)"/>
      <path id="MicrosoftYaHei-6709" d="M 1856 -816
L 1363 -816
L 1363 2419
Q 909 1891 363 1403
Q 231 1622 63 1859
Q 1269 2869 1947 4097
L 238 4097
L 238 4559
L 2181 4559
Q 2359 4950 2488 5359
L 3006 5241
Q 2881 4894 2731 4559
L 6263 4559
L 6263 4097
L 2506 4097
Q 2313 3728 2081 3378
L 5506 3378
L 5506 41
Q 5506 -734 4750 -734
Q 4419 -741 3744 -741
Q 3713 -528 3650 -228
Q 4225 -272 4575 -272
Q 5006 -272 5006 153
L 5006 597
L 1856 597
L 1856 -816
z
M 1856 1022
L 5006 1022
L 5006 1772
L 1856 1772
L 1856 1022
z
M 5006 2941
L 1856 2941
L 1856 2197
L 5006 2197
L 5006 2941
z
" transform="scale(0.015625)"/>
      <path id="MicrosoftYaHei-4e0b" d="M 163 4803
L 6238 4803
L 6238 4291
L 3200 4291
L 3200 2928
L 3488 3328
Q 4919 2484 5888 1809
L 5519 1303
Q 4550 2047 3200 2872
L 3200 -797
L 2631 -797
L 2631 4291
L 163 4291
L 163 4803
z
" transform="scale(0.015625)"/>
      <path id="MicrosoftYaHei-4e4b" d="M 538 4134
L 5663 4134
L 5663 3666
Q 3991 1913 1738 534
Q 2363 -72 3544 -122
Q 5031 -147 6313 -88
Q 6163 -450 6113 -622
Q 5469 -622 3338 -597
Q 2019 -547 1250 309
Q 1188 384 1113 316
Q 688 -78 325 -516
L 50 3
Q 531 472 844 703
Q 1056 853 1256 834
Q 3406 2147 4931 3672
L 538 3672
L 538 4134
z
M 2650 5109
L 3113 5341
Q 3369 4972 3688 4441
L 3200 4178
Q 2938 4653 2650 5109
z
" transform="scale(0.015625)"/>
      <path id="MicrosoftYaHei-4ecd" d="M 4294 2916
L 4963 4366
L 3406 4366
Q 3406 2003 3144 1059
Q 2906 34 2025 -803
Q 1850 -616 1644 -422
Q 2469 403 2675 1328
Q 2913 2166 2913 4366
L 2200 4366
L 2200 4828
L 5506 4828
L 5506 4366
L 4831 2909
L 6031 2909
Q 6000 1497 5950 616
Q 5900 -122 5675 -391
Q 5444 -672 4894 -672
Q 4556 -672 3956 -641
Q 3913 -372 3856 -91
Q 4344 -166 4844 -172
Q 5425 -178 5456 659
Q 5494 1222 5525 2447
L 4294 2447
L 4294 2916
z
M 88 2228
Q 931 3484 1438 5253
L 1938 5103
Q 1713 4391 1450 3763
L 1450 -791
L 963 -791
L 963 2741
Q 656 2169 306 1684
Q 213 1953 88 2228
z
" transform="scale(0.015625)"/>
      <path id="MicrosoftYaHei-53ef" d="M 813 3409
L 3569 3409
L 3569 941
L 1306 941
L 1306 497
L 813 497
L 813 3409
z
M 119 4809
L 6294 4809
L 6294 4334
L 5256 4334
L 5256 103
Q 5256 -741 4438 -747
Q 3850 -747 3294 -741
Q 3263 -453 3194 -172
Q 3900 -222 4269 -222
Q 4731 -222 4731 278
L 4731 4334
L 119 4334
L 119 4809
z
M 3075 2966
L 1306 2966
L 1306 1384
L 3075 1384
L 3075 2966
z
" transform="scale(0.015625)"/>
      <path id="MicrosoftYaHei-80fd" d="M 950 -759
L 463 -759
L 463 2928
L 3000 2928
L 3000 -28
Q 3000 -703 2375 -703
Q 2100 -709 1669 -709
Q 1638 -516 1575 -234
Q 1969 -266 2206 -266
Q 2513 -266 2513 53
L 2513 572
L 950 572
L 950 -759
z
M 3606 2253
L 4094 2253
L 4094 1222
Q 4981 1553 5950 2091
L 6231 1659
Q 5209 1122 4094 706
L 4094 166
Q 4094 -228 4400 -228
L 5319 -228
Q 5638 -228 5688 78
Q 5731 353 5763 897
Q 6000 803 6250 722
Q 6200 172 6144 -109
Q 6063 -659 5363 -659
L 4319 -659
Q 3606 -659 3606 72
L 3606 2253
z
M 3619 5303
L 4106 5303
L 4106 4231
Q 4966 4572 5813 5053
L 6094 4622
Q 5119 4128 4106 3719
L 4106 3359
Q 4106 2941 4438 2941
L 5231 2941
Q 5625 2941 5675 3266
Q 5719 3534 5750 4047
Q 5988 3953 6238 3866
Q 6188 3366 6131 3053
Q 6038 2509 5288 2509
L 4375 2509
Q 3619 2509 3619 3259
L 3619 5303
z
M 2463 4772
Q 3031 4034 3450 3353
Q 3213 3191 3019 3066
Q 2897 3281 2759 3506
Q 1231 3394 313 3303
L 113 3828
Q 388 3978 719 4391
Q 1063 4841 1394 5397
L 1888 5216
Q 1369 4466 794 3797
Q 1731 3856 2497 3919
Q 2300 4216 2075 4528
L 2463 4772
z
M 950 947
L 2513 947
L 2513 1553
L 950 1553
L 950 947
z
M 2513 2528
L 950 2528
L 950 1928
L 2513 1928
L 2513 2528
z
" transform="scale(0.015625)"/>
      <path id="MicrosoftYaHei-3002" d="M 1219 863
Q 1525 863 1750 625
Q 1975 388 1975 72
Q 1975 -284 1747 -507
Q 1519 -731 1197 -731
Q 875 -731 642 -503
Q 409 -275 409 66
Q 409 413 656 638
Q 903 863 1219 863
z
M 1209 -275
Q 1328 -275 1431 -184
Q 1534 -94 1534 50
Q 1534 209 1434 304
Q 1334 400 1191 400
Q 1056 400 959 304
Q 863 209 863 53
Q 863 -100 977 -187
Q 1091 -275 1209 -275
z
" transform="scale(0.015625)"/>
     </defs>
     <use xlink:href="#MicrosoftYaHei-65f6"/>
     <use xlink:href="#MicrosoftYaHei-95f4" transform="translate(100 0)"/>
     <use xlink:href="#MicrosoftYaHei-5355" transform="translate(200 0)"/>
     <use xlink:href="#MicrosoftYaHei-4f4d" transform="translate(300 0)"/>
     <use xlink:href="#MicrosoftYaHei-20" transform="translate(400 0)"/>
     <use xlink:href="#MicrosoftYaHei-6d" transform="translate(429.589844 0)"/>
     <use xlink:href="#MicrosoftYaHei-73" transform="translate(523.291016 0)"/>
     <use xlink:href="#MicrosoftYaHei-ff1b" transform="translate(569.580078 0)"/>
     <use xlink:href="#MicrosoftYaHei-7406" transform="translate(669.580078 0)"/>
     <use xlink:href="#MicrosoftYaHei-60f3" transform="translate(769.580078 0)"/>
     <use xlink:href="#MicrosoftYaHei-6d41" transform="translate(869.580078 0)"/>
     <use xlink:href="#MicrosoftYaHei-6c34" transform="translate(969.580078 0)"/>
     <use xlink:href="#MicrosoftYaHei-540e" transform="translate(1069.580078 0)"/>
     <use xlink:href="#MicrosoftYaHei-6bcf" transform="translate(1169.580078 0)"/>
     <use xlink:href="#MicrosoftYaHei-20" transform="translate(1269.580078 0)"/>
     <use xlink:href="#MicrosoftYaHei-32" transform="translate(1299.169922 0)"/>
     <use xlink:href="#MicrosoftYaHei-30" transform="translate(1357.8125 0)"/>
     <use xlink:href="#MicrosoftYaHei-20" transform="translate(1416.455078 0)"/>
     <use xlink:href="#MicrosoftYaHei-6d" transform="translate(1446.044922 0)"/>
     <use xlink:href="#MicrosoftYaHei-73" transform="translate(1539.746094 0)"/>
     <use xlink:href="#MicrosoftYaHei-20" transform="translate(1586.035156 0)"/>
     <use xlink:href="#MicrosoftYaHei-624d" transform="translate(1615.625 0)"/>
     <use xlink:href="#MicrosoftYaHei-6709" transform="translate(1715.625 0)"/>
     <use xlink:href="#MicrosoftYaHei-4e0b" transform="translate(1815.625 0)"/>
     <use xlink:href="#MicrosoftYaHei-4e00" transform="translate(1915.625 0)"/>
     <use xlink:href="#MicrosoftYaHei-6279" transform="translate(2015.625 0)"/>
     <use xlink:href="#MicrosoftYaHei-ff0c" transform="translate(2115.625 0)"/>
     <use xlink:href="#MicrosoftYaHei-8ba1" transform="translate(2215.625 0)"/>
     <use xlink:href="#MicrosoftYaHei-7b97" transform="translate(2315.625 0)"/>
     <use xlink:href="#MicrosoftYaHei-4e4b" transform="translate(2415.625 0)"/>
     <use xlink:href="#MicrosoftYaHei-95f4" transform="translate(2515.625 0)"/>
     <use xlink:href="#MicrosoftYaHei-4ecd" transform="translate(2615.625 0)"/>
     <use xlink:href="#MicrosoftYaHei-53ef" transform="translate(2715.625 0)"/>
     <use xlink:href="#MicrosoftYaHei-80fd" transform="translate(2815.625 0)"/>
     <use xlink:href="#MicrosoftYaHei-7b49" transform="translate(2915.625 0)"/>
     <use xlink:href="#MicrosoftYaHei-20" transform="translate(3015.625 0)"/>
     <use xlink:href="#MicrosoftYaHei-31" transform="translate(3045.214844 0)"/>
     <use xlink:href="#MicrosoftYaHei-30" transform="translate(3103.857422 0)"/>
     <use xlink:href="#MicrosoftYaHei-20" transform="translate(3162.5 0)"/>
     <use xlink:href="#MicrosoftYaHei-6d" transform="translate(3192.089844 0)"/>
     <use xlink:href="#MicrosoftYaHei-73" transform="translate(3285.791016 0)"/>
     <use xlink:href="#MicrosoftYaHei-3002" transform="translate(3332.080078 0)"/>
    </g>
   </g>
  </g>
 </g>
 <defs>
  <clipPath id="p67518428b1">
   <rect x="18" y="10.8" width="684" height="518.4"/>
  </clipPath>
 </defs>
</svg>
