<?xml version="1.0" encoding="utf-8" standalone="no"?>
<!DOCTYPE svg PUBLIC "-//W3C//DTD SVG 1.1//EN"
  "http://www.w3.org/Graphics/SVG/1.1/DTD/svg11.dtd">
<svg xmlns:xlink="http://www.w3.org/1999/xlink" width="720pt" height="576pt" viewBox="0 0 720 576" xmlns="http://www.w3.org/2000/svg" version="1.1">
 <metadata>
  <rdf:RDF xmlns:dc="http://purl.org/dc/elements/1.1/" xmlns:cc="http://creativecommons.org/ns#" xmlns:rdf="http://www.w3.org/1999/02/22-rdf-syntax-ns#">
   <cc:Work>
    <dc:type rdf:resource="http://purl.org/dc/dcmitype/StillImage"/>
    <dc:format>image/svg+xml</dc:format>
    <dc:creator>
     <cc:Agent>
      <dc:title>Matplotlib v3.10.0, https://matplotlib.org/</dc:title>
     </cc:Agent>
    </dc:creator>
   </cc:Work>
  </rdf:RDF>
 </metadata>
 <defs>
  <style type="text/css">*{stroke-linejoin: round; stroke-linecap: butt}</style>
 </defs>
 <g id="figure_1">
  <g id="patch_1">
   <path d="M 0 576
L 720 576
L 720 0
L 0 0
z
" style="fill: #ffffff"/>
  </g>
  <g id="axes_1">
   <g id="line2d_1">
    <path d="M 223.2 431.7696
L 223.2 166.3488
" clip-path="url(#p07380368be)" style="fill: none; stroke-dasharray: 3.7,1.6; stroke-dashoffset: 0; stroke: #bac4cf"/>
   </g>
   <g id="line2d_2">
    <path d="M 318.96 431.7696
L 318.96 166.3488
" clip-path="url(#p07380368be)" style="fill: none; stroke-dasharray: 3.7,1.6; stroke-dashoffset: 0; stroke: #bac4cf"/>
   </g>
   <g id="line2d_3">
    <path d="M 414.72 431.7696
L 414.72 166.3488
" clip-path="url(#p07380368be)" style="fill: none; stroke-dasharray: 3.7,1.6; stroke-dashoffset: 0; stroke: #bac4cf"/>
   </g>
   <g id="line2d_4">
    <path d="M 510.48 431.7696
L 510.48 166.3488
" clip-path="url(#p07380368be)" style="fill: none; stroke-dasharray: 3.7,1.6; stroke-dashoffset: 0; stroke: #bac4cf"/>
   </g>
   <g id="line2d_5">
    <path d="M 613.08 431.7696
L 613.08 166.3488
" clip-path="url(#p07380368be)" style="fill: none; stroke-dasharray: 3.7,1.6; stroke-dashoffset: 0; stroke: #bac4cf"/>
   </g>
   <g id="patch_2">
    <path d="M 203.022 217.4976
L 653.778 217.4976
Q 662.67 217.4976 662.67 210.30912
L 662.67 177.68448
Q 662.67 170.496 653.778 170.496
L 203.022 170.496
Q 194.13 170.496 194.13 177.68448
L 194.13 210.30912
Q 194.13 217.4976 203.022 217.4976
z
" clip-path="url(#p07380368be)" style="fill: #e9edf1; stroke: #203349; stroke-width: 1.3; stroke-linejoin: miter"/>
   </g>
   <g id="patch_3">
    <path d="M 305.622 283.8528
L 428.058 283.8528
Q 436.95 283.8528 436.95 276.66432
L 436.95 244.03968
Q 436.95 236.8512 428.058 236.8512
L 305.622 236.8512
Q 296.73 236.8512 296.73 244.03968
L 296.73 276.66432
Q 296.73 283.8528 305.622 283.8528
z
" clip-path="url(#p07380368be)" style="fill: #ede6f7; stroke: #203349; stroke-width: 1.3; stroke-linejoin: miter"/>
   </g>
   <g id="patch_4">
    <path d="M 401.382 350.208
L 564.858 350.208
Q 573.75 350.208 573.75 343.01952
L 573.75 310.39488
Q 573.75 303.2064 564.858 303.2064
L 401.382 303.2064
Q 392.49 303.2064 392.49 310.39488
L 392.49 343.01952
Q 392.49 350.208 401.382 350.208
z
" clip-path="url(#p07380368be)" style="fill: #e3f2e9; stroke: #203349; stroke-width: 1.3; stroke-linejoin: miter"/>
   </g>
   <g id="patch_5">
    <path d="M 497.142 416.5632
L 653.778 416.5632
Q 662.67 416.5632 662.67 409.37472
L 662.67 376.75008
Q 662.67 369.5616 653.778 369.5616
L 497.142 369.5616
Q 488.25 369.5616 488.25 376.75008
L 488.25 409.37472
Q 488.25 416.5632 497.142 416.5632
z
" clip-path="url(#p07380368be)" style="fill: #e9edf1; stroke: #203349; stroke-width: 1.3; stroke-linejoin: miter"/>
   </g>
   <g id="text_1">
    <!-- 同一步训练，不同对象在不同时刻保留 -->
    <g style="fill: #203349" transform="translate(31.68 45.501984) scale(0.23 -0.23)">
     <defs>
      <path id="MicrosoftYaHei-Bold-540c" d="M 381 5078
L 6019 5078
L 6019 291
Q 6019 -253 5776 -523
Q 5534 -794 5107 -801
Q 4681 -809 4075 -809
Q 3981 -309 3881 59
Q 4272 19 4597 19
Q 4847 19 4950 45
Q 5053 72 5117 165
Q 5181 259 5181 416
L 5181 4297
L 1219 4297
L 1219 -797
L 381 -797
L 381 5078
z
M 4875 3078
L 1525 3078
L 1525 3791
L 4875 3791
L 4875 3078
z
M 1738 2591
L 4638 2591
L 4638 403
L 2550 403
L 2550 3
L 1738 3
L 1738 2591
z
M 3825 1103
L 3825 1891
L 2550 1891
L 2550 1103
L 3825 1103
z
" transform="scale(0.015625)"/>
      <path id="MicrosoftYaHei-Bold-4e00" d="M 188 2716
L 6225 2716
L 6225 1791
L 188 1791
L 188 2716
z
" transform="scale(0.015625)"/>
      <path id="MicrosoftYaHei-Bold-6b65" d="M 156 3266
L 1050 3266
L 1050 4866
L 1925 4866
L 1925 3266
L 2956 3266
L 2956 5328
L 3844 5328
L 3844 4678
L 5763 4678
L 5763 3922
L 3844 3922
L 3844 3266
L 6269 3266
L 6269 2497
L 156 2497
L 156 3266
z
M 5300 1966
L 5938 1341
Q 4031 -441 575 -859
Q 363 -397 131 16
Q 1700 141 2906 550
L 2906 2353
L 3781 2353
L 3781 906
Q 4666 1338 5300 1966
z
M 1725 2266
L 2338 1728
Q 1575 1003 719 409
Q 519 691 194 1066
Q 1031 1591 1725 2266
z
" transform="scale(0.015625)"/>
      <path id="MicrosoftYaHei-Bold-8bad" d="M 956 5259
Q 1475 4753 1925 4234
L 1263 3684
Q 769 4328 356 4747
L 956 5259
z
M 2450 5184
L 3281 5184
L 3281 2066
Q 3281 209 2275 -884
Q 1844 -528 1519 -328
Q 2450 659 2450 2134
L 2450 5184
z
M 5238 5184
L 6069 5184
L 6069 -784
L 5238 -784
L 5238 5184
z
M 3856 4953
L 4663 4953
L 4663 -416
L 3856 -416
L 3856 4953
z
M 2019 1772
Q 2050 1466 2175 916
Q 1556 353 925 -341
L 488 266
Q 650 447 650 772
L 650 2422
L 125 2422
L 125 3266
L 1475 3266
L 1475 1297
Q 1769 1541 2019 1772
z
" transform="scale(0.015625)"/>
      <path id="MicrosoftYaHei-Bold-7ec3" d="M 2400 3516
L 2984 3516
L 3159 4028
L 2263 4028
L 2263 4753
L 3394 4753
L 3575 5347
L 4413 5291
L 4238 4753
L 6000 4753
L 6000 4028
L 3994 4028
L 3809 3516
L 4969 3516
L 4969 2191
L 6025 2191
L 6025 1484
L 4969 1484
L 4969 297
Q 4969 -131 4831 -397
Q 4694 -663 4444 -758
Q 4194 -853 3394 -853
Q 3294 -309 3225 -34
Q 3525 -72 3756 -72
Q 4125 -72 4125 491
L 4125 1484
L 2513 1484
L 2513 2291
Q 2613 2525 2716 2791
L 2400 2791
L 2400 3516
z
M 3306 2191
L 4125 2191
L 4125 2791
L 3541 2791
L 3306 2191
z
M 1013 3372
L 1419 3388
L 1744 3966
L 2413 3659
L 1356 1797
Q 1894 1872 2294 1941
Q 2263 1684 2231 1159
Q 931 984 475 866
L 244 1566
Q 531 1816 1009 2653
L 306 2584
L 75 3297
Q 575 3966 1219 5341
L 2000 5028
Q 1450 4053 1013 3372
z
M 75 372
Q 1100 478 2288 672
Q 2275 350 2272 116
Q 2722 741 3000 1309
L 3706 1003
Q 3294 197 2738 -597
Q 2469 -409 2078 -191
L 238 -503
L 75 372
z
M 5000 978
L 5619 1278
Q 5994 584 6369 -197
L 5713 -534
Q 5356 316 5000 978
z
" transform="scale(0.015625)"/>
      <path id="MicrosoftYaHei-Bold-ff0c" d="M 2075 831
L 1569 -863
L 831 -863
L 1191 831
L 2075 831
z
" transform="scale(0.015625)"/>
      <path id="MicrosoftYaHei-Bold-4e0d" d="M 350 4928
L 6088 4928
L 6088 4078
L 3866 4078
Q 3659 3556 3375 3072
L 3675 3072
L 3675 2341
L 4300 2928
Q 5144 2178 6338 1078
L 5606 359
Q 4809 1284 3675 2316
L 3675 -853
L 2731 -853
L 2731 2141
Q 1925 1138 725 303
Q 525 591 88 1128
Q 2069 2419 2813 4078
L 350 4078
L 350 4928
z
" transform="scale(0.015625)"/>
      <path id="MicrosoftYaHei-Bold-5bf9" d="M 3050 4234
L 4850 4234
L 4850 5309
L 5744 5309
L 5744 4234
L 6319 4234
L 6319 3409
L 5744 3409
L 5744 216
Q 5744 -250 5539 -490
Q 5334 -731 4987 -754
Q 4641 -778 3656 -778
Q 3594 -359 3450 147
Q 3931 109 4409 109
Q 4850 109 4850 516
L 4850 3409
L 3050 3409
L 3050 4234
z
M 863 3772
L 1691 2509
Q 1934 3206 2025 4016
L 188 4016
L 188 4834
L 2900 4834
L 2900 4028
Q 2709 2722 2247 1669
L 3169 278
L 2394 -228
L 1781 778
Q 1269 -47 550 -684
Q 369 -316 88 153
Q 816 772 1278 1594
L 181 3341
L 863 3772
z
M 3463 3047
Q 4069 2278 4588 1528
L 3844 1041
Q 3375 1841 2813 2609
L 3463 3047
z
" transform="scale(0.015625)"/>
      <path id="MicrosoftYaHei-Bold-8c61" d="M 1931 5334
L 2913 5334
Q 2763 5128 2597 4934
L 5000 4934
L 5000 4366
L 4506 3966
L 5944 3966
L 5944 2366
L 5491 2366
L 5869 1822
L 4975 1406
Q 5506 509 6313 22
Q 5900 -341 5638 -622
Q 4900 -13 4334 1116
L 4050 991
Q 4184 584 4184 197
Q 4184 -325 3028 -834
L 2075 -834
Q 2003 -541 1900 -203
Q 1244 -538 431 -803
Q 300 -503 94 -122
Q 1875 300 3059 1231
Q 3006 1338 2934 1450
Q 1959 756 500 291
Q 375 566 200 891
Q 1781 1225 2700 1775
Q 2628 1863 2547 1956
Q 1753 1569 425 1253
Q 294 1528 106 1853
Q 1359 2059 2009 2366
L 569 2366
L 569 3506
Q 381 3684 106 3916
Q 1294 4553 1931 5334
z
M 1538 3966
L 3425 3966
L 3881 4359
L 2028 4359
Q 1797 4153 1538 3966
z
M 5150 2966
L 5150 3366
L 3778 3366
Q 3709 3141 3644 2966
L 5150 2966
z
M 1363 2966
L 2706 2966
Q 2800 3134 2866 3366
L 1363 3366
L 1363 2966
z
M 5191 2366
L 3216 2366
Q 3181 2338 3144 2309
Q 3506 1991 3741 1628
Q 4431 1931 5191 2366
z
M 3247 700
Q 2769 272 2128 -78
Q 2569 -109 2791 -109
Q 3288 -109 3288 378
Q 3288 519 3247 700
z
" transform="scale(0.015625)"/>
      <path id="MicrosoftYaHei-Bold-5728" d="M 263 4659
L 2006 4659
Q 2144 5003 2244 5366
L 3188 5297
Q 3103 4972 2994 4659
L 6225 4659
L 6225 3828
L 2656 3828
Q 2288 3047 1756 2350
L 1756 -834
L 919 -834
L 919 1400
Q 688 1175 438 959
Q 256 1528 88 1928
Q 1034 2778 1616 3828
L 263 3828
L 263 4659
z
M 1981 284
L 3681 284
L 3681 1684
L 2319 1684
L 2319 2509
L 3681 2509
L 3681 3634
L 4575 3634
L 4575 2509
L 5956 2509
L 5956 1684
L 4575 1684
L 4575 284
L 6238 284
L 6238 -541
L 1981 -541
L 1981 284
z
" transform="scale(0.015625)"/>
      <path id="MicrosoftYaHei-Bold-65f6" d="M 3038 4241
L 4888 4241
L 4888 5291
L 5781 5291
L 5781 4241
L 6306 4241
L 6306 3409
L 5781 3409
L 5781 316
Q 5781 -209 5547 -478
Q 5313 -747 4898 -762
Q 4484 -778 3669 -778
Q 3569 -209 3456 134
Q 4344 109 4431 109
Q 4888 109 4888 584
L 4888 3409
L 3038 3409
L 3038 4241
z
M 394 -497
L 394 4897
L 2856 4897
L 2856 -459
L 2031 -459
L 2031 -28
L 1219 -28
L 1219 -497
L 394 -497
z
M 2031 4072
L 1219 4072
L 1219 2834
L 2031 2834
L 2031 4072
z
M 1219 797
L 2031 797
L 2031 2034
L 1219 2034
L 1219 797
z
M 3588 3072
Q 4013 2541 4713 1559
L 3956 1066
Q 3388 2009 2938 2641
L 3588 3072
z
" transform="scale(0.015625)"/>
      <path id="MicrosoftYaHei-Bold-523b" d="M 3688 3953
L 2134 3953
Q 1791 3453 1406 2978
Q 1828 2988 2300 3009
Q 2541 3322 2744 3666
L 3444 3259
Q 2363 1553 663 534
Q 394 947 106 1272
Q 978 1697 1641 2300
Q 900 2231 594 2166
L 319 2866
Q 725 3128 1200 3953
L 231 3953
L 231 4678
L 1659 4678
Q 1556 4947 1438 5216
L 2319 5384
Q 2450 5109 2625 4678
L 3688 4678
L 3688 3953
z
M 5138 5266
L 5981 5266
L 5981 166
Q 5981 -275 5807 -512
Q 5634 -750 5315 -786
Q 4997 -822 4238 -828
Q 4125 -316 4025 66
Q 4806 47 4850 47
Q 5138 47 5138 447
L 5138 5266
z
M 3881 4653
L 4700 4653
L 4700 659
L 3881 659
L 3881 4653
z
M 3106 2278
L 3819 1872
Q 3447 1247 2956 722
Q 3472 331 3944 -72
L 3388 -716
Q 2922 -272 2388 181
Q 1672 -425 756 -878
Q 494 -497 188 -128
Q 2125 728 3106 2278
z
" transform="scale(0.015625)"/>
      <path id="MicrosoftYaHei-Bold-4fdd" d="M 1181 5328
L 2019 5078
Q 1800 4288 1525 3584
L 1525 -847
L 738 -847
L 738 1934
Q 528 1575 300 1247
Q 231 1853 94 2434
Q 750 3566 1181 5328
z
M 2163 5066
L 5825 5066
L 5825 2728
L 4413 2728
L 4413 2166
L 6238 2166
L 6238 1453
L 4803 1453
Q 5300 781 6313 322
Q 6000 -178 5819 -491
Q 4909 81 4413 944
L 4413 -847
L 3525 -847
L 3525 903
Q 2903 25 2056 -566
Q 1856 -197 1581 184
Q 2428 672 3066 1453
L 1756 1453
L 1756 2166
L 3525 2166
L 3525 2728
L 2163 2728
L 2163 5066
z
M 4994 4322
L 2994 4322
L 2994 3472
L 4994 3472
L 4994 4322
z
" transform="scale(0.015625)"/>
      <path id="MicrosoftYaHei-Bold-7559" d="M 506 4978
Q 1694 5078 2731 5347
L 2975 4678
Q 2156 4484 1313 4341
L 1313 3409
L 2141 3575
Q 2016 3825 1888 4066
L 2513 4397
Q 2819 3856 3131 3244
Q 3572 3656 3641 4347
L 3131 4347
L 3131 5028
L 5988 5028
L 5944 3913
Q 5919 3194 5780 2955
Q 5641 2716 5434 2603
Q 5228 2491 4394 2522
Q 4331 2966 4269 3328
Q 4706 3297 4853 3297
Q 5047 3297 5103 3461
Q 5159 3625 5175 4347
L 4441 4347
Q 4366 3181 3463 2472
Q 3269 2666 3078 2838
L 2613 2591
L 2463 2909
Q 947 2659 625 2397
L 269 3059
Q 481 3216 506 3428
L 506 4978
z
M 750 2284
L 5688 2284
L 5688 -803
L 4850 -803
L 4850 -528
L 1588 -528
L 1588 -816
L 750 -816
L 750 2284
z
M 4850 1628
L 3638 1628
L 3638 1191
L 4850 1191
L 4850 1628
z
M 1588 1191
L 2800 1191
L 2800 1628
L 1588 1628
L 1588 1191
z
M 3638 128
L 4850 128
L 4850 591
L 3638 591
L 3638 128
z
M 1588 128
L 2800 128
L 2800 591
L 1588 591
L 1588 128
z
" transform="scale(0.015625)"/>
     </defs>
     <use xlink:href="#MicrosoftYaHei-Bold-540c"/>
     <use xlink:href="#MicrosoftYaHei-Bold-4e00" transform="translate(100 0)"/>
     <use xlink:href="#MicrosoftYaHei-Bold-6b65" transform="translate(200 0)"/>
     <use xlink:href="#MicrosoftYaHei-Bold-8bad" transform="translate(300 0)"/>
     <use xlink:href="#MicrosoftYaHei-Bold-7ec3" transform="translate(400 0)"/>
     <use xlink:href="#MicrosoftYaHei-Bold-ff0c" transform="translate(500 0)"/>
     <use xlink:href="#MicrosoftYaHei-Bold-4e0d" transform="translate(600 0)"/>
     <use xlink:href="#MicrosoftYaHei-Bold-540c" transform="translate(700 0)"/>
     <use xlink:href="#MicrosoftYaHei-Bold-5bf9" transform="translate(800 0)"/>
     <use xlink:href="#MicrosoftYaHei-Bold-8c61" transform="translate(900 0)"/>
     <use xlink:href="#MicrosoftYaHei-Bold-5728" transform="translate(1000 0)"/>
     <use xlink:href="#MicrosoftYaHei-Bold-4e0d" transform="translate(1100 0)"/>
     <use xlink:href="#MicrosoftYaHei-Bold-540c" transform="translate(1200 0)"/>
     <use xlink:href="#MicrosoftYaHei-Bold-65f6" transform="translate(1300 0)"/>
     <use xlink:href="#MicrosoftYaHei-Bold-523b" transform="translate(1400 0)"/>
     <use xlink:href="#MicrosoftYaHei-Bold-4fdd" transform="translate(1500 0)"/>
     <use xlink:href="#MicrosoftYaHei-Bold-7559" transform="translate(1600 0)"/>
    </g>
   </g>
   <g id="text_2">
    <!-- 逻辑寿命示意：默认 backward、无额外引用；横向不是耗时，条长不是字节数 -->
    <g style="fill: #203349" transform="translate(31.68 87.260269) scale(0.14 -0.14)">
     <defs>
      <path id="MicrosoftYaHei-903b" d="M 3050 1728
Q 3622 1375 4053 1072
Q 4688 1503 5138 2116
L 3016 2116
Q 2488 1469 1850 972
Q 1725 1147 1563 1353
Q 2606 2153 3150 3128
L 3606 2934
Q 3478 2731 3341 2541
L 5713 2541
L 5713 2097
Q 4703 469 2334 -169
Q 2484 -191 2656 -191
L 4094 -222
L 6300 -166
Q 6231 -372 6125 -659
L 3844 -672
L 2606 -634
Q 1506 -647 1081 91
Q 825 -147 331 -747
L 75 -228
Q 628 306 875 538
L 875 2641
L 131 2641
L 131 3103
L 1356 3103
L 1356 434
Q 1641 -22 2206 -144
Q 2125 28 2006 241
Q 2909 431 3616 809
Q 3191 1131 2769 1416
L 3050 1728
z
M 1925 5053
L 5950 5053
L 5950 2966
L 5513 2966
L 5513 3153
L 2363 3153
L 2363 2966
L 1925 2966
L 1925 5053
z
M 5513 4647
L 4744 4647
L 4744 3559
L 5513 3559
L 5513 4647
z
M 3550 3559
L 4319 3559
L 4319 4647
L 3550 4647
L 3550 3559
z
M 2363 3559
L 3125 3559
L 3125 4647
L 2363 4647
L 2363 3559
z
M 813 5197
Q 1244 4666 1625 4128
L 1181 3816
Q 825 4391 413 4928
L 813 5197
z
" transform="scale(0.015625)"/>
      <path id="MicrosoftYaHei-8f91" d="M 2281 228
Q 2559 241 2850 250
L 2850 2759
L 2469 2759
L 2469 3147
L 6231 3147
L 6231 2759
L 5819 2759
L 5819 400
Q 6066 413 6319 428
Q 6288 184 6275 16
Q 6050 6 5819 0
L 5819 -841
L 5381 -841
L 5381 -19
Q 3991 -81 2313 -184
L 2281 228
z
M 681 2241
L 1350 2241
L 1350 3622
L 1763 3622
L 1763 2241
L 2494 2241
L 2494 1828
L 1763 1828
L 1763 969
Q 2188 1019 2606 1078
Q 2575 841 2563 647
Q 2181 603 1763 550
L 1763 -841
L 1350 -841
L 1350 497
Q 772 422 131 334
L 81 791
Q 722 850 1350 919
L 1350 1828
L 225 1828
L 225 2222
Q 572 3181 809 3941
L 156 3941
L 156 4347
L 934 4347
Q 1100 4913 1194 5347
L 1675 5247
Q 1572 4891 1394 4347
L 2544 4347
L 2544 3941
L 1263 3941
Q 1025 3222 681 2241
z
M 2794 5041
L 5875 5041
L 5875 3422
L 5444 3422
L 5444 3647
L 3231 3647
L 3231 3422
L 2794 3422
L 2794 5041
z
M 5444 4672
L 3231 4672
L 3231 4016
L 5444 4016
L 5444 4672
z
M 5381 375
L 5381 903
L 3288 903
L 3288 272
Q 4266 319 5381 375
z
M 3288 1266
L 5381 1266
L 5381 1834
L 3288 1834
L 3288 1266
z
M 3288 2197
L 5381 2197
L 5381 2759
L 3288 2759
L 3288 2197
z
" transform="scale(0.015625)"/>
      <path id="MicrosoftYaHei-5bff" d="M 4625 2091
L 5113 2091
L 5113 1547
L 6250 1547
L 6250 1116
L 5113 1116
L 5113 122
Q 5113 -734 4300 -734
Q 3844 -734 3338 -722
Q 3313 -466 3256 -209
Q 3725 -253 4225 -259
Q 4625 -259 4625 191
L 4625 1116
L 1819 1116
Q 1231 331 406 -303
Q 250 -91 63 72
Q 1272 1013 1938 2247
L 169 2247
L 169 2678
L 2150 2678
Q 2278 2963 2378 3266
L 750 3266
L 750 3684
L 2503 3684
Q 2575 3953 2625 4228
L 350 4228
L 350 4659
L 2694 4659
Q 2734 4988 2750 5328
L 3244 5328
Q 3225 4988 3188 4659
L 6075 4659
L 6075 4228
L 3122 4228
Q 3075 3950 3009 3684
L 5694 3684
L 5694 3266
L 2897 3266
Q 2806 2963 2691 2678
L 6231 2678
L 6231 2247
L 2503 2247
Q 2331 1884 2116 1547
L 4625 1547
L 4625 2091
z
M 2000 591
L 2263 947
Q 2838 634 3350 284
L 3056 -97
Q 2581 241 2000 591
z
" transform="scale(0.015625)"/>
      <path id="MicrosoftYaHei-547d" d="M 731 2416
L 2738 2416
L 2738 -253
L 2281 -253
L 2281 153
L 1188 153
L 1188 -316
L 731 -316
L 731 2416
z
M 3444 2484
L 5706 2484
L 5706 641
Q 5706 -97 5006 -103
Q 4681 -109 4269 -97
Q 4244 134 4194 422
Q 4613 372 4850 372
Q 5250 372 5250 791
L 5250 2047
L 3906 2047
L 3906 -884
L 3444 -884
L 3444 2484
z
M 3688 5291
L 3563 5153
Q 4606 3941 6313 3409
Q 6125 3141 6006 2922
Q 4294 3666 3244 4834
Q 2288 3747 363 2834
Q 238 3066 88 3272
Q 1975 4047 3000 5291
L 3688 5291
z
M 2281 1978
L 1188 1978
L 1188 591
L 2281 591
L 2281 1978
z
M 1719 3509
L 4706 3509
L 4706 3072
L 1719 3072
L 1719 3509
z
" transform="scale(0.015625)"/>
      <path id="MicrosoftYaHei-793a" d="M 100 3072
L 6300 3072
L 6300 2603
L 3619 2603
L 3619 78
Q 3619 -703 2800 -709
Q 2366 -709 1825 -703
Q 1788 -447 1731 -128
Q 2225 -178 2663 -178
Q 3088 -178 3088 241
L 3088 2603
L 100 2603
L 100 3072
z
M 675 4916
L 5744 4916
L 5744 4447
L 675 4447
L 675 4916
z
M 4413 1847
L 4831 2128
Q 5600 1184 6319 159
L 5863 -141
Q 5088 991 4413 1847
z
M 1481 2141
L 1938 1884
Q 1281 747 538 -278
Q 344 -134 125 16
Q 825 922 1481 2141
z
" transform="scale(0.015625)"/>
      <path id="MicrosoftYaHei-610f" d="M 2706 759
L 3022 1028
L 1419 1028
L 1419 834
L 956 834
L 956 2997
L 5406 2997
L 5406 834
L 4944 834
L 4944 1028
L 3038 1028
Q 3447 681 3756 353
L 3388 47
Q 3125 353 2706 759
z
M 150 3722
L 1906 3722
Q 1659 3956 1406 4172
L 1594 4347
L 538 4347
L 538 4722
L 3028 4722
Q 2900 4984 2763 5216
L 3188 5397
Q 3391 5044 3538 4722
L 5863 4722
L 5863 4347
L 4772 4347
L 4988 4184
Q 4738 3953 4472 3722
L 6250 3722
L 6250 3347
L 150 3347
L 150 3722
z
M 1650 791
L 2125 791
L 2125 78
Q 2125 -284 2538 -284
L 3819 -284
Q 4269 -284 4350 59
Q 4413 297 4463 622
Q 4681 528 4931 447
Q 4856 91 4794 -128
Q 4644 -709 3950 -709
L 2438 -709
Q 1650 -709 1650 34
L 1650 791
z
M 1419 1391
L 4944 1391
L 4944 1841
L 1419 1841
L 1419 1391
z
M 4944 2634
L 1419 2634
L 1419 2191
L 4944 2191
L 4944 2634
z
M 3925 3834
Q 4178 4047 4481 4347
L 1838 4347
Q 2116 4141 2381 3909
L 2191 3722
L 4038 3722
L 3925 3834
z
M 656 759
L 1094 591
Q 869 22 569 -559
Q 381 -472 131 -366
Q 388 97 656 759
z
M 5175 503
L 5531 778
Q 5975 303 6325 -116
L 5931 -428
Q 5550 72 5175 503
z
" transform="scale(0.015625)"/>
      <path id="MicrosoftYaHei-ff1a" d="M 1606 3531
Q 1772 3531 1890 3415
Q 2009 3300 2009 3138
Q 2009 2975 1893 2858
Q 1778 2741 1606 2741
Q 1434 2741 1318 2858
Q 1203 2975 1203 3138
Q 1203 3300 1322 3415
Q 1441 3531 1606 3531
z
M 1606 716
Q 1772 716 1890 600
Q 2009 484 2009 319
Q 2009 150 1890 36
Q 1772 -78 1606 -78
Q 1441 -78 1322 36
Q 1203 150 1203 319
Q 1203 484 1322 600
Q 1441 716 1606 716
z
" transform="scale(0.015625)"/>
      <path id="MicrosoftYaHei-9ed8" d="M 2794 2516
L 2794 2678
L 1981 2678
L 1981 2141
L 3200 2141
L 3200 1797
L 1981 1797
L 1981 1272
Q 2644 1309 3313 1359
Q 3306 1184 3319 984
Q 1775 872 263 753
L 194 1178
Q 891 1209 1594 1247
L 1594 1797
L 350 1797
L 350 2141
L 1594 2141
L 1594 2678
L 788 2678
L 788 2516
L 400 2516
L 400 5003
L 3181 5003
L 3181 2516
L 2794 2516
z
M 3350 3566
L 4319 3566
Q 4338 4203 4338 5303
L 4800 5303
Q 4800 4241 4781 3566
L 6175 3566
L 6175 3147
L 4772 3147
Q 5094 822 6325 -303
Q 6094 -528 5925 -766
Q 4959 284 4609 1956
Q 4338 344 3231 -853
Q 3056 -628 2881 -453
Q 4216 834 4309 3147
L 3350 3147
L 3350 3566
z
M 2794 4659
L 1981 4659
L 1981 3022
L 2794 3022
L 2794 4659
z
M 788 3022
L 1594 3022
L 1594 4659
L 788 4659
L 788 3022
z
M 913 384
Q 744 -184 488 -728
L 88 -572
Q 356 -66 538 509
L 913 384
z
M 4944 4641
L 5225 4941
Q 5738 4541 6031 4253
L 5694 3897
Q 5394 4228 4944 4641
z
M 1419 516
Q 1600 -3 1719 -447
L 1325 -578
Q 1213 -66 1075 409
L 1419 516
z
M 2144 666
Q 2306 397 2544 -191
L 2156 -347
Q 2019 91 1806 541
L 2144 666
z
M 2688 4172
Q 2544 3647 2400 3291
L 2088 3391
Q 2200 3678 2350 4266
L 2688 4172
z
M 875 4178
L 1194 4278
Q 1363 3766 1444 3409
L 1106 3309
Q 1025 3709 875 4178
z
M 2844 891
Q 3063 609 3275 247
L 2938 28
Q 2806 303 2538 716
L 2844 891
z
" transform="scale(0.015625)"/>
      <path id="MicrosoftYaHei-8ba4" d="M 3788 5253
L 4294 5253
Q 4288 4431 4272 3644
Q 4616 791 6325 -222
Q 6100 -472 5919 -703
Q 4584 234 4103 2297
Q 3759 409 2181 -816
Q 2038 -641 1819 -416
Q 3756 978 3769 3678
Q 3788 4378 3788 5253
z
M 2525 1634
Q 2563 1359 2625 1128
Q 1975 628 1381 97
Q 1213 -59 1094 -228
L 725 159
Q 925 366 925 709
L 925 2816
L 88 2816
L 88 3266
L 1413 3266
L 1413 716
Q 1875 1084 2525 1634
z
M 1025 5203
Q 1625 4597 2081 4097
L 1650 3741
Q 1213 4291 656 4891
L 1025 5203
z
" transform="scale(0.015625)"/>
      <path id="MicrosoftYaHei-20" transform="scale(0.015625)"/>
      <path id="MicrosoftYaHei-62" d="M 1159 488
L 1159 0
L 547 0
L 547 5116
L 1159 5116
L 1159 2859
L 1172 2859
Q 1578 3538 2359 3538
Q 3009 3538 3392 3080
Q 3775 2622 3775 1828
Q 3775 953 3345 436
Q 2916 -81 2200 -81
Q 1525 -81 1172 488
L 1159 488
z
M 1156 1422
Q 1156 1003 1428 714
Q 1700 425 2109 425
Q 2597 425 2872 800
Q 3147 1175 3147 1838
Q 3147 2384 2890 2707
Q 2634 3031 2191 3031
Q 1741 3031 1448 2709
Q 1156 2388 1156 1891
L 1156 1422
z
" transform="scale(0.015625)"/>
      <path id="MicrosoftYaHei-61" d="M 628 3216
Q 1144 3538 1819 3538
Q 3069 3538 3069 2225
L 3069 0
L 2463 0
L 2463 534
L 2447 534
Q 2088 -81 1388 -81
Q 884 -81 587 191
Q 291 463 291 925
Q 291 1894 1438 2053
L 2463 2197
Q 2463 3044 1763 3044
Q 1141 3044 628 2625
L 628 3216
z
M 1653 1625
Q 1228 1569 1067 1412
Q 906 1256 906 975
Q 906 728 1081 572
Q 1256 416 1544 416
Q 1944 416 2203 697
Q 2463 978 2463 1403
L 2463 1734
L 1653 1625
z
" transform="scale(0.015625)"/>
      <path id="MicrosoftYaHei-63" d="M 2934 156
Q 2538 -81 1978 -81
Q 1228 -81 772 400
Q 316 881 316 1647
Q 316 2497 808 3017
Q 1300 3538 2125 3538
Q 2600 3538 2938 3369
L 2938 2763
Q 2572 3031 2125 3031
Q 1600 3031 1270 2667
Q 941 2303 941 1697
Q 941 1100 1252 762
Q 1563 425 2091 425
Q 2538 425 2934 719
L 2934 156
z
" transform="scale(0.015625)"/>
      <path id="MicrosoftYaHei-6b" d="M 3484 0
L 2650 0
L 1172 1666
L 1159 1666
L 1159 0
L 547 0
L 547 5116
L 1159 5116
L 1159 1872
L 1172 1872
L 2575 3456
L 3363 3456
L 1800 1794
L 3484 0
z
" transform="scale(0.015625)"/>
      <path id="MicrosoftYaHei-77" d="M 4975 3456
L 3944 0
L 3306 0
L 2619 2425
Q 2575 2581 2563 2756
L 2550 2756
Q 2541 2625 2478 2431
L 1734 0
L 1116 0
L 78 3456
L 716 3456
L 1406 894
Q 1438 778 1453 578
L 1478 578
Q 1491 750 1538 903
L 2281 3456
L 2847 3456
L 3572 891
Q 3603 778 3622 572
L 3650 572
Q 3656 709 3706 891
L 4381 3456
L 4975 3456
z
" transform="scale(0.015625)"/>
      <path id="MicrosoftYaHei-72" d="M 2400 2850
Q 2247 2959 1978 2959
Q 1622 2959 1390 2626
Q 1159 2294 1159 1750
L 1159 0
L 547 0
L 547 3456
L 1159 3456
L 1159 2753
L 1172 2753
Q 1434 3516 2078 3516
Q 2288 3516 2400 3469
L 2400 2850
z
" transform="scale(0.015625)"/>
      <path id="MicrosoftYaHei-64" d="M 3547 0
L 2934 0
L 2934 575
L 2922 575
Q 2544 -81 1747 -81
Q 1091 -81 703 386
Q 316 853 316 1647
Q 316 2503 753 3020
Q 1191 3538 1897 3538
Q 2603 3538 2922 2988
L 2934 2988
L 2934 5116
L 3547 5116
L 3547 0
z
M 2938 2056
Q 2938 2472 2664 2751
Q 2391 3031 1991 3031
Q 1503 3031 1222 2667
Q 941 2303 941 1675
Q 941 1097 1211 761
Q 1481 425 1931 425
Q 2375 425 2656 754
Q 2938 1084 2938 1575
L 2938 2056
z
" transform="scale(0.015625)"/>
      <path id="MicrosoftYaHei-3001" d="M 1931 -413
L 1556 -791
Q 1028 -216 397 306
L 728 650
Q 1506 22 1931 -413
z
" transform="scale(0.015625)"/>
      <path id="MicrosoftYaHei-65e0" d="M 200 2878
L 2650 2878
Q 2781 3528 2806 4328
L 675 4328
L 675 4816
L 5750 4816
L 5750 4328
L 3331 4328
Q 3288 3528 3169 2878
L 6225 2878
L 6225 2391
L 3063 2391
Q 2588 278 450 -884
Q 313 -672 113 -441
Q 1975 491 2538 2391
L 200 2391
L 200 2878
z
M 3400 1941
L 3906 1941
L 3906 297
Q 3906 -197 4363 -197
L 5219 -197
Q 5644 -197 5700 172
Q 5750 528 5775 1097
Q 6013 1009 6300 916
Q 6238 297 6188 -16
Q 6106 -641 5300 -641
L 4219 -641
Q 3400 -641 3400 222
L 3400 1941
z
" transform="scale(0.015625)"/>
      <path id="MicrosoftYaHei-989d" d="M 863 2484
L 1094 2834
Q 1463 2653 1794 2491
Q 2119 2809 2344 3203
L 1125 3203
Q 794 2659 419 2247
Q 281 2397 125 2547
Q 719 3172 1100 4072
L 1513 3934
Q 1425 3747 1331 3578
L 2844 3578
L 2844 3222
Q 2588 2703 2194 2291
Q 2738 2016 3194 1778
L 2938 1372
Q 2406 1678 1850 1978
Q 1381 1597 763 1322
L 2756 1322
L 2756 -684
L 2344 -684
L 2344 -416
L 1063 -416
L 1063 -734
L 650 -734
L 650 1272
Q 463 1197 269 1128
Q 188 1297 63 1509
Q 869 1766 1444 2191
Q 1156 2334 863 2484
z
M 3369 3728
L 4281 3728
L 4425 4516
L 3244 4516
L 3244 4941
L 6231 4941
L 6231 4516
L 4906 4516
L 4738 3728
L 6038 3728
L 6038 591
L 5600 591
L 5600 3303
L 3806 3303
L 3806 591
L 3369 591
L 3369 3728
z
M 4481 2916
L 4931 2916
Q 4944 1322 4788 709
Q 5688 78 6356 -453
L 6044 -853
Q 5438 -303 4619 291
Q 4231 -416 3169 -916
Q 3044 -734 2869 -516
Q 4019 -3 4294 716
Q 4519 1216 4481 2916
z
M 250 4591
L 1538 4591
Q 1413 4872 1244 5172
L 1650 5347
Q 1881 4916 2031 4591
L 3138 4591
L 3138 3709
L 2713 3709
L 2713 4216
L 675 4216
L 675 3709
L 250 3709
L 250 4591
z
M 2344 934
L 1063 934
L 1063 -28
L 2344 -28
L 2344 934
z
" transform="scale(0.015625)"/>
      <path id="MicrosoftYaHei-5916" d="M 38 2084
Q 969 3503 1438 5316
L 1950 5172
Q 1800 4666 1638 4197
L 3375 4197
L 3375 3734
Q 3044 628 569 -822
Q 438 -616 244 -378
Q 1456 341 2106 1422
Q 1669 1791 1125 2172
L 1444 2553
Q 1975 2166 2350 1872
Q 2738 2678 2850 3722
L 1456 3722
Q 1019 2616 325 1553
Q 200 1809 38 2084
z
M 3988 5266
L 4513 5266
L 4513 3116
L 4763 3397
Q 5656 2703 6356 2128
L 6000 1666
Q 5338 2278 4513 2972
L 4513 -859
L 3988 -859
L 3988 5266
z
" transform="scale(0.015625)"/>
      <path id="MicrosoftYaHei-5f15" d="M 1075 2078
L 3663 2078
Q 3575 828 3500 247
Q 3413 -716 2438 -716
Q 1863 -716 1144 -684
Q 1100 -409 1013 -109
Q 1688 -178 2344 -178
Q 2963 -178 3006 441
Q 3056 822 3113 1609
L 463 1609
L 831 3522
L 3081 3522
L 3081 4566
L 463 4566
L 463 5028
L 3594 5028
L 3594 2822
L 3081 2822
L 3081 3059
L 1256 3059
L 1075 2078
z
M 5175 5291
L 5700 5291
L 5700 -828
L 5175 -828
L 5175 5291
z
" transform="scale(0.015625)"/>
      <path id="MicrosoftYaHei-7528" d="M 3088 -734
L 3088 1253
L 1269 1253
Q 1163 -47 513 -903
Q 350 -697 144 -472
Q 550 103 694 803
Q 831 1478 831 2716
L 831 4947
L 5925 4947
L 5925 -22
Q 5925 -766 5219 -766
Q 4788 -766 4250 -747
Q 4219 -541 4156 -228
Q 4700 -266 5038 -266
Q 5425 -266 5425 103
L 5425 1253
L 3588 1253
L 3588 -734
L 3088 -734
z
M 3588 1703
L 5425 1703
L 5425 2872
L 3588 2872
L 3588 1703
z
M 5425 4484
L 3588 4484
L 3588 3322
L 5425 3322
L 5425 4484
z
M 1303 1703
L 3088 1703
L 3088 2872
L 1331 2872
Q 1350 2266 1303 1703
z
M 1331 4484
L 1331 3322
L 3088 3322
L 3088 4484
L 1331 4484
z
" transform="scale(0.015625)"/>
      <path id="MicrosoftYaHei-ff1b" d="M 1606 3531
Q 1772 3531 1890 3415
Q 2009 3300 2009 3138
Q 2009 2975 1893 2858
Q 1778 2741 1606 2741
Q 1434 2741 1318 2858
Q 1203 2975 1203 3138
Q 1203 3300 1322 3415
Q 1441 3531 1606 3531
z
M 1931 775
L 1403 -891
L 966 -891
L 1350 775
L 1931 775
z
" transform="scale(0.015625)"/>
      <path id="MicrosoftYaHei-6a2a" d="M 2531 2772
L 4013 2772
L 4013 3272
L 2181 3272
L 2181 3659
L 3250 3659
L 3250 4284
L 2388 4284
L 2388 4672
L 3250 4672
L 3250 5303
L 3675 5303
L 3675 4672
L 4763 4672
L 4763 5303
L 5188 5303
L 5188 4672
L 6069 4672
L 6069 4284
L 5188 4284
L 5188 3659
L 6269 3659
L 6269 3272
L 4438 3272
L 4438 2772
L 5925 2772
L 5925 347
L 5500 347
L 5500 528
L 2956 528
L 2956 347
L 2531 347
L 2531 2772
z
M 50 1384
Q 709 2400 1022 3741
L 188 3741
L 188 4153
L 1081 4153
L 1081 5284
L 1506 5284
L 1506 4153
L 2219 4153
L 2219 3741
L 1506 3741
L 1506 2847
L 1788 3016
Q 2019 2703 2338 2191
L 1956 1959
Q 1744 2344 1506 2725
L 1506 -791
L 1081 -791
L 1081 2691
Q 741 1553 250 841
Q 169 1103 50 1384
z
M 3663 328
L 3925 -22
Q 3144 -447 2375 -803
Q 2225 -609 2075 -403
Q 2869 -72 3663 328
z
M 4525 -16
L 4781 334
Q 5563 -16 6319 -397
L 6044 -797
Q 5225 -366 4525 -16
z
M 3675 3659
L 4763 3659
L 4763 4284
L 3675 4284
L 3675 3659
z
M 4438 903
L 5500 903
L 5500 1472
L 4438 1472
L 4438 903
z
M 2956 903
L 4013 903
L 4013 1472
L 2956 1472
L 2956 903
z
M 5500 2397
L 4438 2397
L 4438 1834
L 5500 1834
L 5500 2397
z
M 2956 1834
L 4013 1834
L 4013 2397
L 2956 2397
L 2956 1834
z
" transform="scale(0.015625)"/>
      <path id="MicrosoftYaHei-5411" d="M 1038 -772
L 550 -772
L 550 4359
L 2394 4359
Q 2550 4822 2694 5328
L 3231 5178
Q 3069 4741 2913 4359
L 5838 4359
L 5838 -34
Q 5838 -741 5131 -741
Q 4738 -741 4181 -728
Q 4150 -509 4094 -241
Q 4631 -284 5006 -284
Q 5350 -284 5350 78
L 5350 3897
L 1038 3897
L 1038 -772
z
M 1894 2997
L 4481 2997
L 4481 803
L 2369 803
L 2369 372
L 1894 372
L 1894 2997
z
M 4006 2547
L 2369 2547
L 2369 1253
L 4006 1253
L 4006 2547
z
" transform="scale(0.015625)"/>
      <path id="MicrosoftYaHei-4e0d" d="M 225 4772
L 6181 4772
L 6181 4284
L 3881 4284
Q 3581 3766 3081 3053
L 3444 3053
L 3444 -866
L 2906 -866
L 2906 2859
Q 1838 1541 388 609
Q 231 834 38 1059
Q 2006 2291 3213 4284
L 225 4284
L 225 4772
z
M 4069 2859
Q 5238 2147 6325 1409
L 5969 916
Q 4681 1872 3763 2434
L 4069 2859
z
" transform="scale(0.015625)"/>
      <path id="MicrosoftYaHei-662f" d="M 1088 5078
L 5338 5078
L 5338 2472
L 4863 2472
L 4863 2722
L 1563 2722
L 1563 2472
L 1088 2472
L 1088 5078
z
M 1400 1553
L 1875 1409
Q 1775 1081 1647 788
Q 2122 19 3063 -134
L 3063 1747
L 213 1747
L 213 2184
L 6225 2184
L 6225 1747
L 3563 1747
L 3563 1122
L 5788 1122
L 5788 697
L 3563 697
L 3563 -172
Q 4763 -197 6344 -147
Q 6244 -416 6169 -641
Q 4331 -647 3344 -622
Q 2022 -606 1434 359
Q 1006 -413 350 -891
Q 225 -703 44 -484
Q 1050 191 1400 1553
z
M 1563 3147
L 4863 3147
L 4863 3697
L 1563 3697
L 1563 3147
z
M 4863 4653
L 1563 4653
L 1563 4109
L 4863 4109
L 4863 4653
z
" transform="scale(0.015625)"/>
      <path id="MicrosoftYaHei-8017" d="M 2506 1622
L 3913 1753
L 3913 2878
L 2738 2772
L 2706 3197
L 3913 3303
L 3913 4459
Q 3381 4403 2794 4353
Q 2769 4584 2700 4809
Q 4225 4916 5706 5172
L 5819 4697
Q 5188 4603 4381 4509
L 4381 3347
L 5825 3478
L 5850 3053
L 4381 2916
L 4381 1797
L 6150 1966
L 6175 1541
L 4381 1366
L 4381 128
Q 4381 -241 4706 -241
L 5400 -241
Q 5688 -241 5750 147
Q 5813 566 5844 991
Q 6094 866 6319 791
Q 6250 291 6194 -28
Q 6094 -691 5456 -691
L 4588 -691
Q 3913 -691 3913 72
L 3913 1322
L 2538 1197
L 2506 1622
z
M 88 191
Q 769 1072 1088 2022
L 138 2022
L 138 2422
L 1250 2422
L 1250 3028
L 363 3028
L 363 3428
L 1250 3428
L 1250 4016
L 231 4016
L 231 4416
L 1250 4416
L 1250 5303
L 1675 5303
L 1675 4416
L 2631 4416
L 2631 4016
L 1675 4016
L 1675 3428
L 2519 3428
L 2519 3028
L 1675 3028
L 1675 2422
L 2700 2422
L 2700 2022
L 1675 2022
L 1675 1334
L 1894 1547
Q 2381 1078 2806 622
L 2463 316
Q 2125 747 1675 1203
L 1675 -841
L 1250 -841
L 1250 1491
Q 869 434 281 -297
Q 188 -16 88 191
z
" transform="scale(0.015625)"/>
      <path id="MicrosoftYaHei-65f6" d="M 344 4728
L 2500 4728
L 2500 -366
L 2006 -366
L 2006 153
L 838 153
L 838 -441
L 344 -441
L 344 4728
z
M 2706 3941
L 4925 3941
L 4925 5322
L 5425 5322
L 5425 3941
L 6313 3941
L 6313 3478
L 5425 3478
L 5425 116
Q 5425 -722 4625 -722
Q 4263 -722 3563 -703
Q 3531 -478 3463 -178
Q 4119 -228 4488 -228
Q 4925 -228 4925 216
L 4925 3478
L 2706 3478
L 2706 3941
z
M 838 616
L 2006 616
L 2006 2234
L 838 2234
L 838 616
z
M 2006 4266
L 838 4266
L 838 2684
L 2006 2684
L 2006 4266
z
M 3406 2878
Q 3906 1966 4163 1422
Q 4000 1347 3663 1172
Q 3419 1766 2963 2653
L 3406 2878
z
" transform="scale(0.015625)"/>
      <path id="MicrosoftYaHei-ff0c" d="M 1931 775
L 1403 -891
L 966 -891
L 1350 775
L 1931 775
z
" transform="scale(0.015625)"/>
      <path id="MicrosoftYaHei-6761" d="M 375 3347
Q 1388 4178 2113 5328
L 2681 5328
Q 2488 5016 2284 4728
L 5344 4728
L 5344 4284
Q 4606 3572 3797 3088
Q 4747 2734 6313 2584
Q 6100 2291 6038 2041
Q 4253 2347 3272 2806
Q 2156 2284 306 1897
Q 213 2122 81 2347
Q 1813 2666 2772 3069
Q 2203 3416 1700 3978
Q 1250 3453 750 3016
Q 525 3241 375 3347
z
M 694 1759
L 3013 1759
L 3013 2378
L 3506 2378
L 3506 1759
L 5675 1759
L 5675 1316
L 3506 1316
L 3506 3
Q 3506 -728 2738 -728
Q 2400 -728 1950 -722
Q 1913 -466 1856 -172
Q 2294 -222 2588 -222
Q 3013 -222 3013 234
L 3013 1316
L 694 1316
L 694 1759
z
M 4706 4309
L 1981 4309
Q 2531 3719 3291 3319
Q 4031 3722 4706 4309
z
M 4094 666
L 4381 1022
Q 5413 459 6200 -53
L 5900 -491
Q 5150 47 4094 666
z
M 1875 1084
L 2244 741
Q 1481 84 569 -541
Q 425 -353 250 -159
Q 1113 372 1875 1084
z
" transform="scale(0.015625)"/>
      <path id="MicrosoftYaHei-957f" d="M 169 2766
L 1269 2766
L 1269 5316
L 1781 5316
L 1781 2766
L 6194 2766
L 6194 2278
L 3456 2278
Q 4238 566 6325 -78
Q 6113 -359 5944 -591
Q 3697 266 2925 2278
L 1781 2278
L 1781 16
Q 2494 303 3294 678
Q 3294 384 3319 116
Q 2575 -191 1894 -528
Q 1644 -666 1431 -834
L 1056 -353
Q 1269 -184 1269 103
L 1269 2278
L 169 2278
L 169 2766
z
M 2156 3528
Q 3706 4047 5138 5109
L 5463 4703
Q 4000 3634 2400 3066
Q 2300 3278 2156 3528
z
" transform="scale(0.015625)"/>
      <path id="MicrosoftYaHei-5b57" d="M 125 1628
L 3056 1628
L 3056 2022
L 4288 2797
L 1263 2797
L 1263 3253
L 5050 3253
L 5050 2747
L 3569 1797
L 3569 1628
L 6300 1628
L 6300 1166
L 3569 1166
L 3569 16
Q 3569 -778 2775 -778
Q 2456 -778 1844 -766
Q 1819 -528 1769 -209
Q 2263 -278 2644 -278
Q 3056 -278 3056 166
L 3056 1166
L 125 1166
L 125 1628
z
M 363 4384
L 3238 4384
Q 3006 4713 2681 5103
L 3100 5384
Q 3494 4953 3750 4584
L 3453 4384
L 6088 4384
L 6088 3116
L 5581 3116
L 5581 3928
L 863 3928
L 863 3116
L 363 3116
L 363 4384
z
" transform="scale(0.015625)"/>
      <path id="MicrosoftYaHei-8282" d="M 438 2928
L 5600 2928
Q 5538 1622 5475 922
Q 5406 3 4400 3
Q 3806 3 3425 41
Q 3388 341 3325 584
Q 3869 497 4338 497
Q 4944 497 4981 1084
Q 5038 1553 5075 2472
L 2569 2472
L 2569 -834
L 2050 -834
L 2050 2472
L 438 2472
L 438 2928
z
M 125 4478
L 1856 4478
L 1856 5303
L 2356 5303
L 2356 4478
L 4031 4478
L 4031 5303
L 4531 5303
L 4531 4478
L 6263 4478
L 6263 4022
L 4531 4022
L 4531 3322
L 4031 3322
L 4031 4022
L 2356 4022
L 2356 3328
L 1856 3328
L 1856 4022
L 125 4022
L 125 4478
z
" transform="scale(0.015625)"/>
      <path id="MicrosoftYaHei-6570" d="M 4175 5303
L 4675 5228
Q 4544 4622 4369 4097
L 6281 4097
L 6281 3672
L 5888 3672
Q 5731 1834 5088 753
Q 5594 66 6375 -372
Q 6175 -647 6038 -866
Q 5275 -372 4769 309
Q 4194 -403 3400 -928
Q 3263 -747 3044 -534
Q 3919 41 4463 772
Q 3956 1647 3794 2791
Q 3663 2559 3519 2359
Q 3394 2541 3206 2759
Q 3931 3803 4175 5303
z
M 150 1697
L 1100 1697
Q 1238 1934 1369 2184
L 1819 2041
Q 1719 1866 1619 1697
L 3150 1697
L 3150 1291
Q 2913 678 2431 216
Q 2775 53 3131 -109
L 2856 -541
Q 2469 -322 2050 -103
Q 1344 -609 269 -903
Q 169 -703 56 -466
Q 969 -259 1600 128
Q 1063 403 475 691
Q 675 978 863 1284
L 150 1284
L 150 1697
z
M 219 3847
L 1656 3847
L 1656 5247
L 2119 5247
L 2119 3847
L 3319 3847
L 3319 3434
L 2119 3434
L 2119 3053
L 2306 3266
Q 2888 2841 3281 2516
L 2981 2166
Q 2638 2491 2119 2897
L 2119 2184
L 1656 2184
L 1656 3059
Q 1088 2466 331 2016
Q 213 2197 63 2397
Q 850 2822 1506 3434
L 219 3434
L 219 3847
z
M 5388 3672
L 4219 3672
Q 4188 3591 4150 3516
Q 4263 2191 4775 1247
Q 5275 2159 5388 3672
z
M 1088 834
Q 1531 634 2000 416
Q 2431 784 2675 1284
L 1375 1284
Q 1231 1053 1088 834
z
M 3038 5091
L 3425 4834
Q 3081 4384 2738 4003
Q 2594 4128 2400 4266
Q 2725 4647 3038 5091
z
M 381 4816
L 738 5059
Q 1019 4716 1319 4322
L 931 4047
Q 656 4453 381 4816
z
" transform="scale(0.015625)"/>
     </defs>
     <use xlink:href="#MicrosoftYaHei-903b"/>
     <use xlink:href="#MicrosoftYaHei-8f91" transform="translate(100 0)"/>
     <use xlink:href="#MicrosoftYaHei-5bff" transform="translate(200 0)"/>
     <use xlink:href="#MicrosoftYaHei-547d" transform="translate(300 0)"/>
     <use xlink:href="#MicrosoftYaHei-793a" transform="translate(400 0)"/>
     <use xlink:href="#MicrosoftYaHei-610f" transform="translate(500 0)"/>
     <use xlink:href="#MicrosoftYaHei-ff1a" transform="translate(600 0)"/>
     <use xlink:href="#MicrosoftYaHei-9ed8" transform="translate(700 0)"/>
     <use xlink:href="#MicrosoftYaHei-8ba4" transform="translate(800 0)"/>
     <use xlink:href="#MicrosoftYaHei-20" transform="translate(900 0)"/>
     <use xlink:href="#MicrosoftYaHei-62" transform="translate(929.589844 0)"/>
     <use xlink:href="#MicrosoftYaHei-61" transform="translate(992.082031 0)"/>
     <use xlink:href="#MicrosoftYaHei-63" transform="translate(1047.355469 0)"/>
     <use xlink:href="#MicrosoftYaHei-6b" transform="translate(1097.501953 0)"/>
     <use xlink:href="#MicrosoftYaHei-77" transform="translate(1151.945312 0)"/>
     <use xlink:href="#MicrosoftYaHei-61" transform="translate(1230.900391 0)"/>
     <use xlink:href="#MicrosoftYaHei-72" transform="translate(1286.173828 0)"/>
     <use xlink:href="#MicrosoftYaHei-64" transform="translate(1322.982422 0)"/>
     <use xlink:href="#MicrosoftYaHei-3001" transform="translate(1386.947266 0)"/>
     <use xlink:href="#MicrosoftYaHei-65e0" transform="translate(1486.947266 0)"/>
     <use xlink:href="#MicrosoftYaHei-989d" transform="translate(1586.947266 0)"/>
     <use xlink:href="#MicrosoftYaHei-5916" transform="translate(1686.947266 0)"/>
     <use xlink:href="#MicrosoftYaHei-5f15" transform="translate(1786.947266 0)"/>
     <use xlink:href="#MicrosoftYaHei-7528" transform="translate(1886.947266 0)"/>
     <use xlink:href="#MicrosoftYaHei-ff1b" transform="translate(1986.947266 0)"/>
     <use xlink:href="#MicrosoftYaHei-6a2a" transform="translate(2086.947266 0)"/>
     <use xlink:href="#MicrosoftYaHei-5411" transform="translate(2186.947266 0)"/>
     <use xlink:href="#MicrosoftYaHei-4e0d" transform="translate(2286.947266 0)"/>
     <use xlink:href="#MicrosoftYaHei-662f" transform="translate(2386.947266 0)"/>
     <use xlink:href="#MicrosoftYaHei-8017" transform="translate(2486.947266 0)"/>
     <use xlink:href="#MicrosoftYaHei-65f6" transform="translate(2586.947266 0)"/>
     <use xlink:href="#MicrosoftYaHei-ff0c" transform="translate(2686.947266 0)"/>
     <use xlink:href="#MicrosoftYaHei-6761" transform="translate(2786.947266 0)"/>
     <use xlink:href="#MicrosoftYaHei-957f" transform="translate(2886.947266 0)"/>
     <use xlink:href="#MicrosoftYaHei-4e0d" transform="translate(2986.947266 0)"/>
     <use xlink:href="#MicrosoftYaHei-662f" transform="translate(3086.947266 0)"/>
     <use xlink:href="#MicrosoftYaHei-5b57" transform="translate(3186.947266 0)"/>
     <use xlink:href="#MicrosoftYaHei-8282" transform="translate(3286.947266 0)"/>
     <use xlink:href="#MicrosoftYaHei-6570" transform="translate(3386.947266 0)"/>
    </g>
   </g>
   <g id="text_3">
    <!-- 准备 -->
    <g style="fill: #203349" transform="translate(208.2 142.831659) scale(0.15 -0.15)">
     <defs>
      <path id="MicrosoftYaHei-51c6" d="M 1413 2766
Q 2313 3866 2869 5334
L 3331 5172
Q 3128 4694 2906 4253
L 6194 4253
L 6194 3822
L 4675 3822
L 4675 2891
L 6025 2891
L 6025 2459
L 4675 2459
L 4675 1528
L 6038 1528
L 6038 1097
L 4675 1097
L 4675 78
L 6275 78
L 6275 -341
L 2769 -341
L 2769 -841
L 2281 -841
L 2281 3131
Q 2034 2738 1769 2384
Q 1631 2578 1413 2766
z
M 2769 78
L 4188 78
L 4188 1097
L 2769 1097
L 2769 78
z
M 1081 2422
Q 1325 2291 1556 2209
Q 1113 916 681 -372
L 169 -141
Q 650 1003 1081 2422
z
M 2769 1528
L 4188 1528
L 4188 2459
L 2769 2459
L 2769 1528
z
M 2769 2891
L 4188 2891
L 4188 3822
L 2769 3822
L 2769 2891
z
M 531 4991
Q 1050 4384 1581 3709
Q 1538 3678 1150 3341
Q 681 3997 138 4672
L 531 4991
z
M 3919 5116
L 4325 5372
Q 4569 5072 4881 4622
L 4450 4334
Q 4156 4784 3919 5116
z
" transform="scale(0.015625)"/>
      <path id="MicrosoftYaHei-5907" d="M 975 2097
L 5425 2097
L 5425 -816
L 4975 -816
L 4975 -541
L 1425 -541
L 1425 -816
L 975 -816
L 975 2097
z
M 1869 5403
L 2338 5203
Q 2200 4975 2041 4753
L 5425 4753
L 5425 4334
Q 4847 3638 3869 3119
Q 4903 2772 6338 2697
Q 6131 2403 5988 2172
Q 4372 2366 3278 2838
Q 2038 2306 281 2003
Q 169 2222 19 2453
Q 1569 2678 2719 3119
Q 1981 3547 1559 4138
Q 1094 3603 506 3109
Q 338 3297 163 3453
Q 1281 4353 1869 5403
z
M 4756 4341
L 1953 4341
Q 2456 3741 3275 3353
Q 4156 3772 4756 4341
z
M 1425 953
L 2975 953
L 2975 1722
L 1425 1722
L 1425 953
z
M 4975 1722
L 3425 1722
L 3425 953
L 4975 953
L 4975 1722
z
M 3425 -166
L 4975 -166
L 4975 597
L 3425 597
L 3425 -166
z
M 1425 -166
L 2975 -166
L 2975 597
L 1425 597
L 1425 -166
z
" transform="scale(0.015625)"/>
     </defs>
     <use xlink:href="#MicrosoftYaHei-51c6"/>
     <use xlink:href="#MicrosoftYaHei-5907" transform="translate(100 0)"/>
    </g>
   </g>
   <g id="text_4">
    <!-- 前向 -->
    <g style="fill: #203349" transform="translate(303.96 142.831659) scale(0.15 -0.15)">
     <defs>
      <path id="MicrosoftYaHei-524d" d="M 1038 -841
L 563 -841
L 563 3322
L 3300 3322
L 3300 -172
Q 3300 -784 2669 -772
Q 2406 -772 1950 -759
Q 1913 -516 1856 -297
Q 2238 -328 2563 -328
Q 2825 -334 2825 -72
L 2825 722
L 1038 722
L 1038 -841
z
M 150 4372
L 2169 4372
Q 1963 4697 1644 5078
L 2038 5347
Q 2425 4916 2663 4578
L 2353 4372
L 4063 4372
L 3813 4509
Q 4144 4916 4388 5359
L 4863 5084
Q 4575 4691 4284 4372
L 6263 4372
L 6263 3934
L 150 3934
L 150 4372
z
M 5331 3522
L 5819 3522
L 5819 28
Q 5819 -741 5094 -747
Q 4763 -753 4269 -741
Q 4238 -484 4181 -216
Q 4644 -266 4931 -266
Q 5331 -266 5331 141
L 5331 3522
z
M 4044 3222
L 4519 3222
L 4519 409
L 4044 409
L 4044 3222
z
M 2825 2897
L 1038 2897
L 1038 2228
L 2825 2228
L 2825 2897
z
M 1038 1141
L 2825 1141
L 2825 1809
L 1038 1809
L 1038 1141
z
" transform="scale(0.015625)"/>
     </defs>
     <use xlink:href="#MicrosoftYaHei-524d"/>
     <use xlink:href="#MicrosoftYaHei-5411" transform="translate(100 0)"/>
    </g>
   </g>
   <g id="text_5">
    <!-- 反向 -->
    <g style="fill: #203349" transform="translate(399.72 142.831659) scale(0.15 -0.15)">
     <defs>
      <path id="MicrosoftYaHei-53cd" d="M 881 4884
Q 3369 4903 5738 5191
L 5919 4691
Q 3750 4503 1369 4434
L 1369 3372
L 5638 3372
L 5638 2909
Q 5125 1525 4100 591
Q 5019 -25 6331 -247
Q 6106 -534 5938 -803
Q 4616 -422 3697 253
Q 2738 -475 1406 -878
Q 1263 -659 1063 -397
Q 2366 -44 3278 597
Q 2256 1525 1859 2909
L 1369 2909
L 1369 2553
Q 1369 334 413 -853
Q 250 -653 63 -453
Q 881 559 881 2553
L 881 4884
z
M 5050 2909
L 2366 2909
Q 2794 1678 3681 909
Q 4622 1722 5050 2909
z
" transform="scale(0.015625)"/>
     </defs>
     <use xlink:href="#MicrosoftYaHei-53cd"/>
     <use xlink:href="#MicrosoftYaHei-5411" transform="translate(100 0)"/>
    </g>
   </g>
   <g id="text_6">
    <!-- step -->
    <g style="fill: #203349" transform="translate(495.233906 142.831659) scale(0.15 -0.15)">
     <defs>
      <path id="MicrosoftYaHei-73" d="M 353 747
Q 816 413 1350 413
Q 2066 413 2066 881
Q 2066 1081 1909 1211
Q 1753 1341 1275 1519
Q 700 1750 528 1976
Q 356 2203 356 2525
Q 356 2984 745 3261
Q 1134 3538 1703 3538
Q 2144 3538 2522 3384
L 2522 2794
Q 2134 3044 1644 3044
Q 1350 3044 1165 2916
Q 981 2788 981 2578
Q 981 2372 1114 2256
Q 1247 2141 1703 1959
Q 2281 1744 2484 1512
Q 2688 1281 2688 941
Q 2688 466 2298 192
Q 1909 -81 1291 -81
Q 753 -81 353 122
L 353 747
z
" transform="scale(0.015625)"/>
      <path id="MicrosoftYaHei-74" d="M 2206 34
Q 2006 -75 1666 -75
Q 738 -75 738 953
L 738 2950
L 144 2950
L 144 3456
L 738 3456
L 738 4288
L 1347 4481
L 1347 3456
L 2206 3456
L 2206 2950
L 1347 2950
L 1347 1063
Q 1347 722 1462 575
Q 1578 428 1847 428
Q 2053 428 2206 544
L 2206 34
z
" transform="scale(0.015625)"/>
      <path id="MicrosoftYaHei-65" d="M 3363 1572
L 944 1572
Q 959 1019 1246 717
Q 1534 416 2050 416
Q 2631 416 3116 788
L 3116 241
Q 2659 -81 1906 -81
Q 1156 -81 736 394
Q 316 869 316 1713
Q 316 2506 777 3022
Q 1238 3538 1922 3538
Q 2600 3538 2981 3102
Q 3363 2666 3363 1881
L 3363 1572
z
M 2750 2063
Q 2747 2531 2528 2787
Q 2309 3044 1913 3044
Q 1547 3044 1280 2772
Q 1013 2500 944 2063
L 2750 2063
z
" transform="scale(0.015625)"/>
      <path id="MicrosoftYaHei-70" d="M 1159 488
L 1159 -1591
L 547 -1591
L 547 3456
L 1159 3456
L 1159 2859
L 1172 2859
Q 1578 3538 2359 3538
Q 3022 3538 3398 3073
Q 3775 2609 3775 1828
Q 3775 966 3348 442
Q 2922 -81 2200 -81
Q 1534 -81 1172 488
L 1159 488
z
M 1156 1425
Q 1156 1003 1428 714
Q 1700 425 2109 425
Q 2597 425 2872 800
Q 3147 1175 3147 1838
Q 3147 2397 2890 2714
Q 2634 3031 2191 3031
Q 1738 3031 1447 2709
Q 1156 2388 1156 1884
L 1156 1425
z
" transform="scale(0.015625)"/>
     </defs>
     <use xlink:href="#MicrosoftYaHei-73"/>
     <use xlink:href="#MicrosoftYaHei-74" transform="translate(46.289062 0)"/>
     <use xlink:href="#MicrosoftYaHei-65" transform="translate(82.669922 0)"/>
     <use xlink:href="#MicrosoftYaHei-70" transform="translate(139.408203 0)"/>
    </g>
   </g>
   <g id="text_7">
    <!-- 清理后 -->
    <g style="fill: #203349" transform="translate(590.58 142.831659) scale(0.15 -0.15)">
     <defs>
      <path id="MicrosoftYaHei-6e05" d="M 2638 -791
L 2163 -791
L 2163 2378
L 5856 2378
L 5856 -78
Q 5856 -741 5188 -741
L 4150 -741
Q 4119 -541 4056 -259
Q 4638 -297 5000 -297
Q 5381 -297 5381 28
L 5381 341
L 2638 341
L 2638 -791
z
M 1719 3153
L 3775 3153
L 3775 3578
L 2138 3578
L 2138 3972
L 3775 3972
L 3775 4397
L 1925 4397
L 1925 4791
L 3775 4791
L 3775 5353
L 4256 5353
L 4256 4791
L 6206 4791
L 6206 4397
L 4256 4397
L 4256 3972
L 6038 3972
L 6038 3578
L 4256 3578
L 4256 3153
L 6319 3153
L 6319 2759
L 1719 2759
L 1719 3153
z
M 288 -609
Q 663 553 931 1809
Q 1206 1691 1438 1616
Q 1138 453 838 -778
L 288 -609
z
M 5381 1978
L 2638 1978
L 2638 1547
L 5381 1547
L 5381 1978
z
M 2638 728
L 5381 728
L 5381 1159
L 2638 1159
L 2638 728
z
M 81 3247
L 400 3603
Q 981 3209 1481 2797
Q 1250 2541 1113 2397
Q 544 2903 81 3247
z
M 325 4878
L 650 5209
Q 1063 4897 1725 4328
Q 1513 4122 1350 3959
Q 706 4566 325 4878
z
" transform="scale(0.015625)"/>
      <path id="MicrosoftYaHei-7406" d="M 2031 -166
L 3988 -166
L 3988 734
L 2394 734
L 2394 1172
L 3988 1172
L 3988 1997
L 2988 1997
L 2988 1766
L 2525 1766
L 2525 4991
L 5913 4991
L 5913 1766
L 5450 1766
L 5450 1997
L 4450 1997
L 4450 1172
L 6044 1172
L 6044 734
L 4450 734
L 4450 -166
L 6319 -166
L 6319 -603
L 2031 -603
L 2031 -166
z
M 44 203
Q 525 319 975 434
L 975 2328
L 194 2328
L 194 2766
L 975 2766
L 975 4328
L 131 4328
L 131 4766
L 2281 4766
L 2281 4328
L 1438 4328
L 1438 2766
L 2231 2766
L 2231 2328
L 1438 2328
L 1438 559
Q 1850 675 2238 791
Q 2269 509 2306 303
Q 1238 16 213 -303
L 44 203
z
M 4450 2422
L 5450 2422
L 5450 3291
L 4450 3291
L 4450 2422
z
M 2988 2422
L 3988 2422
L 3988 3291
L 2988 3291
L 2988 2422
z
M 5450 4566
L 4450 4566
L 4450 3703
L 5450 3703
L 5450 4566
z
M 2988 3703
L 3988 3703
L 3988 4566
L 2988 4566
L 2988 3703
z
" transform="scale(0.015625)"/>
      <path id="MicrosoftYaHei-540e" d="M 1888 1984
L 5688 1984
L 5688 -828
L 5188 -828
L 5188 -403
L 2388 -403
L 2388 -828
L 1888 -828
L 1888 1984
z
M 1313 2991
Q 1313 1272 1138 672
Q 963 -16 394 -847
Q 250 -634 50 -409
Q 494 222 650 859
Q 806 1472 806 2659
L 806 4766
Q 3544 4853 5631 5141
L 5931 4622
Q 3344 4359 1313 4284
L 1313 3459
L 6263 3459
L 6263 2991
L 1313 2991
z
M 5188 1528
L 2388 1528
L 2388 41
L 5188 41
L 5188 1528
z
" transform="scale(0.015625)"/>
     </defs>
     <use xlink:href="#MicrosoftYaHei-6e05"/>
     <use xlink:href="#MicrosoftYaHei-7406" transform="translate(100 0)"/>
     <use xlink:href="#MicrosoftYaHei-540e" transform="translate(200 0)"/>
    </g>
   </g>
   <g id="text_8">
    <!-- 参数 -->
    <g style="fill: #203349" transform="translate(38.52 198.127659) scale(0.15 -0.15)">
     <defs>
      <path id="MicrosoftYaHei-53c2" d="M 256 3159
L 2234 3159
Q 2428 3391 2600 3641
Q 2031 3609 1469 3578
Q 1288 3566 988 3522
L 825 4003
Q 1144 4091 1400 4291
Q 1944 4697 2606 5372
L 3100 5109
Q 2394 4497 1738 4034
Q 2906 4066 4397 4122
Q 4072 4388 3744 4628
L 4050 4947
Q 5006 4278 5606 3772
L 5256 3397
Q 5053 3575 4853 3747
Q 3778 3700 2719 3647
L 3069 3497
Q 2944 3322 2813 3159
L 6144 3159
L 6144 2741
L 4353 2741
Q 5128 1941 6325 1578
Q 6119 1297 6000 1109
Q 4644 1697 3828 2741
L 2453 2741
Q 1550 1750 363 1116
Q 231 1328 56 1509
Q 1091 2009 1841 2741
L 256 2741
L 256 3159
z
M 4969 1016
L 5313 697
Q 3525 -509 1019 -891
Q 906 -666 781 -478
Q 3331 -59 4969 1016
z
M 4231 1703
L 4525 1353
Q 2813 391 1119 47
Q 988 341 913 466
Q 2694 828 4231 1703
z
M 3556 2453
L 3863 2128
Q 2694 1397 1388 1009
Q 1288 1216 1150 1422
Q 2344 1734 3556 2453
z
" transform="scale(0.015625)"/>
     </defs>
     <use xlink:href="#MicrosoftYaHei-53c2"/>
     <use xlink:href="#MicrosoftYaHei-6570" transform="translate(100 0)"/>
    </g>
   </g>
   <g id="text_9">
    <!-- 反向保存值 -->
    <g style="fill: #203349" transform="translate(38.52 264.482859) scale(0.15 -0.15)">
     <defs>
      <path id="MicrosoftYaHei-4fdd" d="M 2263 5003
L 5750 5003
L 5750 2647
L 5275 2647
L 5275 2884
L 4225 2884
L 4225 2041
L 6288 2041
L 6288 1616
L 4588 1616
Q 5163 659 6338 109
Q 6144 -159 6025 -353
Q 4850 359 4225 1572
L 4225 -847
L 3769 -847
L 3769 1597
Q 3013 234 1875 -478
Q 1731 -303 1525 -97
Q 2638 516 3331 1616
L 1694 1616
L 1694 2041
L 3769 2041
L 3769 2884
L 2738 2884
L 2738 2603
L 2263 2603
L 2263 5003
z
M 69 2247
Q 906 3497 1369 5278
L 1831 5141
Q 1575 4316 1275 3597
L 1275 -816
L 825 -816
L 825 2653
Q 556 2159 263 1734
Q 175 1997 69 2247
z
M 5275 4584
L 2738 4584
L 2738 3303
L 5275 3303
L 5275 4584
z
" transform="scale(0.015625)"/>
      <path id="MicrosoftYaHei-5b58" d="M 169 4641
L 1925 4641
Q 2053 4991 2163 5359
L 2675 5228
Q 2578 4928 2472 4641
L 6275 4641
L 6275 4178
L 2291 4178
Q 1963 3384 1563 2709
L 1563 -797
L 1081 -797
L 1081 1984
Q 747 1528 369 1141
Q 244 1359 69 1591
Q 1113 2688 1744 4178
L 169 4178
L 169 4641
z
M 1838 1791
L 3994 1791
L 3994 2203
Q 4656 2628 5156 3047
L 2256 3047
L 2256 3503
L 5869 3503
L 5869 2997
Q 5231 2491 4475 1978
L 4475 1791
L 6319 1791
L 6319 1334
L 4475 1334
L 4475 -72
Q 4475 -784 3763 -784
Q 3425 -784 2856 -766
Q 2825 -528 2775 -259
Q 3375 -322 3663 -322
Q 3994 -322 3994 9
L 3994 1334
L 1838 1334
L 1838 1791
z
" transform="scale(0.015625)"/>
      <path id="MicrosoftYaHei-503c" d="M 1619 -216
L 2250 -216
L 2250 3653
L 3725 3653
L 3725 4222
L 1913 4222
L 1913 4647
L 3725 4647
L 3725 5309
L 4200 5309
L 4200 4647
L 6169 4647
L 6169 4222
L 4200 4222
L 4200 3653
L 5713 3653
L 5713 -216
L 6306 -216
L 6306 -641
L 1619 -641
L 1619 -216
z
M 69 2247
Q 906 3497 1369 5278
L 1831 5141
Q 1581 4334 1288 3628
L 1288 -816
L 831 -816
L 831 2666
Q 563 2166 263 1734
Q 175 1997 69 2247
z
M 2713 -216
L 5250 -216
L 5250 353
L 2713 353
L 2713 -216
z
M 5250 3241
L 2713 3241
L 2713 2678
L 5250 2678
L 5250 3241
z
M 2713 1716
L 5250 1716
L 5250 2278
L 2713 2278
L 2713 1716
z
M 2713 753
L 5250 753
L 5250 1316
L 2713 1316
L 2713 753
z
" transform="scale(0.015625)"/>
     </defs>
     <use xlink:href="#MicrosoftYaHei-53cd"/>
     <use xlink:href="#MicrosoftYaHei-5411" transform="translate(100 0)"/>
     <use xlink:href="#MicrosoftYaHei-4fdd" transform="translate(200 0)"/>
     <use xlink:href="#MicrosoftYaHei-5b58" transform="translate(300 0)"/>
     <use xlink:href="#MicrosoftYaHei-503c" transform="translate(400 0)"/>
    </g>
   </g>
   <g id="text_10">
    <!-- 参数梯度 -->
    <g style="fill: #203349" transform="translate(38.52 330.838059) scale(0.15 -0.15)">
     <defs>
      <path id="MicrosoftYaHei-68af" d="M 4988 5328
L 5438 5103
Q 5150 4684 4894 4347
L 5863 4347
L 5863 2566
L 5413 2566
L 5413 2741
L 4338 2741
L 4338 1953
L 6206 1953
Q 6106 934 6038 491
Q 5950 -72 5250 -72
Q 4931 -72 4538 -16
Q 4500 284 4450 503
Q 4894 416 5150 403
Q 5513 384 5575 584
Q 5656 947 5713 1541
L 4338 1541
L 4338 -859
L 3888 -859
L 3888 1197
Q 3156 234 2044 -416
Q 1888 -209 1706 -28
Q 2938 584 3694 1541
L 2319 1541
L 2525 3153
L 3888 3153
L 3888 3934
L 2431 3934
L 2431 4347
L 3300 4347
Q 3094 4728 2819 5097
L 3200 5328
Q 3494 4947 3719 4578
L 3356 4347
L 4356 4347
Q 4675 4809 4988 5328
z
M 75 1378
Q 731 2397 1000 3584
L 175 3584
L 175 4022
L 1013 4022
L 1013 5297
L 1463 5297
L 1463 4022
L 2188 4022
L 2188 3584
L 1463 3584
L 1463 2984
L 1650 3166
Q 1981 2847 2325 2484
L 2000 2178
Q 1688 2559 1463 2784
L 1463 -859
L 1013 -859
L 1013 2434
Q 700 1416 275 828
Q 194 1097 75 1378
z
M 5413 3934
L 4338 3934
L 4338 3153
L 5413 3153
L 5413 3934
z
M 2819 1953
L 3888 1953
L 3888 2741
L 2913 2741
L 2819 1953
z
" transform="scale(0.015625)"/>
      <path id="MicrosoftYaHei-5ea6" d="M 1550 1216
L 1550 1628
L 5469 1628
L 5469 1222
Q 4903 613 4147 163
Q 5050 -200 6263 -309
L 6019 -797
Q 4625 -603 3644 -109
Q 2600 -619 1250 -866
Q 1150 -666 994 -416
Q 2231 -222 3166 166
Q 2497 600 2066 1216
L 1550 1216
z
M 1363 3541
L 2294 3541
L 2294 4066
L 2769 4066
L 2769 3541
L 4538 3541
L 4538 4072
L 5013 4072
L 5013 3541
L 6150 3541
L 6150 3128
L 5013 3128
L 5013 1928
L 4538 1928
L 4538 2147
L 2769 2147
L 2769 1922
L 2294 1922
L 2294 3128
L 1363 3128
L 1363 3541
z
M 3025 5172
L 3481 5391
Q 3694 5056 3909 4634
L 6213 4634
L 6213 4197
L 1225 4197
L 1225 2316
Q 1225 178 394 -872
Q 238 -666 38 -447
Q 725 397 738 2347
L 738 4634
L 3331 4634
Q 3188 4909 3025 5172
z
M 2769 2547
L 4538 2547
L 4538 3128
L 2769 3128
L 2769 2547
z
M 4819 1216
L 2588 1216
Q 3031 728 3656 391
Q 4334 741 4819 1216
z
" transform="scale(0.015625)"/>
     </defs>
     <use xlink:href="#MicrosoftYaHei-53c2"/>
     <use xlink:href="#MicrosoftYaHei-6570" transform="translate(100 0)"/>
     <use xlink:href="#MicrosoftYaHei-68af" transform="translate(200 0)"/>
     <use xlink:href="#MicrosoftYaHei-5ea6" transform="translate(300 0)"/>
    </g>
   </g>
   <g id="text_11">
    <!-- Adam 统计 -->
    <g style="fill: #203349" transform="translate(38.52 397.193259) scale(0.15 -0.15)">
     <defs>
      <path id="MicrosoftYaHei-41" d="M 4428 0
L 3738 0
L 3244 1325
L 1228 1325
L 763 0
L 72 0
L 1916 4841
L 2584 4841
L 4428 0
z
M 3050 1872
L 2319 3884
Q 2284 3981 2244 4222
L 2228 4222
Q 2194 4003 2150 3884
L 1425 1872
L 3050 1872
z
" transform="scale(0.015625)"/>
      <path id="MicrosoftYaHei-6d" d="M 5522 0
L 4909 0
L 4909 1984
Q 4909 2547 4734 2789
Q 4559 3031 4159 3031
Q 3822 3031 3581 2715
Q 3341 2400 3341 1969
L 3341 0
L 2728 0
L 2728 2047
Q 2728 3031 1969 3031
Q 1619 3031 1389 2731
Q 1159 2431 1159 1966
L 1159 0
L 547 0
L 547 3456
L 1159 3456
L 1159 2909
L 1172 2909
Q 1541 3538 2250 3538
Q 2597 3538 2862 3347
Q 3128 3156 3231 2831
Q 3616 3538 4381 3538
Q 5522 3538 5522 2131
L 5522 0
z
" transform="scale(0.015625)"/>
      <path id="MicrosoftYaHei-7edf" d="M 5100 3641
Q 5625 2934 6175 2047
Q 5956 1922 5713 1766
Q 5556 2031 5413 2275
Q 5122 2256 4813 2241
L 4813 122
Q 4813 -259 5094 -259
L 5400 -259
Q 5706 -259 5750 53
Q 5800 428 5813 866
Q 6019 778 6313 684
Q 6263 141 6206 -159
Q 6119 -703 5550 -703
L 5013 -703
Q 4331 -703 4331 78
L 4331 2213
Q 3981 2194 3606 2169
Q 3556 809 3256 272
Q 2900 -416 1925 -866
Q 1788 -672 1606 -447
Q 2513 -78 2819 522
Q 3100 1000 3122 2138
Q 2994 2128 2863 2122
Q 2594 2097 2363 2041
L 2150 2528
Q 2419 2641 2581 2828
Q 3050 3388 3463 4047
L 2100 4047
L 2100 4491
L 4094 4491
Q 3859 4850 3650 5128
L 4063 5384
Q 4300 5091 4594 4684
L 4297 4491
L 6200 4491
L 6200 4047
L 3663 4047
L 4006 3897
Q 3488 3197 2988 2609
Q 4166 2650 5153 2694
Q 4916 3075 4700 3391
L 5100 3641
z
M 894 1534
Q 1394 1603 2175 1722
Q 2138 1472 2113 1259
Q 1331 1153 325 991
L 225 1441
Q 616 1841 1153 2744
Q 503 2700 219 2678
L 100 3103
Q 650 3828 1288 5316
L 1763 5128
Q 1156 3941 656 3141
Q 1066 3147 1394 3159
Q 1581 3494 1788 3884
L 2256 3678
Q 1544 2434 894 1534
z
M 81 222
Q 1119 422 2225 672
Q 2200 347 2200 222
Q 1069 -28 225 -253
L 81 222
z
" transform="scale(0.015625)"/>
      <path id="MicrosoftYaHei-8ba1" d="M 2100 3153
L 3919 3153
L 3919 5303
L 4456 5303
L 4456 3153
L 6288 3153
L 6288 2703
L 4456 2703
L 4456 -822
L 3919 -822
L 3919 2703
L 2100 2703
L 2100 3153
z
M 2675 903
Q 2694 578 2719 359
Q 1719 -266 1069 -728
L 769 -303
Q 988 -116 988 266
L 988 2741
L 100 2741
L 100 3191
L 1488 3191
L 1488 153
Q 2031 484 2675 903
z
M 738 5222
Q 1419 4522 1725 4184
L 1288 3816
Q 894 4334 356 4891
L 738 5222
z
" transform="scale(0.015625)"/>
     </defs>
     <use xlink:href="#MicrosoftYaHei-41"/>
     <use xlink:href="#MicrosoftYaHei-64" transform="translate(70.361328 0)"/>
     <use xlink:href="#MicrosoftYaHei-61" transform="translate(134.326172 0)"/>
     <use xlink:href="#MicrosoftYaHei-6d" transform="translate(189.599609 0)"/>
     <use xlink:href="#MicrosoftYaHei-20" transform="translate(283.300781 0)"/>
     <use xlink:href="#MicrosoftYaHei-7edf" transform="translate(312.890625 0)"/>
     <use xlink:href="#MicrosoftYaHei-8ba1" transform="translate(412.890625 0)"/>
    </g>
   </g>
   <g id="text_12">
    <!-- 去掉最后引用 → 可释放活对象 -->
    <g style="fill: #203349" transform="translate(203.296875 474.332269) scale(0.14 -0.14)">
     <defs>
      <path id="MicrosoftYaHei-53bb" d="M 163 2372
L 2938 2372
L 2938 3784
L 675 3784
L 675 4259
L 2938 4259
L 2938 5353
L 3481 5353
L 3481 4259
L 5788 4259
L 5788 3784
L 3481 3784
L 3481 2372
L 6281 2372
L 6281 1897
L 3188 1897
Q 2506 944 1656 -28
Q 2366 -9 4803 69
Q 4388 625 3925 1203
L 4319 1478
Q 5163 484 5944 -553
L 5481 -866
Q 5300 -606 5106 -341
Q 3009 -409 1475 -528
Q 1294 -547 938 -628
L 669 -109
Q 981 -3 1188 203
Q 1859 919 2506 1897
L 163 1897
L 163 2372
z
" transform="scale(0.015625)"/>
      <path id="MicrosoftYaHei-6389" d="M 1888 709
L 3850 709
L 3850 1391
L 2838 1391
L 2838 1147
L 2375 1147
L 2375 3797
L 3775 3797
L 3775 5322
L 4250 5322
L 4250 4728
L 6188 4728
L 6188 4316
L 4250 4316
L 4250 3797
L 5856 3797
L 5856 1147
L 5394 1147
L 5394 1391
L 4325 1391
L 4325 709
L 6313 709
L 6313 284
L 4325 284
L 4325 -847
L 3850 -847
L 3850 284
L 1888 284
L 1888 709
z
M 88 1966
Q 509 2066 938 2169
L 938 3684
L 150 3684
L 150 4103
L 938 4103
L 938 5316
L 1413 5316
L 1413 4103
L 2119 4103
L 2119 3684
L 1413 3684
L 1413 2288
Q 1769 2378 2125 2472
Q 2113 2159 2106 1972
Q 1756 1881 1413 1791
L 1413 -66
Q 1413 -709 788 -734
Q 563 -741 219 -741
Q 194 -516 138 -241
Q 463 -266 638 -266
Q 938 -266 938 41
L 938 1666
Q 522 1556 119 1447
L 88 1966
z
M 2838 1791
L 5394 1791
L 5394 2403
L 2838 2403
L 2838 1791
z
M 5394 3397
L 2838 3397
L 2838 2791
L 5394 2791
L 5394 3397
z
" transform="scale(0.015625)"/>
      <path id="MicrosoftYaHei-6700" d="M 169 -28
Q 475 3 781 38
L 781 2416
L 94 2416
L 94 2791
L 6288 2791
L 6288 2416
L 3025 2416
L 3025 331
Q 3325 375 3625 422
Q 3619 309 3631 22
Q 3338 -19 3025 -63
L 3025 -859
L 2600 -859
L 2600 -125
Q 1525 -278 281 -472
L 169 -28
z
M 1038 5053
L 5363 5053
L 5363 3047
L 4925 3047
L 4925 3191
L 1475 3191
L 1475 3047
L 1038 3047
L 1038 5053
z
M 3338 1609
L 3338 1972
L 5819 1972
L 5819 1609
Q 5500 844 4981 278
Q 5516 -113 6306 -316
Q 6144 -553 6025 -753
Q 5219 -488 4666 -34
Q 4128 -516 3413 -822
Q 3306 -634 3125 -428
Q 3834 -156 4347 266
Q 3825 825 3603 1609
L 3338 1609
z
M 1475 3553
L 4925 3553
L 4925 3953
L 1475 3953
L 1475 3553
z
M 4925 4691
L 1475 4691
L 1475 4291
L 4925 4291
L 4925 4691
z
M 5344 1609
L 4025 1609
Q 4222 994 4659 556
Q 5094 1013 5344 1609
z
M 2600 269
L 2600 691
L 1206 691
L 1206 88
Q 1913 172 2600 269
z
M 1206 1916
L 2600 1916
L 2600 2416
L 1206 2416
L 1206 1916
z
M 1206 1053
L 2600 1053
L 2600 1553
L 1206 1553
L 1206 1053
z
" transform="scale(0.015625)"/>
      <path id="MicrosoftYaHei-2192" d="M 4859 3766
Q 5241 3344 5514 3125
Q 5788 2906 6150 2713
L 6150 2572
Q 5788 2381 5517 2164
Q 5247 1947 4859 1519
L 4622 1519
Q 4766 1822 4866 1983
Q 4966 2144 5141 2369
L 247 2369
L 247 2916
L 5141 2916
Q 4972 3131 4869 3298
Q 4766 3466 4622 3766
L 4859 3766
z
" transform="scale(0.015625)"/>
      <path id="MicrosoftYaHei-53ef" d="M 813 3409
L 3569 3409
L 3569 941
L 1306 941
L 1306 497
L 813 497
L 813 3409
z
M 119 4809
L 6294 4809
L 6294 4334
L 5256 4334
L 5256 103
Q 5256 -741 4438 -747
Q 3850 -747 3294 -741
Q 3263 -453 3194 -172
Q 3900 -222 4269 -222
Q 4731 -222 4731 278
L 4731 4334
L 119 4334
L 119 4809
z
M 3075 2966
L 1306 2966
L 1306 1384
L 3075 1384
L 3075 2966
z
" transform="scale(0.015625)"/>
      <path id="MicrosoftYaHei-91ca" d="M 2806 4559
L 2806 4984
L 5944 4984
L 5944 4572
Q 5575 3828 4863 3284
Q 5475 2984 6319 2884
Q 6244 2741 6081 2391
Q 5119 2597 4444 3003
Q 3756 2584 2825 2316
Q 2769 2453 2594 2766
Q 3419 2978 4031 3284
Q 3394 3803 3100 4559
L 2806 4559
z
M 88 534
Q 744 1403 1113 2472
L 144 2472
L 144 2878
L 1213 2878
L 1213 4516
Q 719 4478 244 4447
Q 213 4659 156 4878
Q 1513 4953 2431 5084
L 2613 4634
Q 2125 4591 1656 4553
L 1656 2878
L 2544 2878
L 2544 2472
L 1656 2472
L 1656 1922
L 1925 2116
Q 2388 1659 2638 1366
L 2288 1053
Q 2050 1366 1656 1797
L 1656 -828
L 1213 -828
L 1213 1753
Q 838 791 281 34
Q 200 291 88 534
z
M 2556 697
L 4200 697
L 4200 1434
L 2844 1434
L 2844 1872
L 4200 1872
L 4200 2597
L 4669 2597
L 4669 1872
L 6050 1872
L 6050 1434
L 4669 1434
L 4669 697
L 6319 697
L 6319 259
L 4669 259
L 4669 -809
L 4200 -809
L 4200 259
L 2556 259
L 2556 697
z
M 5450 4559
L 3550 4559
Q 3863 3922 4444 3522
Q 5119 3966 5450 4559
z
M 1800 3197
Q 2113 3759 2294 4228
L 2700 4059
Q 2450 3503 2156 3016
L 1800 3197
z
M 188 4072
L 550 4234
Q 875 3609 1013 3247
L 600 3047
Q 394 3634 188 4072
z
" transform="scale(0.015625)"/>
      <path id="MicrosoftYaHei-653e" d="M 3956 5359
L 4456 5272
Q 4322 4681 4106 4128
L 6281 4128
L 6281 3666
L 5759 3666
Q 5638 1816 4884 725
Q 5447 25 6338 -353
Q 6131 -628 5994 -847
Q 5153 -394 4559 322
Q 3947 -356 3094 -903
Q 2950 -722 2738 -509
Q 3669 56 4259 731
Q 3713 1625 3563 2988
Q 3378 2669 3163 2366
Q 3031 2553 2850 2766
Q 3663 3884 3956 5359
z
M 156 4184
L 3169 4184
L 3169 3722
L 1400 3722
Q 1394 3166 1378 2703
L 2813 2703
Q 2750 1166 2694 241
Q 2638 -584 1981 -616
Q 1600 -622 1263 -609
Q 1225 -378 1156 -84
Q 1569 -128 1794 -128
Q 2175 -128 2206 347
Q 2269 1078 2306 2241
L 1359 2241
Q 1338 216 369 -853
Q 225 -641 38 -416
Q 625 247 750 1003
Q 909 1713 906 3722
L 156 3722
L 156 4184
z
M 5263 3666
L 3934 3666
Q 4034 2134 4584 1166
Q 5188 2131 5263 3666
z
M 1206 5141
L 1631 5366
Q 1900 4966 2144 4503
L 1706 4272
Q 1456 4753 1206 5141
z
" transform="scale(0.015625)"/>
      <path id="MicrosoftYaHei-6d3b" d="M 2219 1841
L 3769 1841
L 3769 2891
L 1800 2891
L 1800 3366
L 3769 3366
L 3769 4413
Q 3003 4375 2100 4341
Q 2056 4566 2006 4816
Q 4156 4872 6013 5072
L 6113 4578
Q 5356 4503 4275 4441
L 4275 3366
L 6313 3366
L 6313 2891
L 4275 2891
L 4275 1841
L 5825 1841
L 5825 -847
L 5338 -847
L 5338 -472
L 2706 -472
L 2706 -847
L 2219 -847
L 2219 1841
z
M 5338 1391
L 2706 1391
L 2706 -22
L 5338 -22
L 5338 1391
z
M 1019 1766
Q 1338 1597 1550 1516
Q 1181 341 831 -772
L 275 -516
Q 706 522 1019 1766
z
M 344 3616
Q 988 3228 1538 2816
Q 1350 2566 1194 2366
Q 500 2922 44 3216
L 344 3616
z
M 644 5241
Q 1244 4828 1769 4403
Q 1600 4191 1425 3978
Q 844 4484 331 4872
L 644 5241
z
" transform="scale(0.015625)"/>
      <path id="MicrosoftYaHei-5bf9" d="M 694 3691
Q 1234 2909 1741 2166
Q 2113 3081 2213 4147
L 250 4147
L 250 4622
L 2725 4622
L 2725 4166
Q 2553 2809 2059 1700
Q 2569 953 3044 247
L 2594 -53
Q 2203 563 1803 1181
Q 1247 163 388 -622
Q 263 -428 81 -166
Q 975 638 1500 1647
Q 919 2538 319 3434
L 694 3691
z
M 2975 3941
L 5056 3941
L 5056 5278
L 5563 5278
L 5563 3941
L 6325 3941
L 6325 3466
L 5563 3466
L 5563 191
Q 5563 -716 4669 -716
Q 4388 -716 3744 -709
Q 3713 -478 3644 -147
Q 4263 -197 4588 -197
Q 5056 -197 5056 278
L 5056 3466
L 2975 3466
L 2975 3941
z
M 3088 2684
L 3494 2928
Q 4000 2184 4388 1484
L 3919 1216
Q 3550 1922 3088 2684
z
" transform="scale(0.015625)"/>
      <path id="MicrosoftYaHei-8c61" d="M 5513 2209
L 5763 1791
Q 5209 1597 4609 1391
Q 5109 269 6319 -122
Q 6113 -378 5981 -541
Q 4819 -47 4213 1256
Q 4041 1200 3869 1141
Q 3981 781 3981 322
Q 3981 -797 2913 -797
Q 2525 -797 2088 -784
Q 2063 -628 1981 -303
Q 2438 -353 2825 -353
Q 3531 -353 3531 353
Q 3531 628 3484 847
Q 2553 -63 338 -703
Q 225 -516 88 -266
Q 2241 281 3338 1250
Q 3259 1397 3141 1547
Q 2275 778 425 228
Q 325 409 169 653
Q 1969 1125 2884 1834
Q 2775 1947 2644 2059
Q 1881 1534 338 1153
Q 256 1328 94 1597
Q 1847 1925 2509 2472
L 1181 2472
L 1181 2278
L 750 2278
L 750 3484
Q 534 3338 300 3191
Q 219 3397 88 3603
Q 1394 4341 2138 5347
L 2700 5278
Q 2534 5038 2313 4797
L 4888 4797
L 4888 4428
L 4278 3878
L 5825 3878
L 5825 2328
L 5394 2328
L 5394 2472
L 3106 2472
Q 3038 2388 2950 2306
Q 3459 1919 3709 1494
Q 4719 1819 5513 2209
z
M 4238 4409
L 1928 4409
Q 1644 4147 1294 3878
L 3684 3878
L 4238 4409
z
M 5394 3472
L 3575 3472
Q 3494 3138 3369 2878
L 5394 2878
L 5394 3472
z
M 1181 2878
L 2856 2878
Q 3009 3131 3094 3472
L 1181 3472
L 1181 2878
z
" transform="scale(0.015625)"/>
     </defs>
     <use xlink:href="#MicrosoftYaHei-53bb"/>
     <use xlink:href="#MicrosoftYaHei-6389" transform="translate(100 0)"/>
     <use xlink:href="#MicrosoftYaHei-6700" transform="translate(200 0)"/>
     <use xlink:href="#MicrosoftYaHei-540e" transform="translate(300 0)"/>
     <use xlink:href="#MicrosoftYaHei-5f15" transform="translate(400 0)"/>
     <use xlink:href="#MicrosoftYaHei-7528" transform="translate(500 0)"/>
     <use xlink:href="#MicrosoftYaHei-20" transform="translate(600 0)"/>
     <use xlink:href="#MicrosoftYaHei-2192" transform="translate(629.589844 0)"/>
     <use xlink:href="#MicrosoftYaHei-20" transform="translate(729.589844 0)"/>
     <use xlink:href="#MicrosoftYaHei-53ef" transform="translate(759.179688 0)"/>
     <use xlink:href="#MicrosoftYaHei-91ca" transform="translate(859.179688 0)"/>
     <use xlink:href="#MicrosoftYaHei-653e" transform="translate(959.179688 0)"/>
     <use xlink:href="#MicrosoftYaHei-6d3b" transform="translate(1059.179688 0)"/>
     <use xlink:href="#MicrosoftYaHei-5bf9" transform="translate(1159.179688 0)"/>
     <use xlink:href="#MicrosoftYaHei-8c61" transform="translate(1259.179688 0)"/>
    </g>
   </g>
   <g id="text_13">
    <!-- 空闲块可留在缓存池 -->
    <g style="fill: #203349" transform="translate(474.84 474.332269) scale(0.14 -0.14)">
     <defs>
      <path id="MicrosoftYaHei-7a7a" d="M 331 -34
L 2931 -34
L 2931 1603
L 975 1603
L 975 2078
L 5425 2078
L 5425 1603
L 3463 1603
L 3463 -34
L 6069 -34
L 6069 -509
L 331 -509
L 331 -34
z
M 369 4528
L 3084 4528
Q 2941 4800 2725 5141
L 3188 5366
Q 3444 4997 3631 4641
L 3403 4528
L 6038 4528
L 6038 3316
L 5525 3316
L 5525 4053
L 881 4053
L 881 3316
L 369 3316
L 369 4528
z
M 2381 3741
L 2750 3384
Q 1538 2434 469 1834
Q 275 2091 94 2241
Q 1319 2866 2381 3741
z
M 3988 3734
Q 5300 2953 6269 2259
L 5913 1828
Q 4969 2566 3688 3372
L 3988 3734
z
" transform="scale(0.015625)"/>
      <path id="MicrosoftYaHei-95f2" d="M 2388 4453
L 2388 4922
L 5994 4922
L 5994 22
Q 5994 -816 5088 -816
Q 4738 -816 4150 -803
Q 4125 -616 4050 -297
Q 4569 -334 5006 -334
Q 5506 -334 5506 116
L 5506 4453
L 2388 4453
z
M 1094 647
Q 2050 1378 2881 2703
L 1413 2703
L 1413 3147
L 2969 3147
L 2969 4009
L 3438 4009
L 3438 3147
L 5000 3147
L 5000 2703
L 3438 2703
L 3438 1903
L 3656 2122
Q 4456 1547 5150 941
L 4781 547
Q 4163 1197 3438 1722
L 3438 -184
L 2969 -184
L 2969 2053
Q 2225 922 1450 272
Q 1319 441 1094 647
z
M 419 4116
L 906 4116
L 906 -816
L 419 -816
L 419 4116
z
M 744 5003
L 1100 5322
Q 1444 4997 1981 4447
L 1575 4091
Q 1063 4678 744 5003
z
" transform="scale(0.015625)"/>
      <path id="MicrosoftYaHei-5757" d="M 2075 2147
L 3491 2147
Q 3566 2731 3569 3741
L 2444 3741
L 2444 4178
L 3572 4178
Q 3581 4813 3581 5284
L 4069 5284
Q 4069 4725 4066 4178
L 5606 4178
L 5606 2147
L 6238 2147
L 6238 1709
L 4131 1709
Q 4656 309 6163 -284
Q 5944 -503 5725 -772
Q 4291 16 3797 1375
Q 3375 103 1900 -853
Q 1713 -616 1531 -416
Q 3038 481 3400 1709
L 2075 1709
L 2075 2147
z
M 88 678
Q 531 791 994 913
L 994 3291
L 169 3291
L 169 3734
L 994 3734
L 994 5278
L 1463 5278
L 1463 3734
L 2294 3734
L 2294 3291
L 1463 3291
L 1463 1038
Q 1894 1153 2338 1278
Q 2350 1009 2369 791
Q 1344 516 231 178
L 88 678
z
M 3984 2147
L 5125 2147
L 5125 3741
L 4063 3741
Q 4047 2741 3984 2147
z
" transform="scale(0.015625)"/>
      <path id="MicrosoftYaHei-7559" d="M 825 2284
L 5594 2284
L 5594 -791
L 5125 -791
L 5125 -528
L 1294 -528
L 1294 -803
L 825 -803
L 825 2284
z
M 3131 4553
L 3131 4978
L 5931 4978
Q 5900 4166 5863 3478
Q 5794 2609 5050 2609
Q 4700 2609 4281 2628
Q 4244 2859 4188 3128
Q 4638 3059 4956 3059
Q 5356 3059 5400 3553
Q 5431 4047 5444 4553
L 4247 4553
Q 4250 3066 3119 2316
Q 2969 2503 2756 2672
Q 3788 3278 3781 4553
L 3131 4553
z
M 1869 4103
L 2244 4341
Q 2656 3809 3075 3159
L 2663 2891
Q 2550 3078 2431 3269
Q 1706 2975 1038 2678
Q 844 2578 700 2428
L 331 2853
Q 519 3059 519 3378
L 519 4903
Q 1613 4984 2744 5272
L 2919 4809
Q 2069 4634 981 4491
L 981 3191
Q 1563 3403 2188 3644
Q 2034 3872 1869 4103
z
M 3444 -103
L 5125 -103
L 5125 678
L 3444 678
L 3444 -103
z
M 1294 -103
L 2975 -103
L 2975 678
L 1294 678
L 1294 -103
z
M 5125 1859
L 3444 1859
L 3444 1097
L 5125 1097
L 5125 1859
z
M 1294 1097
L 2975 1097
L 2975 1859
L 1294 1859
L 1294 1097
z
" transform="scale(0.015625)"/>
      <path id="MicrosoftYaHei-5728" d="M 250 4553
L 2088 4553
Q 2241 4931 2363 5328
L 2881 5197
Q 2772 4869 2647 4553
L 6275 4553
L 6275 4091
L 2450 4091
Q 2078 3256 1581 2519
L 1581 -791
L 1094 -791
L 1094 1853
Q 756 1431 375 1047
Q 244 1266 75 1497
Q 1225 2691 1884 4091
L 250 4091
L 250 4553
z
M 1800 109
L 3756 109
L 3756 1978
L 2131 1978
L 2131 2428
L 3756 2428
L 3756 3684
L 4269 3684
L 4269 2428
L 5919 2428
L 5919 1978
L 4269 1978
L 4269 109
L 6275 109
L 6275 -328
L 1800 -328
L 1800 109
z
" transform="scale(0.015625)"/>
      <path id="MicrosoftYaHei-7f13" d="M 2150 2566
L 2981 2566
Q 3006 2819 3016 3091
L 2275 3091
L 2275 3478
L 4784 3478
Q 5081 3959 5363 4516
L 5800 4266
Q 5478 3778 5263 3478
L 6138 3478
L 6138 3091
L 3447 3091
Q 3441 2822 3416 2566
L 6238 2566
L 6238 2178
L 3369 2178
Q 3328 1922 3269 1678
L 5663 1678
L 5663 1297
Q 5244 616 4650 128
Q 5347 -241 6300 -322
Q 6175 -572 6069 -791
Q 5006 -641 4259 -156
Q 3544 -625 2613 -859
Q 2506 -666 2375 -447
Q 3231 -250 3881 122
Q 3409 528 3097 1100
Q 2741 106 2013 -603
Q 1938 -459 1744 -197
Q 2675 713 2928 2178
L 2150 2178
L 2150 2566
z
M 863 1641
Q 1481 1716 2100 1803
Q 2081 1609 2075 1359
Q 1069 1241 350 1122
L 244 1566
Q 625 1975 1184 2934
Q 503 2900 225 2853
L 138 3284
Q 606 3922 1138 5284
L 1625 5134
Q 1119 4091 663 3303
Q 1166 3313 1403 3319
Q 1619 3706 1856 4166
L 2294 3966
Q 1538 2622 863 1641
z
M 2325 4434
Q 2288 4647 2238 4878
Q 4194 4928 5994 5109
L 6081 4659
Q 4725 4534 2325 4434
z
M 5156 1291
L 3416 1291
Q 3756 734 4263 369
Q 4794 756 5156 1291
z
M 181 259
Q 894 422 2050 691
Q 2031 553 2031 228
Q 994 -16 300 -216
L 181 259
z
M 3769 4328
L 4163 4478
Q 4338 4153 4506 3703
L 4081 3547
Q 3963 3916 3769 4328
z
M 2519 4203
L 2881 4397
Q 3088 4116 3306 3722
L 2906 3503
Q 2706 3916 2519 4203
z
" transform="scale(0.015625)"/>
      <path id="MicrosoftYaHei-6c60" d="M 3763 5303
L 4250 5303
L 4250 3769
L 5919 4147
Q 5875 2766 5850 2228
Q 5825 1697 5656 1484
Q 5494 1284 5069 1284
Q 4875 1284 4575 1291
Q 4538 1534 4481 1809
Q 4788 1766 5050 1766
Q 5344 1766 5369 2234
Q 5394 2566 5413 3566
L 4250 3297
L 4250 509
L 3763 509
L 3763 3184
L 2688 2938
L 2688 353
Q 2688 -128 3169 -128
L 5125 -128
Q 5588 -128 5663 291
Q 5731 628 5794 1266
Q 6044 1166 6319 1084
Q 6244 509 6138 72
Q 5975 -603 5244 -603
L 3075 -603
Q 2200 -603 2200 272
L 2200 2825
L 1694 2709
L 1613 3172
L 2200 3303
L 2200 4572
L 2688 4572
L 2688 3416
L 3763 3659
L 3763 5303
z
M 994 1784
Q 1313 1616 1525 1534
Q 1194 472 819 -753
L 256 -503
Q 713 641 994 1784
z
M 700 5209
Q 1319 4728 1781 4328
Q 1563 4091 1406 3928
Q 938 4384 375 4866
L 700 5209
z
M 400 3603
Q 975 3191 1481 2759
Q 1250 2484 1119 2347
Q 650 2778 88 3241
L 400 3603
z
" transform="scale(0.015625)"/>
     </defs>
     <use xlink:href="#MicrosoftYaHei-7a7a"/>
     <use xlink:href="#MicrosoftYaHei-95f2" transform="translate(100 0)"/>
     <use xlink:href="#MicrosoftYaHei-5757" transform="translate(200 0)"/>
     <use xlink:href="#MicrosoftYaHei-53ef" transform="translate(300 0)"/>
     <use xlink:href="#MicrosoftYaHei-7559" transform="translate(400 0)"/>
     <use xlink:href="#MicrosoftYaHei-5728" transform="translate(500 0)"/>
     <use xlink:href="#MicrosoftYaHei-7f13" transform="translate(600 0)"/>
     <use xlink:href="#MicrosoftYaHei-5b58" transform="translate(700 0)"/>
     <use xlink:href="#MicrosoftYaHei-6c60" transform="translate(800 0)"/>
    </g>
   </g>
   <g id="text_14">
    <!-- allocated 统计 Tensor 占用；reserved 包含缓存；重置峰值不等于释放内存。 -->
    <g style="fill: #203349" transform="translate(31.68 540.687469) scale(0.14 -0.14)">
     <defs>
      <path id="MicrosoftYaHei-6c" d="M 544 0
L 544 5116
L 1156 5116
L 1156 0
L 544 0
z
" transform="scale(0.015625)"/>
      <path id="MicrosoftYaHei-6f" d="M 316 1691
Q 316 2547 794 3042
Q 1272 3538 2091 3538
Q 2869 3538 3311 3061
Q 3753 2584 3753 1744
Q 3753 925 3281 422
Q 2809 -81 2016 -81
Q 1241 -81 778 406
Q 316 894 316 1691
z
M 941 1709
Q 941 1113 1242 769
Q 1544 425 2053 425
Q 2578 425 2853 761
Q 3128 1097 3128 1725
Q 3128 2356 2853 2693
Q 2578 3031 2053 3031
Q 1538 3031 1239 2678
Q 941 2325 941 1709
z
" transform="scale(0.015625)"/>
      <path id="MicrosoftYaHei-54" d="M 3550 4284
L 2153 4284
L 2153 0
L 1525 0
L 1525 4284
L 134 4284
L 134 4841
L 3550 4841
L 3550 4284
z
" transform="scale(0.015625)"/>
      <path id="MicrosoftYaHei-6e" d="M 3469 0
L 2859 0
L 2859 1966
Q 2859 3031 2081 3031
Q 1678 3031 1418 2731
Q 1159 2431 1159 1972
L 1159 0
L 547 0
L 547 3456
L 1159 3456
L 1159 2884
L 1172 2884
Q 1563 3538 2306 3538
Q 2875 3538 3172 3173
Q 3469 2809 3469 2113
L 3469 0
z
" transform="scale(0.015625)"/>
      <path id="MicrosoftYaHei-5360" d="M 863 2434
L 2775 2434
L 2775 5259
L 3288 5259
L 3288 4209
L 6150 4209
L 6150 3747
L 3288 3747
L 3288 2434
L 5525 2434
L 5525 -841
L 5025 -841
L 5025 -453
L 1363 -453
L 1363 -853
L 863 -853
L 863 2434
z
M 5025 1984
L 1363 1984
L 1363 -9
L 5025 -9
L 5025 1984
z
" transform="scale(0.015625)"/>
      <path id="MicrosoftYaHei-76" d="M 3331 3456
L 1963 0
L 1344 0
L 44 3456
L 713 3456
L 1556 988
Q 1659 691 1678 491
L 1694 491
Q 1725 753 1803 975
L 2688 3456
L 3331 3456
z
" transform="scale(0.015625)"/>
      <path id="MicrosoftYaHei-5305" d="M 1663 5334
L 2175 5197
Q 2038 4872 1888 4566
L 5488 4566
Q 5463 2334 5388 1478
Q 5313 441 4356 447
Q 4106 447 3469 472
Q 3431 709 3369 991
Q 3888 941 4288 941
Q 4856 934 4900 1547
Q 4969 2341 4988 4116
L 1656 4116
Q 1438 3716 1188 3347
L 3788 3347
L 3788 1522
L 1525 1522
L 1525 347
Q 1525 -147 2044 -147
L 4956 -147
Q 5550 -147 5650 234
Q 5744 578 5800 1153
Q 6069 1047 6300 972
Q 6225 416 6138 66
Q 5981 -628 5075 -628
L 1938 -628
Q 1025 -628 1025 259
L 1025 3103
Q 719 2684 375 2309
Q 231 2559 63 2747
Q 1150 3928 1663 5334
z
M 3300 2922
L 1525 2922
L 1525 1947
L 3300 1947
L 3300 2922
z
" transform="scale(0.015625)"/>
      <path id="MicrosoftYaHei-542b" d="M 975 1572
L 5438 1572
L 5438 -822
L 4950 -822
L 4950 -478
L 1463 -478
L 1463 -834
L 975 -834
L 975 1572
z
M 1188 2622
L 1188 3053
L 4950 3053
L 4950 2622
Q 4550 2147 3981 1628
Q 3800 1784 3594 1922
Q 3981 2228 4350 2622
L 1188 2622
z
M 2631 3872
L 2975 4134
Q 3288 3809 3619 3422
L 3244 3128
Q 2975 3484 2631 3872
z
M 3663 5291
L 3519 5134
Q 4525 3909 6313 3259
Q 6100 2991 5988 2778
Q 4094 3622 3206 4834
Q 2050 3516 369 2672
Q 244 2903 81 3109
Q 1838 3934 2981 5291
L 3663 5291
z
M 4950 -34
L 4950 1128
L 1463 1128
L 1463 -34
L 4950 -34
z
" transform="scale(0.015625)"/>
      <path id="MicrosoftYaHei-91cd" d="M 113 -203
L 2975 -203
L 2975 259
L 600 259
L 600 628
L 2975 628
L 2975 1153
L 1288 1153
L 1288 928
L 850 928
L 850 3278
L 2975 3278
L 2975 3728
L 163 3728
L 163 4116
L 2975 4116
L 2975 4606
Q 1841 4572 625 4547
Q 588 4747 538 4972
Q 3706 5009 5669 5141
L 5744 4716
Q 4631 4663 3425 4619
L 3425 4116
L 6263 4116
L 6263 3728
L 3425 3728
L 3425 3278
L 5569 3278
L 5569 934
L 5131 934
L 5131 1153
L 3425 1153
L 3425 628
L 5806 628
L 5806 259
L 3425 259
L 3425 -203
L 6263 -203
L 6263 -591
L 113 -591
L 113 -203
z
M 3425 1516
L 5131 1516
L 5131 2053
L 3425 2053
L 3425 1516
z
M 1288 1516
L 2975 1516
L 2975 2053
L 1288 2053
L 1288 1516
z
M 5131 2916
L 3425 2916
L 3425 2384
L 5131 2384
L 5131 2916
z
M 1288 2384
L 2975 2384
L 2975 2916
L 1288 2916
L 1288 2384
z
" transform="scale(0.015625)"/>
      <path id="MicrosoftYaHei-7f6e" d="M 94 -284
L 1025 -284
L 1025 2609
L 2938 2609
L 2938 3016
L 244 3016
L 244 3366
L 2938 3366
L 2938 3697
L 3388 3697
L 3388 3366
L 6150 3366
L 6150 3016
L 3388 3016
L 3388 2609
L 5431 2609
L 5431 -284
L 6294 -284
L 6294 -647
L 94 -647
L 94 -284
z
M 638 5034
L 5756 5034
L 5756 3641
L 5331 3641
L 5331 3784
L 1069 3784
L 1069 3641
L 638 3641
L 638 5034
z
M 1463 -284
L 4994 -284
L 4994 116
L 1463 116
L 1463 -284
z
M 1463 441
L 4994 441
L 4994 834
L 1463 834
L 1463 441
z
M 1463 1159
L 4994 1159
L 4994 1553
L 1463 1553
L 1463 1159
z
M 4994 2272
L 1463 2272
L 1463 1878
L 4994 1878
L 4994 2272
z
M 5331 4697
L 4181 4697
L 4181 4122
L 5331 4122
L 5331 4697
z
M 2625 4122
L 3769 4122
L 3769 4697
L 2625 4697
L 2625 4122
z
M 1069 4122
L 2213 4122
L 2213 4697
L 1069 4697
L 1069 4122
z
" transform="scale(0.015625)"/>
      <path id="MicrosoftYaHei-5cf0" d="M 2369 4147
L 2369 -72
L 1950 -72
L 1950 244
L 319 141
L 319 4166
L 738 4166
L 738 566
L 1131 591
L 1131 5134
L 1556 5134
L 1556 619
L 1950 644
L 1950 4147
L 2369 4147
z
M 2450 3734
Q 3238 4472 3588 5341
L 4013 5216
Q 3909 4988 3784 4766
L 5725 4766
L 5725 4366
Q 5378 3809 4784 3384
Q 5431 3091 6306 2959
Q 6188 2759 6106 2509
Q 5100 2725 4381 3125
Q 3672 2719 2688 2459
Q 2588 2691 2450 2878
Q 3334 3069 3978 3381
Q 3584 3669 3297 4025
Q 3047 3700 2744 3397
Q 2613 3572 2450 3734
z
M 2613 459
L 4169 459
L 4169 953
L 2869 953
L 2869 1328
L 4169 1328
L 4169 1816
L 2781 1816
L 2781 2191
L 4169 2191
L 4169 2766
L 4613 2766
L 4613 2191
L 5981 2191
L 5981 1816
L 4613 1816
L 4613 1328
L 5900 1328
L 5900 953
L 4613 953
L 4613 459
L 6188 459
L 6188 84
L 4613 84
L 4613 -828
L 4169 -828
L 4169 84
L 2613 84
L 2613 459
z
M 5231 4378
L 3550 4378
L 3534 4356
Q 3863 3913 4375 3600
Q 4913 3934 5231 4378
z
" transform="scale(0.015625)"/>
      <path id="MicrosoftYaHei-7b49" d="M 125 2303
L 2913 2303
L 2913 2922
L 563 2922
L 563 3328
L 2913 3328
L 2913 3822
L 3400 3822
L 3400 3328
L 5850 3328
L 5850 2922
L 3400 2922
L 3400 2303
L 6288 2303
L 6288 1884
L 125 1884
L 125 2303
z
M 338 1272
L 4250 1272
L 4250 1766
L 4738 1766
L 4738 1272
L 6075 1272
L 6075 853
L 4738 853
L 4738 22
Q 4738 -766 3925 -766
Q 3450 -766 2969 -759
Q 2938 -534 2875 -228
Q 3375 -278 3794 -278
Q 4250 -278 4250 91
L 4250 853
L 338 853
L 338 1272
z
M 1294 5347
L 1831 5347
Q 1688 5041 1513 4759
L 3325 4759
L 3325 4372
L 1244 4372
Q 875 3878 388 3459
Q 263 3609 75 3797
Q 856 4428 1294 5347
z
M 3969 5347
L 4506 5347
Q 4366 5038 4213 4759
L 6225 4759
L 6225 4372
L 3984 4372
Q 3772 4038 3538 3759
Q 3275 3947 3119 4009
Q 3663 4597 3969 5347
z
M 1500 491
L 1831 809
Q 2256 447 2700 28
L 2338 -316
Q 2000 41 1500 491
z
M 2019 3441
Q 1781 3753 1500 4078
L 1825 4309
Q 2125 4022 2388 3722
L 2019 3441
z
M 4744 3441
Q 4625 3628 4238 4078
L 4563 4309
Q 4900 3984 5113 3722
L 4744 3441
z
" transform="scale(0.015625)"/>
      <path id="MicrosoftYaHei-4e8e" d="M 125 2759
L 3031 2759
L 3031 4372
L 625 4372
L 625 4866
L 5800 4866
L 5800 4372
L 3556 4372
L 3556 2759
L 6275 2759
L 6275 2266
L 3556 2266
L 3556 122
Q 3556 -303 3400 -491
Q 3225 -709 2744 -722
Q 2463 -722 1688 -716
Q 1656 -428 1588 -147
Q 2294 -197 2569 -197
Q 2850 -197 2944 -91
Q 3031 -3 3031 303
L 3031 2266
L 125 2266
L 125 2759
z
" transform="scale(0.015625)"/>
      <path id="MicrosoftYaHei-5185" d="M 638 4184
L 2944 4184
L 2944 5259
L 3456 5259
L 3456 4184
L 5750 4184
L 5750 59
Q 5750 -734 4969 -728
Q 4556 -728 3956 -716
Q 3938 -503 3863 -172
Q 4456 -222 4850 -228
Q 5244 -241 5244 166
L 5244 3709
L 3444 3709
Q 3419 3141 3306 2697
Q 4413 1809 5094 1134
L 4713 728
Q 4044 1459 3156 2247
Q 2731 1328 1538 647
Q 1275 1009 1188 1097
Q 2206 1634 2581 2291
Q 2881 2772 2931 3709
L 1144 3709
L 1144 -784
L 638 -784
L 638 4184
z
" transform="scale(0.015625)"/>
      <path id="MicrosoftYaHei-3002" d="M 1219 863
Q 1525 863 1750 625
Q 1975 388 1975 72
Q 1975 -284 1747 -507
Q 1519 -731 1197 -731
Q 875 -731 642 -503
Q 409 -275 409 66
Q 409 413 656 638
Q 903 863 1219 863
z
M 1209 -275
Q 1328 -275 1431 -184
Q 1534 -94 1534 50
Q 1534 209 1434 304
Q 1334 400 1191 400
Q 1056 400 959 304
Q 863 209 863 53
Q 863 -100 977 -187
Q 1091 -275 1209 -275
z
" transform="scale(0.015625)"/>
     </defs>
     <use xlink:href="#MicrosoftYaHei-61"/>
     <use xlink:href="#MicrosoftYaHei-6c" transform="translate(55.273438 0)"/>
     <use xlink:href="#MicrosoftYaHei-6c" transform="translate(81.884766 0)"/>
     <use xlink:href="#MicrosoftYaHei-6f" transform="translate(108.496094 0)"/>
     <use xlink:href="#MicrosoftYaHei-63" transform="translate(172.070312 0)"/>
     <use xlink:href="#MicrosoftYaHei-61" transform="translate(222.216797 0)"/>
     <use xlink:href="#MicrosoftYaHei-74" transform="translate(277.490234 0)"/>
     <use xlink:href="#MicrosoftYaHei-65" transform="translate(313.871094 0)"/>
     <use xlink:href="#MicrosoftYaHei-64" transform="translate(370.609375 0)"/>
     <use xlink:href="#MicrosoftYaHei-20" transform="translate(434.574219 0)"/>
     <use xlink:href="#MicrosoftYaHei-7edf" transform="translate(464.164062 0)"/>
     <use xlink:href="#MicrosoftYaHei-8ba1" transform="translate(564.164062 0)"/>
     <use xlink:href="#MicrosoftYaHei-20" transform="translate(664.164062 0)"/>
     <use xlink:href="#MicrosoftYaHei-54" transform="translate(693.753906 0)"/>
     <use xlink:href="#MicrosoftYaHei-65" transform="translate(739.953125 0)"/>
     <use xlink:href="#MicrosoftYaHei-6e" transform="translate(796.691406 0)"/>
     <use xlink:href="#MicrosoftYaHei-73" transform="translate(858.3125 0)"/>
     <use xlink:href="#MicrosoftYaHei-6f" transform="translate(904.601562 0)"/>
     <use xlink:href="#MicrosoftYaHei-72" transform="translate(968.175781 0)"/>
     <use xlink:href="#MicrosoftYaHei-20" transform="translate(1006.359375 0)"/>
     <use xlink:href="#MicrosoftYaHei-5360" transform="translate(1035.949219 0)"/>
     <use xlink:href="#MicrosoftYaHei-7528" transform="translate(1135.949219 0)"/>
     <use xlink:href="#MicrosoftYaHei-ff1b" transform="translate(1235.949219 0)"/>
     <use xlink:href="#MicrosoftYaHei-72" transform="translate(1335.949219 0)"/>
     <use xlink:href="#MicrosoftYaHei-65" transform="translate(1372.757812 0)"/>
     <use xlink:href="#MicrosoftYaHei-73" transform="translate(1429.496094 0)"/>
     <use xlink:href="#MicrosoftYaHei-65" transform="translate(1475.785156 0)"/>
     <use xlink:href="#MicrosoftYaHei-72" transform="translate(1532.523438 0)"/>
     <use xlink:href="#MicrosoftYaHei-76" transform="translate(1575.082031 0)"/>
     <use xlink:href="#MicrosoftYaHei-65" transform="translate(1626.947266 0)"/>
     <use xlink:href="#MicrosoftYaHei-64" transform="translate(1683.685547 0)"/>
     <use xlink:href="#MicrosoftYaHei-20" transform="translate(1747.650391 0)"/>
     <use xlink:href="#MicrosoftYaHei-5305" transform="translate(1777.240234 0)"/>
     <use xlink:href="#MicrosoftYaHei-542b" transform="translate(1877.240234 0)"/>
     <use xlink:href="#MicrosoftYaHei-7f13" transform="translate(1977.240234 0)"/>
     <use xlink:href="#MicrosoftYaHei-5b58" transform="translate(2077.240234 0)"/>
     <use xlink:href="#MicrosoftYaHei-ff1b" transform="translate(2177.240234 0)"/>
     <use xlink:href="#MicrosoftYaHei-91cd" transform="translate(2277.240234 0)"/>
     <use xlink:href="#MicrosoftYaHei-7f6e" transform="translate(2377.240234 0)"/>
     <use xlink:href="#MicrosoftYaHei-5cf0" transform="translate(2477.240234 0)"/>
     <use xlink:href="#MicrosoftYaHei-503c" transform="translate(2577.240234 0)"/>
     <use xlink:href="#MicrosoftYaHei-4e0d" transform="translate(2677.240234 0)"/>
     <use xlink:href="#MicrosoftYaHei-7b49" transform="translate(2777.240234 0)"/>
     <use xlink:href="#MicrosoftYaHei-4e8e" transform="translate(2877.240234 0)"/>
     <use xlink:href="#MicrosoftYaHei-91ca" transform="translate(2977.240234 0)"/>
     <use xlink:href="#MicrosoftYaHei-653e" transform="translate(3077.240234 0)"/>
     <use xlink:href="#MicrosoftYaHei-5185" transform="translate(3177.240234 0)"/>
     <use xlink:href="#MicrosoftYaHei-5b58" transform="translate(3277.240234 0)"/>
     <use xlink:href="#MicrosoftYaHei-3002" transform="translate(3377.240234 0)"/>
    </g>
   </g>
  </g>
 </g>
 <defs>
  <clipPath id="p07380368be">
   <rect x="18" y="11.52" width="684" height="552.96"/>
  </clipPath>
 </defs>
</svg>
